<svg width="1540" height="143" viewBox="0 0 1540 143" fill="none" xmlns="http://www.w3.org/2000/svg">
<path d="M71.1648 23.8875C71.1648 23.8875 82.0402 21.5968 86.9522 17.0018C92.3232 11.9775 95.0523 -4.96405e-05 95.0523 -4.96405e-05C95.0523 -4.96405e-05 97.0174 11.9455 102.132 17.0018C107.177 21.9884 118.94 23.8875 118.94 23.8875C118.94 23.8875 107.149 26.3854 102.132 31.5748C97.3337 36.539 95.0523 47.775 95.0523 47.775C95.0523 47.775 92.0061 36.5235 86.9522 31.5748C82.0526 26.7771 71.1648 23.8875 71.1648 23.8875Z" fill="#B17569"/>
<path d="M165.889 23.8875C165.889 23.8875 176.765 21.5968 181.677 17.0018C187.048 11.9775 189.777 -4.96405e-05 189.777 -4.96405e-05C189.777 -4.96405e-05 191.742 11.9455 196.857 17.0018C201.901 21.9884 213.664 23.8875 213.664 23.8875C213.664 23.8875 201.873 26.3854 196.857 31.5748C192.058 36.539 189.777 47.775 189.777 47.775C189.777 47.775 186.731 36.5235 181.677 31.5748C176.777 26.7771 165.889 23.8875 165.889 23.8875Z" fill="#B17569"/>
<path d="M260.614 23.8875C260.614 23.8875 271.489 21.5968 276.401 17.0018C281.772 11.9775 284.501 -4.96405e-05 284.501 -4.96405e-05C284.501 -4.96405e-05 286.467 11.9455 291.582 17.0018C296.626 21.9884 308.389 23.8875 308.389 23.8875C308.389 23.8875 296.598 26.3854 291.582 31.5748C286.783 36.539 284.501 47.775 284.501 47.775C284.501 47.775 281.455 36.5235 276.401 31.5748C271.502 26.7771 260.614 23.8875 260.614 23.8875Z" fill="#B17569"/>
<path d="M355.338 23.8875C355.338 23.8875 366.214 21.5968 371.126 17.0018C376.497 11.9775 379.226 -4.96405e-05 379.226 -4.96405e-05C379.226 -4.96405e-05 381.191 11.9455 386.306 17.0018C391.35 21.9884 403.113 23.8875 403.113 23.8875C403.113 23.8875 391.322 26.3854 386.306 31.5748C381.507 36.539 379.226 47.775 379.226 47.775C379.226 47.775 376.18 36.5235 371.126 31.5748C366.226 26.7771 355.338 23.8875 355.338 23.8875Z" fill="#B17569"/>
<path d="M450.063 23.8875C450.063 23.8875 460.938 21.5968 465.85 17.0018C471.221 11.9775 473.95 -4.96405e-05 473.95 -4.96405e-05C473.95 -4.96405e-05 475.915 11.9455 481.03 17.0018C486.075 21.9884 497.838 23.8875 497.838 23.8875C497.838 23.8875 486.047 26.3854 481.03 31.5748C476.232 36.539 473.95 47.775 473.95 47.775C473.95 47.775 470.904 36.5235 465.85 31.5748C460.951 26.7771 450.063 23.8875 450.063 23.8875Z" fill="#B17569"/>
<path d="M544.787 23.8875C544.787 23.8875 555.663 21.5968 560.575 17.0018C565.946 11.9775 568.675 -4.96405e-05 568.675 -4.96405e-05C568.675 -4.96405e-05 570.64 11.9455 575.755 17.0018C580.8 21.9884 592.562 23.8875 592.562 23.8875C592.562 23.8875 580.771 26.3854 575.755 31.5748C570.956 36.539 568.675 47.775 568.675 47.775C568.675 47.775 565.629 36.5235 560.575 31.5748C555.675 26.7771 544.787 23.8875 544.787 23.8875Z" fill="#B17569"/>
<path d="M639.512 23.8875C639.512 23.8875 650.387 21.5968 655.299 17.0018C660.67 11.9775 663.399 -4.96405e-05 663.399 -4.96405e-05C663.399 -4.96405e-05 665.365 11.9455 670.48 17.0018C675.524 21.9884 687.287 23.8875 687.287 23.8875C687.287 23.8875 675.496 26.3854 670.48 31.5748C665.681 36.539 663.399 47.775 663.399 47.775C663.399 47.775 660.353 36.5235 655.299 31.5748C650.4 26.7771 639.512 23.8875 639.512 23.8875Z" fill="#B17569"/>
<path d="M734.236 23.8875C734.236 23.8875 745.112 21.5968 750.024 17.0018C755.395 11.9775 758.124 -4.96405e-05 758.124 -4.96405e-05C758.124 -4.96405e-05 760.089 11.9455 765.204 17.0018C770.249 21.9884 782.011 23.8875 782.011 23.8875C782.011 23.8875 770.221 26.3854 765.204 31.5748C760.405 36.539 758.124 47.775 758.124 47.775C758.124 47.775 755.078 36.5235 750.024 31.5748C745.124 26.7771 734.236 23.8875 734.236 23.8875Z" fill="#B17569"/>
<path d="M828.961 23.8875C828.961 23.8875 839.836 21.5968 844.748 17.0018C850.119 11.9775 852.848 -4.96405e-05 852.848 -4.96405e-05C852.848 -4.96405e-05 854.814 11.9455 859.929 17.0018C864.973 21.9884 876.736 23.8875 876.736 23.8875C876.736 23.8875 864.945 26.3854 859.929 31.5748C855.13 36.539 852.848 47.775 852.848 47.775C852.848 47.775 849.802 36.5235 844.748 31.5748C839.849 26.7771 828.961 23.8875 828.961 23.8875Z" fill="#B17569"/>
<path d="M923.686 23.8875C923.686 23.8875 934.561 21.5968 939.473 17.0018C944.844 11.9775 947.573 -4.96405e-05 947.573 -4.96405e-05C947.573 -4.96405e-05 949.538 11.9455 954.653 17.0018C959.698 21.9884 971.461 23.8875 971.461 23.8875C971.461 23.8875 959.67 26.3854 954.653 31.5748C949.855 36.539 947.573 47.775 947.573 47.775C947.573 47.775 944.527 36.5235 939.473 31.5748C934.573 26.7771 923.686 23.8875 923.686 23.8875Z" fill="#B17569"/>
<path d="M1018.41 23.8875C1018.41 23.8875 1029.29 21.5968 1034.2 17.0018C1039.57 11.9775 1042.3 -4.96405e-05 1042.3 -4.96405e-05C1042.3 -4.96405e-05 1044.26 11.9455 1049.38 17.0018C1054.42 21.9884 1066.19 23.8875 1066.19 23.8875C1066.19 23.8875 1054.39 26.3854 1049.38 31.5748C1044.58 36.539 1042.3 47.775 1042.3 47.775C1042.3 47.775 1039.25 36.5235 1034.2 31.5748C1029.3 26.7771 1018.41 23.8875 1018.41 23.8875Z" fill="#B17569"/>
<path d="M1113.13 23.8875C1113.13 23.8875 1124.01 21.5968 1128.92 17.0018C1134.29 11.9775 1137.02 -4.96405e-05 1137.02 -4.96405e-05C1137.02 -4.96405e-05 1138.99 11.9455 1144.1 17.0018C1149.15 21.9884 1160.91 23.8875 1160.91 23.8875C1160.91 23.8875 1149.12 26.3854 1144.1 31.5748C1139.3 36.539 1137.02 47.775 1137.02 47.775C1137.02 47.775 1133.98 36.5235 1128.92 31.5748C1124.02 26.7771 1113.13 23.8875 1113.13 23.8875Z" fill="#B17569"/>
<path d="M1207.86 23.8875C1207.86 23.8875 1218.73 21.5968 1223.65 17.0018C1229.02 11.9775 1231.75 -4.96405e-05 1231.75 -4.96405e-05C1231.75 -4.96405e-05 1233.71 11.9455 1238.83 17.0018C1243.87 21.9884 1255.63 23.8875 1255.63 23.8875C1255.63 23.8875 1243.84 26.3854 1238.83 31.5748C1234.03 36.539 1231.75 47.775 1231.75 47.775C1231.75 47.775 1228.7 36.5235 1223.65 31.5748C1218.75 26.7771 1207.86 23.8875 1207.86 23.8875Z" fill="#B17569"/>
<path d="M1302.58 23.8875C1302.58 23.8875 1313.46 21.5968 1318.37 17.0018C1323.74 11.9775 1326.47 -4.96405e-05 1326.47 -4.96405e-05C1326.47 -4.96405e-05 1328.44 11.9455 1333.55 17.0018C1338.6 21.9884 1350.36 23.8875 1350.36 23.8875C1350.36 23.8875 1338.57 26.3854 1333.55 31.5748C1328.75 36.539 1326.47 47.775 1326.47 47.775C1326.47 47.775 1323.42 36.5235 1318.37 31.5748C1313.47 26.7771 1302.58 23.8875 1302.58 23.8875Z" fill="#B17569"/>
<path d="M1397.31 23.8875C1397.31 23.8875 1408.18 21.5968 1413.1 17.0018C1418.47 11.9775 1421.2 -4.96405e-05 1421.2 -4.96405e-05C1421.2 -4.96405e-05 1423.16 11.9455 1428.28 17.0018C1433.32 21.9884 1445.08 23.8875 1445.08 23.8875C1445.08 23.8875 1433.29 26.3854 1428.28 31.5748C1423.48 36.539 1421.2 47.775 1421.2 47.775C1421.2 47.775 1418.15 36.5235 1413.1 31.5748C1408.2 26.7771 1397.31 23.8875 1397.31 23.8875Z" fill="#B17569"/>
<path d="M71.1648 118.612C71.1648 118.612 82.0402 116.321 86.9522 111.726C92.3232 106.702 95.0523 94.7246 95.0523 94.7246C95.0523 94.7246 97.0174 106.67 102.132 111.726C107.177 116.713 118.94 118.612 118.94 118.612C118.94 118.612 107.149 121.11 102.132 126.299C97.3337 131.264 95.0523 142.5 95.0523 142.5C95.0523 142.5 92.0061 131.248 86.9522 126.299C82.0526 121.502 71.1648 118.612 71.1648 118.612Z" fill="#B17569"/>
<path d="M165.889 118.612C165.889 118.612 176.765 116.321 181.677 111.726C187.048 106.702 189.777 94.7246 189.777 94.7246C189.777 94.7246 191.742 106.67 196.857 111.726C201.901 116.713 213.664 118.612 213.664 118.612C213.664 118.612 201.873 121.11 196.857 126.299C192.058 131.264 189.777 142.5 189.777 142.5C189.777 142.5 186.731 131.248 181.677 126.299C176.777 121.502 165.889 118.612 165.889 118.612Z" fill="#B17569"/>
<path d="M260.614 118.612C260.614 118.612 271.489 116.321 276.401 111.726C281.772 106.702 284.501 94.7246 284.501 94.7246C284.501 94.7246 286.467 106.67 291.582 111.726C296.626 116.713 308.389 118.612 308.389 118.612C308.389 118.612 296.598 121.11 291.582 126.299C286.783 131.264 284.501 142.5 284.501 142.5C284.501 142.5 281.455 131.248 276.401 126.299C271.502 121.502 260.614 118.612 260.614 118.612Z" fill="#B17569"/>
<path d="M355.338 118.612C355.338 118.612 366.214 116.321 371.126 111.726C376.497 106.702 379.226 94.7246 379.226 94.7246C379.226 94.7246 381.191 106.67 386.306 111.726C391.35 116.713 403.113 118.612 403.113 118.612C403.113 118.612 391.322 121.11 386.306 126.299C381.507 131.264 379.226 142.5 379.226 142.5C379.226 142.5 376.18 131.248 371.126 126.299C366.226 121.502 355.338 118.612 355.338 118.612Z" fill="#B17569"/>
<path d="M450.063 118.612C450.063 118.612 460.938 116.321 465.85 111.726C471.221 106.702 473.95 94.7246 473.95 94.7246C473.95 94.7246 475.915 106.67 481.03 111.726C486.075 116.713 497.838 118.612 497.838 118.612C497.838 118.612 486.047 121.11 481.03 126.299C476.232 131.264 473.95 142.5 473.95 142.5C473.95 142.5 470.904 131.248 465.85 126.299C460.951 121.502 450.063 118.612 450.063 118.612Z" fill="#B17569"/>
<path d="M544.787 118.612C544.787 118.612 555.663 116.321 560.575 111.726C565.946 106.702 568.675 94.7246 568.675 94.7246C568.675 94.7246 570.64 106.67 575.755 111.726C580.8 116.713 592.562 118.612 592.562 118.612C592.562 118.612 580.771 121.11 575.755 126.299C570.956 131.264 568.675 142.5 568.675 142.5C568.675 142.5 565.629 131.248 560.575 126.299C555.675 121.502 544.787 118.612 544.787 118.612Z" fill="#B17569"/>
<path d="M639.512 118.612C639.512 118.612 650.387 116.321 655.299 111.726C660.67 106.702 663.399 94.7246 663.399 94.7246C663.399 94.7246 665.365 106.67 670.48 111.726C675.524 116.713 687.287 118.612 687.287 118.612C687.287 118.612 675.496 121.11 670.48 126.299C665.681 131.264 663.399 142.5 663.399 142.5C663.399 142.5 660.353 131.248 655.299 126.299C650.4 121.502 639.512 118.612 639.512 118.612Z" fill="#B17569"/>
<path d="M734.236 118.612C734.236 118.612 745.112 116.321 750.024 111.726C755.395 106.702 758.124 94.7246 758.124 94.7246C758.124 94.7246 760.089 106.67 765.204 111.726C770.249 116.713 782.011 118.612 782.011 118.612C782.011 118.612 770.221 121.11 765.204 126.299C760.405 131.264 758.124 142.5 758.124 142.5C758.124 142.5 755.078 131.248 750.024 126.299C745.124 121.502 734.236 118.612 734.236 118.612Z" fill="#B17569"/>
<path d="M828.961 118.612C828.961 118.612 839.836 116.321 844.748 111.726C850.119 106.702 852.848 94.7246 852.848 94.7246C852.848 94.7246 854.814 106.67 859.929 111.726C864.973 116.713 876.736 118.612 876.736 118.612C876.736 118.612 864.945 121.11 859.929 126.299C855.13 131.264 852.848 142.5 852.848 142.5C852.848 142.5 849.802 131.248 844.748 126.299C839.849 121.502 828.961 118.612 828.961 118.612Z" fill="#B17569"/>
<path d="M923.686 118.612C923.686 118.612 934.561 116.321 939.473 111.726C944.844 106.702 947.573 94.7246 947.573 94.7246C947.573 94.7246 949.538 106.67 954.653 111.726C959.698 116.713 971.461 118.612 971.461 118.612C971.461 118.612 959.67 121.11 954.653 126.299C949.855 131.264 947.573 142.5 947.573 142.5C947.573 142.5 944.527 131.248 939.473 126.299C934.573 121.502 923.686 118.612 923.686 118.612Z" fill="#B17569"/>
<path d="M1018.41 118.612C1018.41 118.612 1029.29 116.321 1034.2 111.726C1039.57 106.702 1042.3 94.7246 1042.3 94.7246C1042.3 94.7246 1044.26 106.67 1049.38 111.726C1054.42 116.713 1066.19 118.612 1066.19 118.612C1066.19 118.612 1054.39 121.11 1049.38 126.299C1044.58 131.264 1042.3 142.5 1042.3 142.5C1042.3 142.5 1039.25 131.248 1034.2 126.299C1029.3 121.502 1018.41 118.612 1018.41 118.612Z" fill="#B17569"/>
<path d="M1113.13 118.612C1113.13 118.612 1124.01 116.321 1128.92 111.726C1134.29 106.702 1137.02 94.7246 1137.02 94.7246C1137.02 94.7246 1138.99 106.67 1144.1 111.726C1149.15 116.713 1160.91 118.612 1160.91 118.612C1160.91 118.612 1149.12 121.11 1144.1 126.299C1139.3 131.264 1137.02 142.5 1137.02 142.5C1137.02 142.5 1133.98 131.248 1128.92 126.299C1124.02 121.502 1113.13 118.612 1113.13 118.612Z" fill="#B17569"/>
<path d="M1207.86 118.612C1207.86 118.612 1218.73 116.321 1223.65 111.726C1229.02 106.702 1231.75 94.7246 1231.75 94.7246C1231.75 94.7246 1233.71 106.67 1238.83 111.726C1243.87 116.713 1255.63 118.612 1255.63 118.612C1255.63 118.612 1243.84 121.11 1238.83 126.299C1234.03 131.264 1231.75 142.5 1231.75 142.5C1231.75 142.5 1228.7 131.248 1223.65 126.299C1218.75 121.502 1207.86 118.612 1207.86 118.612Z" fill="#B17569"/>
<path d="M1302.58 118.612C1302.58 118.612 1313.46 116.321 1318.37 111.726C1323.74 106.702 1326.47 94.7246 1326.47 94.7246C1326.47 94.7246 1328.44 106.67 1333.55 111.726C1338.6 116.713 1350.36 118.612 1350.36 118.612C1350.36 118.612 1338.57 121.11 1333.55 126.299C1328.75 131.264 1326.47 142.5 1326.47 142.5C1326.47 142.5 1323.42 131.248 1318.37 126.299C1313.47 121.502 1302.58 118.612 1302.58 118.612Z" fill="#B17569"/>
<path d="M1397.31 118.612C1397.31 118.612 1408.18 116.321 1413.1 111.726C1418.47 106.702 1421.2 94.7246 1421.2 94.7246C1421.2 94.7246 1423.16 106.67 1428.28 111.726C1433.32 116.713 1445.08 118.612 1445.08 118.612C1445.08 118.612 1433.29 121.11 1428.28 126.299C1423.48 131.264 1421.2 142.5 1421.2 142.5C1421.2 142.5 1418.15 131.248 1413.1 126.299C1408.2 121.502 1397.31 118.612 1397.31 118.612Z" fill="#B17569"/>
<path d="M1492 118.612C1492 118.612 1502.88 116.321 1507.79 111.726C1513.16 106.702 1515.89 94.7246 1515.89 94.7246C1515.89 94.7246 1517.85 106.67 1522.97 111.726C1528.01 116.713 1539.78 118.612 1539.78 118.612C1539.78 118.612 1527.98 121.11 1522.97 126.299C1518.17 131.264 1515.89 142.5 1515.89 142.5C1515.89 142.5 1512.84 131.248 1507.79 126.299C1502.89 121.502 1492 118.612 1492 118.612Z" fill="#B17569"/>
<path d="M23.8025 48.1758C23.8025 48.1758 34.6779 45.8852 39.5899 41.2901C44.9609 36.2658 47.69 24.2883 47.69 24.2883C47.69 24.2883 49.6551 36.2338 54.7701 41.2901C59.8146 46.2767 71.5775 48.1758 71.5775 48.1758C71.5775 48.1758 59.7865 50.6737 54.7701 55.8631C49.9714 60.8273 47.69 72.0633 47.69 72.0633C47.69 72.0633 44.6438 60.8119 39.5899 55.8631C34.6903 51.0654 23.8025 48.1758 23.8025 48.1758Z" fill="#B17569"/>
<path d="M23.8025 95.8176C23.8025 95.8176 34.6779 93.527 39.5899 88.932C44.9609 83.9077 47.69 71.9301 47.69 71.9301C47.69 71.9301 49.6551 83.8756 54.7701 88.932C59.8146 93.9186 71.5775 95.8176 71.5775 95.8176C71.5775 95.8176 59.7865 98.3156 54.7701 103.505C49.9714 108.469 47.69 119.705 47.69 119.705C47.69 119.705 44.6438 108.454 39.5899 103.505C34.6903 98.7073 23.8025 95.8176 23.8025 95.8176Z" fill="#B17569"/>
<path d="M47.6051 72.0149C47.6051 72.0149 58.4805 69.7243 63.3925 65.1292C68.7635 60.1049 71.4926 48.1274 71.4926 48.1274C71.4926 48.1274 73.4577 60.0729 78.5727 65.1292C83.6172 70.1158 95.3801 72.0149 95.3801 72.0149C95.3801 72.0149 83.5892 74.5128 78.5727 79.7022C73.7741 84.6664 71.4926 95.9024 71.4926 95.9024C71.4926 95.9024 68.4464 84.651 63.3925 79.7022C58.4929 74.9045 47.6051 72.0149 47.6051 72.0149Z" fill="#B17569"/>
<path d="M0 72.0149C0 72.0149 10.8754 69.7243 15.7874 65.1292C21.1584 60.1049 23.8875 48.1274 23.8875 48.1274C23.8875 48.1274 25.8526 60.0729 30.9676 65.1292C36.0121 70.1158 47.775 72.0149 47.775 72.0149C47.775 72.0149 35.9841 74.5128 30.9676 79.7022C26.169 84.6664 23.8875 95.9024 23.8875 95.9024C23.8875 95.9024 20.8413 84.651 15.7874 79.7022C10.8878 74.9045 0 72.0149 0 72.0149Z" fill="#B17569"/>
<path d="M118.527 48.1758C118.527 48.1758 129.402 45.8852 134.315 41.2901C139.685 36.2658 142.415 24.2883 142.415 24.2883C142.415 24.2883 144.38 36.2338 149.495 41.2901C154.539 46.2767 166.302 48.1758 166.302 48.1758C166.302 48.1758 154.511 50.6737 149.495 55.8631C144.696 60.8273 142.415 72.0633 142.415 72.0633C142.415 72.0633 139.368 60.8119 134.315 55.8631C129.415 51.0654 118.527 48.1758 118.527 48.1758Z" fill="#B17569"/>
<path d="M118.527 95.8176C118.527 95.8176 129.402 93.527 134.315 88.932C139.685 83.9077 142.415 71.9301 142.415 71.9301C142.415 71.9301 144.38 83.8756 149.495 88.932C154.539 93.9186 166.302 95.8176 166.302 95.8176C166.302 95.8176 154.511 98.3156 149.495 103.505C144.696 108.469 142.415 119.705 142.415 119.705C142.415 119.705 139.368 108.454 134.315 103.505C129.415 98.7073 118.527 95.8176 118.527 95.8176Z" fill="#B17569"/>
<path d="M142.33 72.0149C142.33 72.0149 153.205 69.7243 158.117 65.1292C163.488 60.1049 166.217 48.1274 166.217 48.1274C166.217 48.1274 168.182 60.0729 173.297 65.1292C178.342 70.1158 190.105 72.0149 190.105 72.0149C190.105 72.0149 178.314 74.5128 173.297 79.7022C168.499 84.6664 166.217 95.9024 166.217 95.9024C166.217 95.9024 163.171 84.651 158.117 79.7022C153.217 74.9045 142.33 72.0149 142.33 72.0149Z" fill="#B17569"/>
<path d="M94.7246 72.0149C94.7246 72.0149 105.6 69.7243 110.512 65.1292C115.883 60.1049 118.612 48.1274 118.612 48.1274C118.612 48.1274 120.577 60.0729 125.692 65.1292C130.737 70.1158 142.5 72.0149 142.5 72.0149C142.5 72.0149 130.709 74.5128 125.692 79.7022C120.894 84.6664 118.612 95.9024 118.612 95.9024C118.612 95.9024 115.566 84.651 110.512 79.7022C105.612 74.9045 94.7246 72.0149 94.7246 72.0149Z" fill="#B17569"/>
<path d="M213.252 48.1758C213.252 48.1758 224.127 45.8852 229.039 41.2901C234.41 36.2658 237.139 24.2883 237.139 24.2883C237.139 24.2883 239.104 36.2338 244.219 41.2901C249.264 46.2767 261.027 48.1758 261.027 48.1758C261.027 48.1758 249.236 50.6737 244.219 55.8631C239.42 60.8273 237.139 72.0633 237.139 72.0633C237.139 72.0633 234.093 60.8119 229.039 55.8631C224.139 51.0654 213.252 48.1758 213.252 48.1758Z" fill="#B17569"/>
<path d="M213.252 95.8176C213.252 95.8176 224.127 93.527 229.039 88.932C234.41 83.9077 237.139 71.9301 237.139 71.9301C237.139 71.9301 239.104 83.8756 244.219 88.932C249.264 93.9186 261.027 95.8176 261.027 95.8176C261.027 95.8176 249.236 98.3156 244.219 103.505C239.42 108.469 237.139 119.705 237.139 119.705C237.139 119.705 234.093 108.454 229.039 103.505C224.139 98.7073 213.252 95.8176 213.252 95.8176Z" fill="#B17569"/>
<path d="M237.054 72.0149C237.054 72.0149 247.929 69.7243 252.841 65.1292C258.212 60.1049 260.942 48.1274 260.942 48.1274C260.942 48.1274 262.907 60.0729 268.022 65.1292C273.066 70.1158 284.829 72.0149 284.829 72.0149C284.829 72.0149 273.038 74.5128 268.022 79.7022C263.223 84.6664 260.942 95.9024 260.942 95.9024C260.942 95.9024 257.895 84.651 252.841 79.7022C247.942 74.9045 237.054 72.0149 237.054 72.0149Z" fill="#B17569"/>
<path d="M189.449 72.0149C189.449 72.0149 200.324 69.7243 205.236 65.1292C210.607 60.1049 213.336 48.1274 213.336 48.1274C213.336 48.1274 215.302 60.0729 220.417 65.1292C225.461 70.1158 237.224 72.0149 237.224 72.0149C237.224 72.0149 225.433 74.5128 220.417 79.7022C215.618 84.6664 213.336 95.9024 213.336 95.9024C213.336 95.9024 210.29 84.651 205.236 79.7022C200.337 74.9045 189.449 72.0149 189.449 72.0149Z" fill="#B17569"/>
<path d="M307.976 48.1758C307.976 48.1758 318.851 45.8852 323.764 41.2901C329.135 36.2658 331.864 24.2883 331.864 24.2883C331.864 24.2883 333.829 36.2338 338.944 41.2901C343.988 46.2767 355.751 48.1758 355.751 48.1758C355.751 48.1758 343.96 50.6737 338.944 55.8631C334.145 60.8273 331.864 72.0633 331.864 72.0633C331.864 72.0633 328.817 60.8119 323.764 55.8631C318.864 51.0654 307.976 48.1758 307.976 48.1758Z" fill="#B17569"/>
<path d="M307.976 95.8176C307.976 95.8176 318.851 93.527 323.764 88.932C329.135 83.9077 331.864 71.9301 331.864 71.9301C331.864 71.9301 333.829 83.8756 338.944 88.932C343.988 93.9186 355.751 95.8176 355.751 95.8176C355.751 95.8176 343.96 98.3156 338.944 103.505C334.145 108.469 331.864 119.705 331.864 119.705C331.864 119.705 328.817 108.454 323.764 103.505C318.864 98.7073 307.976 95.8176 307.976 95.8176Z" fill="#B17569"/>
<path d="M331.779 72.0149C331.779 72.0149 342.654 69.7243 347.566 65.1292C352.937 60.1049 355.666 48.1274 355.666 48.1274C355.666 48.1274 357.631 60.0729 362.746 65.1292C367.791 70.1158 379.554 72.0149 379.554 72.0149C379.554 72.0149 367.763 74.5128 362.746 79.7022C357.948 84.6664 355.666 95.9024 355.666 95.9024C355.666 95.9024 352.62 84.651 347.566 79.7022C342.666 74.9045 331.779 72.0149 331.779 72.0149Z" fill="#B17569"/>
<path d="M284.174 72.0149C284.174 72.0149 295.049 69.7243 299.961 65.1292C305.332 60.1049 308.061 48.1274 308.061 48.1274C308.061 48.1274 310.026 60.0729 315.141 65.1292C320.186 70.1158 331.949 72.0149 331.949 72.0149C331.949 72.0149 320.158 74.5128 315.141 79.7022C310.343 84.6664 308.061 95.9024 308.061 95.9024C308.061 95.9024 305.015 84.651 299.961 79.7022C295.061 74.9045 284.174 72.0149 284.174 72.0149Z" fill="#B17569"/>
<path d="M402.701 48.1758C402.701 48.1758 413.576 45.8852 418.488 41.2901C423.859 36.2658 426.588 24.2883 426.588 24.2883C426.588 24.2883 428.553 36.2338 433.668 41.2901C438.713 46.2767 450.476 48.1758 450.476 48.1758C450.476 48.1758 438.685 50.6737 433.668 55.8631C428.87 60.8273 426.588 72.0633 426.588 72.0633C426.588 72.0633 423.542 60.8119 418.488 55.8631C413.588 51.0654 402.701 48.1758 402.701 48.1758Z" fill="#B17569"/>
<path d="M402.701 95.8176C402.701 95.8176 413.576 93.527 418.488 88.932C423.859 83.9077 426.588 71.9301 426.588 71.9301C426.588 71.9301 428.553 83.8756 433.668 88.932C438.713 93.9186 450.476 95.8176 450.476 95.8176C450.476 95.8176 438.685 98.3156 433.668 103.505C428.87 108.469 426.588 119.705 426.588 119.705C426.588 119.705 423.542 108.454 418.488 103.505C413.588 98.7073 402.701 95.8176 402.701 95.8176Z" fill="#B17569"/>
<path d="M426.503 72.0149C426.503 72.0149 437.379 69.7243 442.291 65.1292C447.662 60.1049 450.391 48.1274 450.391 48.1274C450.391 48.1274 452.356 60.0729 457.471 65.1292C462.515 70.1158 474.278 72.0149 474.278 72.0149C474.278 72.0149 462.487 74.5128 457.471 79.7022C452.672 84.6664 450.391 95.9024 450.391 95.9024C450.391 95.9024 447.344 84.651 442.291 79.7022C437.391 74.9045 426.503 72.0149 426.503 72.0149Z" fill="#B17569"/>
<path d="M378.898 72.0149C378.898 72.0149 389.773 69.7243 394.685 65.1292C400.056 60.1049 402.786 48.1274 402.786 48.1274C402.786 48.1274 404.751 60.0729 409.866 65.1292C414.91 70.1158 426.673 72.0149 426.673 72.0149C426.673 72.0149 414.882 74.5128 409.866 79.7022C405.067 84.6664 402.786 95.9024 402.786 95.9024C402.786 95.9024 399.739 84.651 394.685 79.7022C389.786 74.9045 378.898 72.0149 378.898 72.0149Z" fill="#B17569"/>
<path d="M497.425 48.1758C497.425 48.1758 508.301 45.8852 513.213 41.2901C518.584 36.2658 521.313 24.2883 521.313 24.2883C521.313 24.2883 523.278 36.2338 528.393 41.2901C533.437 46.2767 545.2 48.1758 545.2 48.1758C545.2 48.1758 533.409 50.6737 528.393 55.8631C523.594 60.8273 521.313 72.0633 521.313 72.0633C521.313 72.0633 518.266 60.8119 513.213 55.8631C508.313 51.0654 497.425 48.1758 497.425 48.1758Z" fill="#B17569"/>
<path d="M497.425 95.8176C497.425 95.8176 508.301 93.527 513.213 88.932C518.584 83.9077 521.313 71.9301 521.313 71.9301C521.313 71.9301 523.278 83.8756 528.393 88.932C533.437 93.9186 545.2 95.8176 545.2 95.8176C545.2 95.8176 533.409 98.3156 528.393 103.505C523.594 108.469 521.313 119.705 521.313 119.705C521.313 119.705 518.266 108.454 513.213 103.505C508.313 98.7073 497.425 95.8176 497.425 95.8176Z" fill="#B17569"/>
<path d="M521.228 72.0149C521.228 72.0149 532.103 69.7243 537.015 65.1292C542.386 60.1049 545.115 48.1274 545.115 48.1274C545.115 48.1274 547.08 60.0729 552.195 65.1292C557.24 70.1158 569.003 72.0149 569.003 72.0149C569.003 72.0149 557.212 74.5128 552.195 79.7022C547.397 84.6664 545.115 95.9024 545.115 95.9024C545.115 95.9024 542.069 84.651 537.015 79.7022C532.116 74.9045 521.228 72.0149 521.228 72.0149Z" fill="#B17569"/>
<path d="M473.623 72.0149C473.623 72.0149 484.498 69.7243 489.41 65.1292C494.781 60.1049 497.51 48.1274 497.51 48.1274C497.51 48.1274 499.475 60.0729 504.59 65.1292C509.635 70.1158 521.398 72.0149 521.398 72.0149C521.398 72.0149 509.607 74.5128 504.59 79.7022C499.792 84.6664 497.51 95.9024 497.51 95.9024C497.51 95.9024 494.464 84.651 489.41 79.7022C484.51 74.9045 473.623 72.0149 473.623 72.0149Z" fill="#B17569"/>
<path d="M592.15 48.1758C592.15 48.1758 603.025 45.8852 607.937 41.2901C613.308 36.2658 616.037 24.2883 616.037 24.2883C616.037 24.2883 618.002 36.2338 623.117 41.2901C628.162 46.2767 639.925 48.1758 639.925 48.1758C639.925 48.1758 628.134 50.6737 623.117 55.8631C618.319 60.8273 616.037 72.0633 616.037 72.0633C616.037 72.0633 612.991 60.8119 607.937 55.8631C603.037 51.0654 592.15 48.1758 592.15 48.1758Z" fill="#B17569"/>
<path d="M592.15 95.8176C592.15 95.8176 603.025 93.527 607.937 88.932C613.308 83.9077 616.037 71.9301 616.037 71.9301C616.037 71.9301 618.002 83.8756 623.117 88.932C628.162 93.9186 639.925 95.8176 639.925 95.8176C639.925 95.8176 628.134 98.3156 623.117 103.505C618.319 108.469 616.037 119.705 616.037 119.705C616.037 119.705 612.991 108.454 607.937 103.505C603.037 98.7073 592.15 95.8176 592.15 95.8176Z" fill="#B17569"/>
<path d="M615.952 72.0149C615.952 72.0149 626.828 69.7243 631.74 65.1292C637.111 60.1049 639.84 48.1274 639.84 48.1274C639.84 48.1274 641.805 60.0729 646.92 65.1292C651.964 70.1158 663.727 72.0149 663.727 72.0149C663.727 72.0149 651.936 74.5128 646.92 79.7022C642.121 84.6664 639.84 95.9024 639.84 95.9024C639.84 95.9024 636.794 84.651 631.74 79.7022C626.84 74.9045 615.952 72.0149 615.952 72.0149Z" fill="#B17569"/>
<path d="M568.347 72.0149C568.347 72.0149 579.223 69.7243 584.135 65.1292C589.506 60.1049 592.235 48.1274 592.235 48.1274C592.235 48.1274 594.2 60.0729 599.315 65.1292C604.359 70.1158 616.122 72.0149 616.122 72.0149C616.122 72.0149 604.331 74.5128 599.315 79.7022C594.516 84.6664 592.235 95.9024 592.235 95.9024C592.235 95.9024 589.188 84.651 584.135 79.7022C579.235 74.9045 568.347 72.0149 568.347 72.0149Z" fill="#B17569"/>
<path d="M686.874 48.1758C686.874 48.1758 697.75 45.8852 702.662 41.2901C708.033 36.2658 710.762 24.2883 710.762 24.2883C710.762 24.2883 712.727 36.2338 717.842 41.2901C722.886 46.2767 734.649 48.1758 734.649 48.1758C734.649 48.1758 722.858 50.6737 717.842 55.8631C713.043 60.8273 710.762 72.0633 710.762 72.0633C710.762 72.0633 707.716 60.8119 702.662 55.8631C697.762 51.0654 686.874 48.1758 686.874 48.1758Z" fill="#B17569"/>
<path d="M686.874 95.8176C686.874 95.8176 697.75 93.527 702.662 88.932C708.033 83.9077 710.762 71.9301 710.762 71.9301C710.762 71.9301 712.727 83.8756 717.842 88.932C722.886 93.9186 734.649 95.8176 734.649 95.8176C734.649 95.8176 722.858 98.3156 717.842 103.505C713.043 108.469 710.762 119.705 710.762 119.705C710.762 119.705 707.716 108.454 702.662 103.505C697.762 98.7073 686.874 95.8176 686.874 95.8176Z" fill="#B17569"/>
<path d="M710.677 72.0149C710.677 72.0149 721.552 69.7243 726.464 65.1292C731.835 60.1049 734.564 48.1274 734.564 48.1274C734.564 48.1274 736.529 60.0729 741.644 65.1292C746.689 70.1158 758.452 72.0149 758.452 72.0149C758.452 72.0149 746.661 74.5128 741.644 79.7022C736.846 84.6664 734.564 95.9024 734.564 95.9024C734.564 95.9024 731.518 84.651 726.464 79.7022C721.565 74.9045 710.677 72.0149 710.677 72.0149Z" fill="#B17569"/>
<path d="M663.072 72.0149C663.072 72.0149 673.947 69.7243 678.859 65.1292C684.23 60.1049 686.959 48.1274 686.959 48.1274C686.959 48.1274 688.924 60.0729 694.039 65.1292C699.084 70.1158 710.847 72.0149 710.847 72.0149C710.847 72.0149 699.056 74.5128 694.039 79.7022C689.241 84.6664 686.959 95.9024 686.959 95.9024C686.959 95.9024 683.913 84.651 678.859 79.7022C673.959 74.9045 663.072 72.0149 663.072 72.0149Z" fill="#B17569"/>
<path d="M781.599 48.1758C781.599 48.1758 792.474 45.8852 797.386 41.2901C802.757 36.2658 805.486 24.2883 805.486 24.2883C805.486 24.2883 807.451 36.2338 812.566 41.2901C817.611 46.2767 829.374 48.1758 829.374 48.1758C829.374 48.1758 817.583 50.6737 812.566 55.8631C807.768 60.8273 805.486 72.0633 805.486 72.0633C805.486 72.0633 802.44 60.8119 797.386 55.8631C792.487 51.0654 781.599 48.1758 781.599 48.1758Z" fill="#B17569"/>
<path d="M781.599 95.8176C781.599 95.8176 792.474 93.527 797.386 88.932C802.757 83.9077 805.486 71.9301 805.486 71.9301C805.486 71.9301 807.451 83.8756 812.566 88.932C817.611 93.9186 829.374 95.8176 829.374 95.8176C829.374 95.8176 817.583 98.3156 812.566 103.505C807.768 108.469 805.486 119.705 805.486 119.705C805.486 119.705 802.44 108.454 797.386 103.505C792.487 98.7073 781.599 95.8176 781.599 95.8176Z" fill="#B17569"/>
<path d="M805.401 72.0149C805.401 72.0149 816.277 69.7243 821.189 65.1292C826.56 60.1049 829.289 48.1274 829.289 48.1274C829.289 48.1274 831.254 60.0729 836.369 65.1292C841.413 70.1158 853.176 72.0149 853.176 72.0149C853.176 72.0149 841.385 74.5128 836.369 79.7022C831.57 84.6664 829.289 95.9024 829.289 95.9024C829.289 95.9024 826.243 84.651 821.189 79.7022C816.289 74.9045 805.401 72.0149 805.401 72.0149Z" fill="#B17569"/>
<path d="M757.796 72.0149C757.796 72.0149 768.672 69.7243 773.584 65.1292C778.955 60.1049 781.684 48.1274 781.684 48.1274C781.684 48.1274 783.649 60.0729 788.764 65.1292C793.808 70.1158 805.571 72.0149 805.571 72.0149C805.571 72.0149 793.78 74.5128 788.764 79.7022C783.965 84.6664 781.684 95.9024 781.684 95.9024C781.684 95.9024 778.637 84.651 773.584 79.7022C768.684 74.9045 757.796 72.0149 757.796 72.0149Z" fill="#B17569"/>
<path d="M876.323 48.1758C876.323 48.1758 887.199 45.8852 892.111 41.2901C897.482 36.2658 900.211 24.2883 900.211 24.2883C900.211 24.2883 902.176 36.2338 907.291 41.2901C912.335 46.2767 924.098 48.1758 924.098 48.1758C924.098 48.1758 912.307 50.6737 907.291 55.8631C902.492 60.8273 900.211 72.0633 900.211 72.0633C900.211 72.0633 897.165 60.8119 892.111 55.8631C887.211 51.0654 876.323 48.1758 876.323 48.1758Z" fill="#B17569"/>
<path d="M876.323 95.8176C876.323 95.8176 887.199 93.527 892.111 88.932C897.482 83.9077 900.211 71.9301 900.211 71.9301C900.211 71.9301 902.176 83.8756 907.291 88.932C912.335 93.9186 924.098 95.8176 924.098 95.8176C924.098 95.8176 912.307 98.3156 907.291 103.505C902.492 108.469 900.211 119.705 900.211 119.705C900.211 119.705 897.165 108.454 892.111 103.505C887.211 98.7073 876.323 95.8176 876.323 95.8176Z" fill="#B17569"/>
<path d="M900.126 72.0149C900.126 72.0149 911.001 69.7243 915.913 65.1292C921.284 60.1049 924.013 48.1274 924.013 48.1274C924.013 48.1274 925.978 60.0729 931.093 65.1292C936.138 70.1158 947.901 72.0149 947.901 72.0149C947.901 72.0149 936.11 74.5128 931.093 79.7022C926.295 84.6664 924.013 95.9024 924.013 95.9024C924.013 95.9024 920.967 84.651 915.913 79.7022C911.014 74.9045 900.126 72.0149 900.126 72.0149Z" fill="#B17569"/>
<path d="M852.521 72.0149C852.521 72.0149 863.396 69.7243 868.308 65.1292C873.679 60.1049 876.408 48.1274 876.408 48.1274C876.408 48.1274 878.373 60.0729 883.488 65.1292C888.533 70.1158 900.296 72.0149 900.296 72.0149C900.296 72.0149 888.505 74.5128 883.488 79.7022C878.69 84.6664 876.408 95.9024 876.408 95.9024C876.408 95.9024 873.362 84.651 868.308 79.7022C863.409 74.9045 852.521 72.0149 852.521 72.0149Z" fill="#B17569"/>
<path d="M971.048 48.1758C971.048 48.1758 981.923 45.8852 986.835 41.2901C992.206 36.2658 994.935 24.2883 994.935 24.2883C994.935 24.2883 996.9 36.2338 1002.02 41.2901C1007.06 46.2767 1018.82 48.1758 1018.82 48.1758C1018.82 48.1758 1007.03 50.6737 1002.02 55.8631C997.217 60.8273 994.935 72.0633 994.935 72.0633C994.935 72.0633 991.889 60.8119 986.835 55.8631C981.936 51.0654 971.048 48.1758 971.048 48.1758Z" fill="#B17569"/>
<path d="M971.048 95.8176C971.048 95.8176 981.923 93.527 986.835 88.932C992.206 83.9077 994.935 71.9301 994.935 71.9301C994.935 71.9301 996.9 83.8756 1002.02 88.932C1007.06 93.9186 1018.82 95.8176 1018.82 95.8176C1018.82 95.8176 1007.03 98.3156 1002.02 103.505C997.217 108.469 994.935 119.705 994.935 119.705C994.935 119.705 991.889 108.454 986.835 103.505C981.936 98.7073 971.048 95.8176 971.048 95.8176Z" fill="#B17569"/>
<path d="M994.85 72.0149C994.85 72.0149 1005.73 69.7243 1010.64 65.1292C1016.01 60.1049 1018.74 48.1274 1018.74 48.1274C1018.74 48.1274 1020.7 60.0729 1025.82 65.1292C1030.86 70.1158 1042.63 72.0149 1042.63 72.0149C1042.63 72.0149 1030.83 74.5128 1025.82 79.7022C1021.02 84.6664 1018.74 95.9024 1018.74 95.9024C1018.74 95.9024 1015.69 84.651 1010.64 79.7022C1005.74 74.9045 994.85 72.0149 994.85 72.0149Z" fill="#B17569"/>
<path d="M947.245 72.0149C947.245 72.0149 958.121 69.7243 963.033 65.1292C968.404 60.1049 971.133 48.1274 971.133 48.1274C971.133 48.1274 973.098 60.0729 978.213 65.1292C983.257 70.1158 995.02 72.0149 995.02 72.0149C995.02 72.0149 983.229 74.5128 978.213 79.7022C973.414 84.6664 971.133 95.9024 971.133 95.9024C971.133 95.9024 968.087 84.651 963.033 79.7022C958.133 74.9045 947.245 72.0149 947.245 72.0149Z" fill="#B17569"/>
<path d="M1065.77 48.1758C1065.77 48.1758 1076.65 45.8852 1081.56 41.2901C1086.93 36.2658 1089.66 24.2883 1089.66 24.2883C1089.66 24.2883 1091.62 36.2338 1096.74 41.2901C1101.78 46.2767 1113.55 48.1758 1113.55 48.1758C1113.55 48.1758 1101.76 50.6737 1096.74 55.8631C1091.94 60.8273 1089.66 72.0633 1089.66 72.0633C1089.66 72.0633 1086.61 60.8119 1081.56 55.8631C1076.66 51.0654 1065.77 48.1758 1065.77 48.1758Z" fill="#B17569"/>
<path d="M1065.77 95.8176C1065.77 95.8176 1076.65 93.527 1081.56 88.932C1086.93 83.9077 1089.66 71.9301 1089.66 71.9301C1089.66 71.9301 1091.62 83.8756 1096.74 88.932C1101.78 93.9186 1113.55 95.8176 1113.55 95.8176C1113.55 95.8176 1101.76 98.3156 1096.74 103.505C1091.94 108.469 1089.66 119.705 1089.66 119.705C1089.66 119.705 1086.61 108.454 1081.56 103.505C1076.66 98.7073 1065.77 95.8176 1065.77 95.8176Z" fill="#B17569"/>
<path d="M1089.57 72.0149C1089.57 72.0149 1100.45 69.7243 1105.36 65.1292C1110.73 60.1049 1113.46 48.1274 1113.46 48.1274C1113.46 48.1274 1115.43 60.0729 1120.54 65.1292C1125.59 70.1158 1137.35 72.0149 1137.35 72.0149C1137.35 72.0149 1125.56 74.5128 1120.54 79.7022C1115.74 84.6664 1113.46 95.9024 1113.46 95.9024C1113.46 95.9024 1110.42 84.651 1105.36 79.7022C1100.46 74.9045 1089.57 72.0149 1089.57 72.0149Z" fill="#B17569"/>
<path d="M1041.97 72.0149C1041.97 72.0149 1052.85 69.7243 1057.76 65.1292C1063.13 60.1049 1065.86 48.1274 1065.86 48.1274C1065.86 48.1274 1067.82 60.0729 1072.94 65.1292C1077.98 70.1158 1089.74 72.0149 1089.74 72.0149C1089.74 72.0149 1077.95 74.5128 1072.94 79.7022C1068.14 84.6664 1065.86 95.9024 1065.86 95.9024C1065.86 95.9024 1062.81 84.651 1057.76 79.7022C1052.86 74.9045 1041.97 72.0149 1041.97 72.0149Z" fill="#B17569"/>
<path d="M1160.5 48.1758C1160.5 48.1758 1171.37 45.8852 1176.28 41.2901C1181.66 36.2658 1184.38 24.2883 1184.38 24.2883C1184.38 24.2883 1186.35 36.2338 1191.46 41.2901C1196.51 46.2767 1208.27 48.1758 1208.27 48.1758C1208.27 48.1758 1196.48 50.6737 1191.46 55.8631C1186.67 60.8273 1184.38 72.0633 1184.38 72.0633C1184.38 72.0633 1181.34 60.8119 1176.28 55.8631C1171.38 51.0654 1160.5 48.1758 1160.5 48.1758Z" fill="#B17569"/>
<path d="M1160.5 95.8176C1160.5 95.8176 1171.37 93.527 1176.28 88.932C1181.66 83.9077 1184.38 71.9301 1184.38 71.9301C1184.38 71.9301 1186.35 83.8756 1191.46 88.932C1196.51 93.9186 1208.27 95.8176 1208.27 95.8176C1208.27 95.8176 1196.48 98.3156 1191.46 103.505C1186.67 108.469 1184.38 119.705 1184.38 119.705C1184.38 119.705 1181.34 108.454 1176.28 103.505C1171.38 98.7073 1160.5 95.8176 1160.5 95.8176Z" fill="#B17569"/>
<path d="M1184.3 72.0149C1184.3 72.0149 1195.17 69.7243 1200.09 65.1292C1205.46 60.1049 1208.19 48.1274 1208.19 48.1274C1208.19 48.1274 1210.15 60.0729 1215.27 65.1292C1220.31 70.1158 1232.07 72.0149 1232.07 72.0149C1232.07 72.0149 1220.28 74.5128 1215.27 79.7022C1210.47 84.6664 1208.19 95.9024 1208.19 95.9024C1208.19 95.9024 1205.14 84.651 1200.09 79.7022C1195.19 74.9045 1184.3 72.0149 1184.3 72.0149Z" fill="#B17569"/>
<path d="M1136.69 72.0149C1136.69 72.0149 1147.57 69.7243 1152.48 65.1292C1157.85 60.1049 1160.58 48.1274 1160.58 48.1274C1160.58 48.1274 1162.55 60.0729 1167.66 65.1292C1172.71 70.1158 1184.47 72.0149 1184.47 72.0149C1184.47 72.0149 1172.68 74.5128 1167.66 79.7022C1162.86 84.6664 1160.58 95.9024 1160.58 95.9024C1160.58 95.9024 1157.54 84.651 1152.48 79.7022C1147.58 74.9045 1136.69 72.0149 1136.69 72.0149Z" fill="#B17569"/>
<path d="M1255.22 48.1758C1255.22 48.1758 1266.1 45.8852 1271.01 41.2901C1276.38 36.2658 1279.11 24.2883 1279.11 24.2883C1279.11 24.2883 1281.07 36.2338 1286.19 41.2901C1291.23 46.2767 1303 48.1758 1303 48.1758C1303 48.1758 1291.21 50.6737 1286.19 55.8631C1281.39 60.8273 1279.11 72.0633 1279.11 72.0633C1279.11 72.0633 1276.06 60.8119 1271.01 55.8631C1266.11 51.0654 1255.22 48.1758 1255.22 48.1758Z" fill="#B17569"/>
<path d="M1255.22 95.8176C1255.22 95.8176 1266.1 93.527 1271.01 88.932C1276.38 83.9077 1279.11 71.9301 1279.11 71.9301C1279.11 71.9301 1281.07 83.8756 1286.19 88.932C1291.23 93.9186 1303 95.8176 1303 95.8176C1303 95.8176 1291.21 98.3156 1286.19 103.505C1281.39 108.469 1279.11 119.705 1279.11 119.705C1279.11 119.705 1276.06 108.454 1271.01 103.505C1266.11 98.7073 1255.22 95.8176 1255.22 95.8176Z" fill="#B17569"/>
<path d="M1279.02 72.0149C1279.02 72.0149 1289.9 69.7243 1294.81 65.1292C1300.18 60.1049 1302.91 48.1274 1302.91 48.1274C1302.91 48.1274 1304.88 60.0729 1309.99 65.1292C1315.04 70.1158 1326.8 72.0149 1326.8 72.0149C1326.8 72.0149 1315.01 74.5128 1309.99 79.7022C1305.19 84.6664 1302.91 95.9024 1302.91 95.9024C1302.91 95.9024 1299.87 84.651 1294.81 79.7022C1289.91 74.9045 1279.02 72.0149 1279.02 72.0149Z" fill="#B17569"/>
<path d="M1231.42 72.0149C1231.42 72.0149 1242.29 69.7243 1247.21 65.1292C1252.58 60.1049 1255.31 48.1274 1255.31 48.1274C1255.31 48.1274 1257.27 60.0729 1262.39 65.1292C1267.43 70.1158 1279.19 72.0149 1279.19 72.0149C1279.19 72.0149 1267.4 74.5128 1262.39 79.7022C1257.59 84.6664 1255.31 95.9024 1255.31 95.9024C1255.31 95.9024 1252.26 84.651 1247.21 79.7022C1242.31 74.9045 1231.42 72.0149 1231.42 72.0149Z" fill="#B17569"/>
<path d="M1349.95 48.1758C1349.95 48.1758 1360.82 45.8852 1365.73 41.2901C1371.1 36.2658 1373.83 24.2883 1373.83 24.2883C1373.83 24.2883 1375.8 36.2338 1380.91 41.2901C1385.96 46.2767 1397.72 48.1758 1397.72 48.1758C1397.72 48.1758 1385.93 50.6737 1380.91 55.8631C1376.11 60.8273 1373.83 72.0633 1373.83 72.0633C1373.83 72.0633 1370.79 60.8119 1365.73 55.8631C1360.83 51.0654 1349.95 48.1758 1349.95 48.1758Z" fill="#B17569"/>
<path d="M1349.95 95.8176C1349.95 95.8176 1360.82 93.527 1365.73 88.932C1371.1 83.9077 1373.83 71.9301 1373.83 71.9301C1373.83 71.9301 1375.8 83.8756 1380.91 88.932C1385.96 93.9186 1397.72 95.8176 1397.72 95.8176C1397.72 95.8176 1385.93 98.3156 1380.91 103.505C1376.11 108.469 1373.83 119.705 1373.83 119.705C1373.83 119.705 1370.79 108.454 1365.73 103.505C1360.83 98.7073 1349.95 95.8176 1349.95 95.8176Z" fill="#B17569"/>
<path d="M1373.75 72.0149C1373.75 72.0149 1384.62 69.7243 1389.54 65.1292C1394.91 60.1049 1397.64 48.1274 1397.64 48.1274C1397.64 48.1274 1399.6 60.0729 1404.72 65.1292C1409.76 70.1158 1421.52 72.0149 1421.52 72.0149C1421.52 72.0149 1409.73 74.5128 1404.72 79.7022C1399.92 84.6664 1397.64 95.9024 1397.64 95.9024C1397.64 95.9024 1394.59 84.651 1389.54 79.7022C1384.64 74.9045 1373.75 72.0149 1373.75 72.0149Z" fill="#B17569"/>
<path d="M1326.14 72.0149C1326.14 72.0149 1337.02 69.7243 1341.93 65.1292C1347.3 60.1049 1350.03 48.1274 1350.03 48.1274C1350.03 48.1274 1352 60.0729 1357.11 65.1292C1362.16 70.1158 1373.92 72.0149 1373.92 72.0149C1373.92 72.0149 1362.13 74.5128 1357.11 79.7022C1352.31 84.6664 1350.03 95.9024 1350.03 95.9024C1350.03 95.9024 1346.98 84.651 1341.93 79.7022C1337.03 74.9045 1326.14 72.0149 1326.14 72.0149Z" fill="#B17569"/>
<path d="M1444.67 48.1758C1444.67 48.1758 1455.55 45.8852 1460.46 41.2901C1465.83 36.2658 1468.56 24.2883 1468.56 24.2883C1468.56 24.2883 1470.52 36.2338 1475.64 41.2901C1480.68 46.2767 1492.45 48.1758 1492.45 48.1758C1492.45 48.1758 1480.65 50.6737 1475.64 55.8631C1470.84 60.8273 1468.56 72.0633 1468.56 72.0633C1468.56 72.0633 1465.51 60.8119 1460.46 55.8631C1455.56 51.0654 1444.67 48.1758 1444.67 48.1758Z" fill="#B17569"/>
<path d="M1444.67 95.8176C1444.67 95.8176 1455.55 93.527 1460.46 88.932C1465.83 83.9077 1468.56 71.9301 1468.56 71.9301C1468.56 71.9301 1470.52 83.8756 1475.64 88.932C1480.68 93.9186 1492.45 95.8176 1492.45 95.8176C1492.45 95.8176 1480.65 98.3156 1475.64 103.505C1470.84 108.469 1468.56 119.705 1468.56 119.705C1468.56 119.705 1465.51 108.454 1460.46 103.505C1455.56 98.7073 1444.67 95.8176 1444.67 95.8176Z" fill="#B17569"/>
<path d="M1468.47 72.0149C1468.47 72.0149 1479.35 69.7243 1484.26 65.1292C1489.63 60.1049 1492.36 48.1274 1492.36 48.1274C1492.36 48.1274 1494.33 60.0729 1499.44 65.1292C1504.49 70.1158 1516.25 72.0149 1516.25 72.0149C1516.25 72.0149 1504.46 74.5128 1499.44 79.7022C1494.64 84.6664 1492.36 95.9024 1492.36 95.9024C1492.36 95.9024 1489.31 84.651 1484.26 79.7022C1479.36 74.9045 1468.47 72.0149 1468.47 72.0149Z" fill="#B17569"/>
<path d="M1420.87 72.0149C1420.87 72.0149 1431.74 69.7243 1436.66 65.1292C1442.03 60.1049 1444.76 48.1274 1444.76 48.1274C1444.76 48.1274 1446.72 60.0729 1451.84 65.1292C1456.88 70.1158 1468.64 72.0149 1468.64 72.0149C1468.64 72.0149 1456.85 74.5128 1451.84 79.7022C1447.04 84.6664 1444.76 95.9024 1444.76 95.9024C1444.76 95.9024 1441.71 84.651 1436.66 79.7022C1431.76 74.9045 1420.87 72.0149 1420.87 72.0149Z" fill="#B17569"/>
</svg>
