<svg width="24" height="24" viewBox="0 0 24 24" fill="none" xmlns="http://www.w3.org/2000/svg">
<path d="M17.85 22.5H6.15002C3.67502 22.5 1.65002 20.475 1.65002 18V17.85L2.10002 5.84999C2.17502 3.37499 4.20002 1.49999 6.60002 1.49999H17.4C19.8 1.49999 21.825 3.37499 21.9 5.84999L22.35 17.85C22.425 19.05 21.975 20.175 21.15 21.075C20.325 21.975 19.2 22.5 18 22.5H17.85ZM6.60002 2.99999C4.95002 2.99999 3.67502 4.27499 3.60002 5.84999L3.15002 18C3.15002 19.65 4.50002 21 6.15002 21H18C18.825 21 19.575 20.625 20.1 20.025C20.625 19.425 20.925 18.675 20.925 17.85L20.475 5.84999C20.4 4.19999 19.125 2.99999 17.475 2.99999H6.60002Z" fill="white"/>
<path d="M12 10.5C9.075 10.5 6.75 8.17499 6.75 5.24999C6.75 4.79999 7.05 4.49999 7.5 4.49999C7.95 4.49999 8.25 4.79999 8.25 5.24999C8.25 7.34999 9.9 8.99999 12 8.99999C14.1 8.99999 15.75 7.34999 15.75 5.24999C15.75 4.79999 16.05 4.49999 16.5 4.49999C16.95 4.49999 17.25 4.79999 17.25 5.24999C17.25 8.17499 14.925 10.5 12 10.5Z" fill="white"/>
</svg>
