<svg width="100" height="100" viewBox="0 0 100 100" fill="none" xmlns="http://www.w3.org/2000/svg">
<path d="M50 76.8057C57.6983 76.8057 63.939 76.3343 63.939 75.7527C63.939 75.1712 57.6983 74.6997 50 74.6997C42.3017 74.6997 36.061 75.1712 36.061 75.7527C36.061 76.3343 42.3017 76.8057 50 76.8057Z" fill="#E3E4E5"/>
<path d="M32.8033 61.1681C33.3173 63.9071 34.4433 66.3761 36.0143 68.4606C36.0163 68.4636 36.0183 68.4661 36.0208 68.4691C36.0573 68.5176 36.0943 68.5656 36.1313 68.6136C36.1373 68.6216 36.1438 68.6301 36.1498 68.6381C36.1838 68.6821 36.2183 68.7256 36.2528 68.7691C36.2623 68.7811 36.2713 68.7931 36.2808 68.8051C36.3128 68.8456 36.3453 68.8861 36.3778 68.9261C36.3898 68.9406 36.4013 68.9556 36.4133 68.9701C36.4428 69.0066 36.4728 69.0426 36.5028 69.0791C36.5178 69.0971 36.5328 69.1156 36.5478 69.1341C36.5733 69.1646 36.5993 69.1951 36.6248 69.2256C36.6448 69.2491 36.6643 69.2726 36.6843 69.2961C36.7058 69.3211 36.7273 69.3456 36.7488 69.3706C36.7733 69.3991 36.7983 69.4281 36.8228 69.4566C36.8403 69.4766 36.8583 69.4966 36.8758 69.5166C36.9048 69.5496 36.9338 69.5826 36.9628 69.6151C36.9768 69.6306 36.9913 69.6461 37.0053 69.6616C37.0383 69.6981 37.0713 69.7351 37.1048 69.7711C37.1158 69.7831 37.1273 69.7956 37.1388 69.8076C37.1753 69.8471 37.2118 69.8866 37.2488 69.9256C37.2578 69.9351 37.2673 69.9446 37.2763 69.9546C37.3158 69.9961 37.3548 70.0376 37.3948 70.0786C37.3998 70.0841 37.4053 70.0891 37.4103 70.0946C37.4538 70.1396 37.4978 70.1851 37.5423 70.2296H37.5428C40.0093 72.7261 43.1983 74.4541 46.6918 75.1276C46.6938 75.1276 46.6953 75.1281 46.6973 75.1286C46.7653 75.1416 46.8333 75.1546 46.9013 75.1666C46.9138 75.1691 46.9268 75.1711 46.9393 75.1731C46.9968 75.1831 47.0543 75.1936 47.1118 75.2031C47.1468 75.2091 47.1813 75.2141 47.2163 75.2201C47.2518 75.2256 47.2873 75.2316 47.3228 75.2371C47.3718 75.2446 47.4208 75.2516 47.4698 75.2591C47.4913 75.2621 47.5133 75.2656 47.5348 75.2686C47.6018 75.2781 47.6688 75.2871 47.7363 75.2961C47.7398 75.2961 47.7438 75.2971 47.7473 75.2976C49.5228 75.5276 51.3648 75.4871 53.2198 75.1401C56.9298 74.4456 60.1458 72.6276 62.5813 70.1036C62.5848 70.1001 62.5878 70.0966 62.5913 70.0931C62.6368 70.0461 62.6818 69.9991 62.7263 69.9516C62.7318 69.9461 62.7368 69.9401 62.7423 69.9346C62.7848 69.8891 62.8273 69.8436 62.8698 69.7976C62.8783 69.7886 62.8863 69.7796 62.8943 69.7706C62.9333 69.7281 62.9723 69.6851 63.0108 69.6421C63.0238 69.6276 63.0363 69.6131 63.0493 69.5986C63.0833 69.5606 63.1168 69.5231 63.1503 69.4851C63.1688 69.4641 63.1873 69.4426 63.2058 69.4211C63.2333 69.3896 63.2603 69.3581 63.2878 69.3266C63.3098 69.3006 63.3318 69.2746 63.3538 69.2486C63.3768 69.2211 63.4003 69.1941 63.4233 69.1661C63.4478 69.1366 63.4718 69.1071 63.4963 69.0776C63.5163 69.0531 63.5368 69.0291 63.5568 69.0041C63.5833 68.9716 63.6093 68.9391 63.6353 68.9066C63.6533 68.8846 63.6708 68.8626 63.6888 68.8401C63.7168 68.8051 63.7443 68.7696 63.7723 68.7341C63.7878 68.7146 63.8033 68.6951 63.8183 68.6751C63.8508 68.6336 63.8828 68.5916 63.9148 68.5496C63.9253 68.5361 63.9358 68.5226 63.9458 68.5091C63.9803 68.4636 64.0143 68.4181 64.0478 68.3726C64.0558 68.3621 64.0633 68.3516 64.0713 68.3411C64.1078 68.2916 64.1443 68.2416 64.1803 68.1921C64.1853 68.1856 64.1903 68.1786 64.1948 68.1721C64.2313 68.1216 64.2673 68.0706 64.3033 68.0196C64.3078 68.0136 64.3123 68.0071 64.3163 68.0011C64.3553 67.9456 64.3938 67.8901 64.4323 67.8341C64.4333 67.8326 64.4348 67.8306 64.4358 67.8291C64.4748 67.7721 64.5133 67.7151 64.5518 67.6576L64.5533 67.6551C65.6798 65.9681 66.5148 64.0861 67.0028 62.0896C67.0193 62.0211 67.0358 61.9531 67.0518 61.8846V61.8826C67.0678 61.8156 67.0828 61.7486 67.0973 61.6816C67.0978 61.6791 67.0983 61.6771 67.0988 61.6746C67.1133 61.6076 67.1278 61.5406 67.1418 61.4731C67.1418 61.4706 67.1428 61.4686 67.1433 61.4661C67.1568 61.4006 67.1698 61.3351 67.1823 61.2696C67.1833 61.2651 67.1843 61.2606 67.1848 61.2566C67.1973 61.1921 67.2093 61.1276 67.2208 61.0626C67.2218 61.0571 67.2228 61.0516 67.2238 61.0466C67.2348 60.9856 67.2453 60.9241 67.2558 60.8631C67.2573 60.8541 67.2588 60.8451 67.2603 60.8356C67.2703 60.7746 67.2803 60.7136 67.2898 60.6521C67.2913 60.6426 67.2928 60.6336 67.2943 60.6241C67.3033 60.5656 67.3118 60.5071 67.3203 60.4481C67.3223 60.4361 67.3238 60.4236 67.3258 60.4116C67.3338 60.3541 67.3418 60.2961 67.3493 60.2386C67.3508 60.2256 67.3528 60.2121 67.3548 60.1991C67.3623 60.1411 67.3693 60.0836 67.3763 60.0256C67.3778 60.0126 67.3798 59.9991 67.3813 59.9861C67.3878 59.9306 67.3938 59.8751 67.3998 59.8196C67.4013 59.8036 67.4033 59.7876 67.4053 59.7721C67.4108 59.7206 67.4158 59.6686 67.4208 59.6171C67.4228 59.5971 67.4248 59.5771 67.4268 59.5571C67.4313 59.5066 67.4358 59.4561 67.4398 59.4051C67.4418 59.3841 67.4433 59.3631 67.4453 59.3416C67.4493 59.2921 67.4528 59.2421 67.4563 59.1921C67.4578 59.1701 67.4598 59.1476 67.4613 59.1256C67.4643 59.0791 67.4673 59.0321 67.4698 58.9856C67.4713 58.9601 67.4728 58.9346 67.4743 58.9091C67.4768 58.8656 67.4788 58.8216 67.4808 58.7781C67.4823 58.7496 67.4838 58.7211 67.4848 58.6921C67.4868 58.6481 67.4878 58.6046 67.4893 58.5606C67.4903 58.5321 67.4913 58.5036 67.4923 58.4751C67.4938 58.4316 67.4943 58.3881 67.4953 58.3446C67.4958 58.3156 67.4968 58.2861 67.4973 58.2571C67.4978 58.2161 67.4983 58.1746 67.4988 58.1331C67.4988 58.1016 67.4998 58.0701 67.4998 58.0386C67.4998 57.9991 67.4998 57.9591 67.4998 57.9196C67.4998 57.8866 67.4998 57.8531 67.4998 57.8201C67.4998 57.7816 67.4988 57.7431 67.4983 57.7046C67.4978 57.6701 67.4973 57.6356 67.4968 57.6011C67.4958 57.5646 67.4948 57.5281 67.4938 57.4911C67.4928 57.4546 67.4918 57.4181 67.4908 57.3811C67.4898 57.3461 67.4878 57.3106 67.4868 57.2756C67.4853 57.2376 67.4838 57.1996 67.4823 57.1616C67.4808 57.1286 67.4788 57.0951 67.4773 57.0621C67.4753 57.0221 67.4733 56.9816 67.4708 56.9416C67.4688 56.9101 67.4668 56.8791 67.4648 56.8476C67.4623 56.8056 67.4598 56.7631 67.4568 56.7211C67.4548 56.6906 67.4518 56.6596 67.4498 56.6291C67.4463 56.5861 67.4433 56.5431 67.4398 56.5001C67.4373 56.4716 67.4348 56.4431 67.4323 56.4141C67.4283 56.3691 67.4243 56.3241 67.4203 56.2786C67.4178 56.2511 67.4148 56.2236 67.4118 56.1961C67.4073 56.1496 67.4023 56.1036 67.3973 56.0571C67.3943 56.0306 67.3913 56.0036 67.3878 55.9771C67.3823 55.9301 67.3773 55.8831 67.3713 55.8356C67.3683 55.8096 67.3648 55.7836 67.3613 55.7576C67.3553 55.7096 67.3493 55.6616 67.3428 55.6136C67.3398 55.5896 67.3358 55.5656 67.3328 55.5416C67.3258 55.4916 67.3188 55.4416 67.3113 55.3916C67.3078 55.3681 67.3038 55.3441 67.3003 55.3206C67.2928 55.2701 67.2848 55.2196 67.2768 55.1696C67.2728 55.1461 67.2688 55.1226 67.2648 55.0991C67.2563 55.0486 67.2483 54.9981 67.2393 54.9471C67.2353 54.9251 67.2313 54.9026 67.2273 54.8806C67.2183 54.8306 67.2098 54.7806 67.2003 54.7301C67.2003 54.7276 67.1993 54.7251 67.1988 54.7221C65.4208 45.2236 56.2798 38.9651 46.7818 40.7426C37.2833 42.5206 31.0248 51.6616 32.8023 61.1596C32.8023 61.1621 32.8033 61.1646 32.8038 61.1676L32.8033 61.1681ZM47.3028 43.5281C55.2628 42.0381 62.9238 47.2831 64.4138 55.2436C64.4138 55.2461 64.4148 55.2491 64.4153 55.2516C65.9003 63.2091 60.6553 70.8651 52.6983 72.3546C47.6023 73.3086 42.6293 71.5021 39.3193 67.9906C39.3178 67.9891 39.3163 67.9876 39.3148 67.9861C39.2383 67.9051 39.1628 67.8226 39.0883 67.7396C39.0843 67.7351 39.0798 67.7306 39.0753 67.7256C39.0023 67.6441 38.9303 67.5616 38.8593 67.4786C38.8538 67.4721 38.8478 67.4656 38.8423 67.4591C38.7728 67.3776 38.7043 67.2951 38.6363 67.2121C38.6293 67.2036 38.6223 67.1956 38.6153 67.1871C38.5488 67.1056 38.4838 67.0231 38.4193 66.9401C38.4113 66.9296 38.4028 66.9196 38.3948 66.9091C38.3323 66.8286 38.2713 66.7471 38.2108 66.6651C38.2008 66.6516 38.1908 66.6386 38.1808 66.6256C38.1213 66.5446 38.0628 66.4626 38.0048 66.3806C37.9943 66.3656 37.9838 66.3511 37.9733 66.3366C37.9173 66.2566 37.8628 66.1756 37.8083 66.0941C37.7963 66.0766 37.7843 66.0591 37.7723 66.0416C37.7188 65.9606 37.6663 65.8786 37.6138 65.7966C37.6023 65.7781 37.5898 65.7601 37.5783 65.7416C37.5278 65.6616 37.4788 65.5801 37.4298 65.4991C37.4173 65.4781 37.4038 65.4571 37.3913 65.4361C37.3433 65.3551 37.2963 65.2731 37.2498 65.1911C37.2373 65.1691 37.2243 65.1476 37.2118 65.1251C37.1658 65.0436 37.1213 64.9606 37.0768 64.8781C37.0643 64.8551 37.0513 64.8321 37.0393 64.8091C36.9963 64.7281 36.9548 64.6461 36.9133 64.5641C36.9003 64.5386 36.8868 64.5131 36.8738 64.4876C36.8333 64.4066 36.7943 64.3246 36.7553 64.2426C36.7423 64.2156 36.7288 64.1886 36.7163 64.1616C36.6783 64.0806 36.6418 63.9986 36.6058 63.9171C36.5928 63.8881 36.5793 63.8596 36.5668 63.8306C36.5313 63.7491 36.4968 63.6671 36.4628 63.5846C36.4503 63.5546 36.4373 63.5251 36.4248 63.4946C36.3918 63.4131 36.3598 63.3311 36.3283 63.2486C36.3158 63.2171 36.3033 63.1856 36.2913 63.1536C36.2603 63.0716 36.2308 62.9886 36.2008 62.9056C36.1893 62.8731 36.1768 62.8411 36.1653 62.8086C36.1368 62.7266 36.1093 62.6441 36.0823 62.5616C36.0708 62.5271 36.0588 62.4931 36.0478 62.4586C36.0213 62.3771 35.9968 62.2946 35.9718 62.2121C35.9608 62.1761 35.9493 62.1406 35.9388 62.1046C35.9148 62.0231 35.8923 61.9411 35.8698 61.8591C35.8593 61.8216 35.8483 61.7841 35.8383 61.7461C35.8168 61.6651 35.7968 61.5836 35.7763 61.5021C35.7663 61.4626 35.7558 61.4231 35.7463 61.3831C35.7273 61.3031 35.7093 61.2226 35.6913 61.1416C35.6818 61.0996 35.6718 61.0581 35.6628 61.0161C35.6458 60.9361 35.6303 60.8556 35.6143 60.7751C35.6053 60.7301 35.5958 60.6851 35.5873 60.6401C34.0973 52.6796 39.3423 45.0191 47.3028 43.5291V43.5281Z" fill="#B17569"/>
<path d="M36.0138 68.4606C36.0163 68.4636 36.0183 68.4666 36.0203 68.4691C36.0568 68.5176 36.0938 68.5656 36.1308 68.6136C36.1368 68.6216 36.1433 68.6296 36.1493 68.6376C36.1833 68.6816 36.2173 68.7251 36.2523 68.7691C36.2613 68.7811 36.2708 68.7926 36.2803 68.8051C36.3123 68.8456 36.3448 68.8861 36.3773 68.9261C36.3888 68.9406 36.4008 68.9556 36.4128 68.9701C36.4423 69.0066 36.4723 69.0431 36.5023 69.0786C36.5178 69.0971 36.5323 69.1156 36.5478 69.1331C36.5733 69.1641 36.5993 69.1941 36.6248 69.2251C36.6448 69.2486 36.6648 69.2721 36.6843 69.2956C36.7058 69.3206 36.7273 69.3456 36.7488 69.3701C36.7738 69.3991 36.7983 69.4276 36.8233 69.4561C36.8408 69.4761 36.8588 69.4961 36.8763 69.5156C36.9053 69.5486 36.9343 69.5816 36.9633 69.6146C36.9778 69.6301 36.9918 69.6456 37.0058 69.6616C37.0393 69.6976 37.0723 69.7346 37.1058 69.7711C37.1168 69.7831 37.1283 69.7951 37.1393 69.8071C37.1758 69.8466 37.2123 69.8861 37.2493 69.9251L37.2768 69.9541C37.3163 69.9956 37.3553 70.0366 37.3948 70.0781C37.4003 70.0836 37.4053 70.0886 37.4108 70.0941C37.4543 70.1391 37.4983 70.1846 37.5428 70.2296C37.5428 70.2296 37.5428 70.2296 37.5433 70.2296C38.0953 70.7876 38.6823 71.3076 39.3013 71.7851L40.9053 69.4426C40.3433 68.9986 39.8128 68.5131 39.3193 67.9901C39.3183 67.9886 39.3163 67.9871 39.3148 67.9856C39.2383 67.9046 39.1628 67.8226 39.0883 67.7391C39.0838 67.7346 39.0798 67.7296 39.0753 67.7251C39.0023 67.6441 38.9308 67.5616 38.8593 67.4786C38.8538 67.4716 38.8478 67.4656 38.8423 67.4591C38.7728 67.3771 38.7038 67.2951 38.6358 67.2116C38.6288 67.2036 38.6218 67.1951 38.6148 67.1866C38.5488 67.1051 38.4833 67.0226 38.4188 66.9396C38.4103 66.9291 38.4023 66.9191 38.3943 66.9086C38.3318 66.8281 38.2708 66.7466 38.2098 66.6646C38.1998 66.6511 38.1898 66.6381 38.1803 66.6246C38.1208 66.5436 38.0623 66.4616 38.0043 66.3796C37.9943 66.3646 37.9828 66.3501 37.9728 66.3351C37.9168 66.2551 37.8623 66.1741 37.8078 66.0931C37.7963 66.0756 37.7833 66.0581 37.7718 66.0406C37.7183 65.9591 37.6658 65.8771 37.6138 65.7951C37.6018 65.7766 37.5898 65.7586 37.5778 65.7401C37.5278 65.6601 37.4783 65.5791 37.4298 65.4971C37.4168 65.4761 37.4038 65.4556 37.3913 65.4341C37.3433 65.3531 37.2963 65.2711 37.2498 65.1891C37.2373 65.1671 37.2243 65.1456 37.2118 65.1231C37.1658 65.0411 37.1213 64.9586 37.0768 64.8761C37.0643 64.8526 37.0518 64.8301 37.0393 64.8071C36.9963 64.7261 36.9548 64.6441 36.9138 64.5621C36.9008 64.5371 36.8868 64.5111 36.8743 64.4856C36.8338 64.4046 36.7948 64.3226 36.7558 64.2406C36.7428 64.2136 36.7293 64.1866 36.7168 64.1596C36.6788 64.0786 36.6423 63.9966 36.6058 63.9151C36.5928 63.8861 36.5798 63.8571 36.5668 63.8286C36.5313 63.7471 36.4973 63.6651 36.4628 63.5826C36.4503 63.5526 36.4373 63.5226 36.4248 63.4931C36.3918 63.4116 36.3603 63.3296 36.3278 63.2471C36.3158 63.2151 36.3028 63.1841 36.2908 63.1521C36.2598 63.0701 36.2298 62.9871 36.2003 62.9041C36.1883 62.8716 36.1763 62.8401 36.1648 62.8071C36.1363 62.7256 36.1088 62.6426 36.0818 62.5606C36.0703 62.5261 36.0588 62.4921 36.0473 62.4576C36.0213 62.3761 35.9963 62.2931 35.9713 62.2111C35.9603 62.1751 35.9488 62.1396 35.9378 62.1031C35.9143 62.0216 35.8913 61.9396 35.8688 61.8576C35.8588 61.8196 35.8473 61.7821 35.8373 61.7446C35.8158 61.6636 35.7953 61.5821 35.7753 61.5006C35.7653 61.4611 35.7548 61.4216 35.7453 61.3816C35.7258 61.3016 35.7083 61.2211 35.6903 61.1406C35.6808 61.0986 35.6713 61.0566 35.6618 61.0146C35.6448 60.9346 35.6293 60.8536 35.6138 60.7731C35.6048 60.7286 35.5953 60.6836 35.5868 60.6386C35.4983 60.1661 35.4338 59.6951 35.3923 59.2261L32.5968 59.7491C32.6458 60.2181 32.7143 60.6881 32.8023 61.1591L32.8038 61.1666C33.3178 63.9056 34.4443 66.3746 36.0143 68.4591L36.0138 68.4606Z" fill="#E1E2E3"/>
<path d="M46.6918 75.1278C46.6918 75.1278 46.6953 75.1288 46.6973 75.1288C46.7648 75.1418 46.8328 75.1548 46.9013 75.1673C46.9138 75.1693 46.9263 75.1713 46.9388 75.1738C46.9968 75.1843 47.0538 75.1943 47.1113 75.2038C47.1458 75.2098 47.1808 75.2148 47.2158 75.2208C47.2513 75.2263 47.2868 75.2323 47.3223 75.2378C47.3713 75.2453 47.4203 75.2523 47.4698 75.2598C47.4913 75.2633 47.5128 75.2663 47.5348 75.2693C47.6018 75.2788 47.6688 75.2883 47.7358 75.2968C47.7393 75.2968 47.7428 75.2978 47.7468 75.2983C49.5223 75.5283 51.3638 75.4878 53.2188 75.1408L52.6973 72.3558C48.3608 73.1673 44.1133 71.9803 40.9043 69.4448L39.3003 71.7873C41.4498 73.4473 43.9788 74.6063 46.6908 75.1288L46.6918 75.1278Z" fill="#A6A8AB"/>
<path d="M56.277 53.4103L47.626 63.5903C47.613 63.6058 47.5995 63.6203 47.5865 63.6353C47.4955 63.7363 47.3955 63.8253 47.2905 63.9033L47.2965 63.9083L47.261 63.9243C47.0525 64.0728 46.8205 64.1763 46.5785 64.2343L43.249 65.7443L44.1305 62.2313C44.1405 61.9578 44.2065 61.6848 44.3315 61.4308L44.3405 61.3958L44.347 61.4013C44.4065 61.2848 44.4785 61.1718 44.563 61.0658C44.5755 61.0503 44.588 61.0353 44.601 61.0198L53.252 50.8398C53.6065 50.4223 54.0975 50.1878 54.604 50.1473C55.11 50.1058 55.6325 50.2583 56.05 50.6128C56.885 51.3228 56.987 52.5753 56.277 53.4103Z" fill="#B17569"/>
<path d="M46.8145 61.4793C46.2745 61.0208 45.661 60.7043 45.019 60.5273L44.6015 61.0188C44.5885 61.0343 44.576 61.0498 44.5635 61.0648C45.223 61.1968 45.859 61.4933 46.407 61.9593C46.955 62.4248 47.35 63.0048 47.587 63.6343C47.6 63.6193 47.6135 63.6048 47.6265 63.5893L48.044 63.0978C47.7655 62.4928 47.3545 61.9383 46.8145 61.4793Z" fill="white"/>
<path d="M45.1311 26.6733L45.1191 26.6543L45.1386 26.6693L45.1311 26.6733Z" fill="white"/>
<path d="M46.5314 29.695L43.3178 32.1055L42.0284 28.77L45.0919 26.814L46.5314 29.695Z" fill="white"/>
<path d="M48.5636 36.9802L46.7881 33.2397C47.8061 33.3662 48.8751 33.4357 49.9621 33.4377L48.5636 36.9802Z" fill="white"/>
<path d="M53.3344 29.7076L50.2479 27.2431L54.6289 26.7656L53.3344 29.7076Z" fill="white"/>
<path d="M41.7937 28.711L40.2997 30.5135L41.6187 28.0405L41.7922 28.685L41.7852 28.689L41.7937 28.711Z" fill="#F0F1F1"/>
<path d="M48.5721 37.4601L49.8481 40.1481L43.4951 34.0581L43.4266 32.7266L48.5701 37.4646L48.5721 37.4601Z" fill="#F0F1F1"/>
<path d="M51.4864 36.9117L50.0909 33.4362C51.1649 33.4337 52.2214 33.3662 53.2284 33.2417L51.4859 36.9117H51.4864Z" fill="#F0F1F1"/>
<path d="M50.0276 33.1953L46.7966 29.7823L46.7821 29.7538L50.0271 27.3193L53.2516 29.8943L53.2481 29.9023L50.0276 33.1953Z" fill="#F0F1F1"/>
<path d="M44.4485 25.8928L44.4175 25.8543L45.3095 25.1858L50.008 24.6733L54.705 25.1858L55.57 25.8458L54.6245 26.5663L49.978 27.0733L45.332 26.5663L44.4485 25.8928Z" fill="#F0F1F1"/>
<path d="M56.5423 32.6113L56.5579 33.8438V34.0218L50.1729 40.1428L51.4853 37.3778L51.4973 37.4013L56.5423 32.6113Z" fill="white"/>
<path d="M57.8811 28.7709L56.5371 32.2464L56.5376 32.2654L53.4941 29.8359L54.8221 26.8184L57.8811 28.7709Z" fill="white"/>
<path d="M43.2864 33.8486V33.8581L40.7144 31.3921C41.3799 31.8146 42.2324 32.1861 43.2159 32.4931L43.2859 33.8486H43.2864Z" fill="#58595B"/>
<path d="M41.9674 28.5746L41.7764 27.8666L44.2599 25.9746L44.3099 26.0366L45.0544 26.6036L41.9674 28.5746Z" fill="#58595B"/>
<path d="M46.5086 33.0039C45.3676 32.8479 44.2976 32.6189 43.3506 32.3294L46.6151 29.8804L46.5086 33.0044V33.0039Z" fill="#58595B"/>
<path d="M51.3737 37.1526L50.0102 40.0261L48.6797 37.2241L50.0287 33.8086L51.3592 37.1236L51.3737 37.1526Z" fill="#58595B"/>
<path d="M56.4066 32.4145C55.5261 32.667 54.5486 32.8685 53.5126 33.009L53.4336 30.041L56.4066 32.415V32.4145Z" fill="#58595B"/>
<path d="M54.8813 26.6208L55.7333 25.9708L55.7409 25.9763L55.7478 25.9683L58.3183 27.9268L57.9659 28.5903L54.8813 26.6208Z" fill="#58595B"/>
<path d="M56.7389 32.5187C57.7279 32.2162 58.5874 31.8482 59.2634 31.4287L56.7559 33.8317L56.7389 32.5182V32.5187Z" fill="#58595B"/>
<path d="M58.44 28.1206L59.611 30.3161L58.124 28.7146L58.44 28.1206Z" fill="white"/>
<path d="M43.1709 32.2733C41.9609 31.8873 40.9624 31.3998 40.2869 30.8398L41.8759 28.9233L43.1709 32.2728V32.2733Z" fill="#A6A8AB"/>
<path d="M46.554 33.21L48.3505 36.994L43.584 32.603C44.488 32.862 45.4915 33.067 46.554 33.2095V33.21Z" fill="#A6A8AB"/>
<path d="M49.7883 27.2517L46.6923 29.5742L45.2863 26.7607L49.7883 27.2517Z" fill="#A6A8AB"/>
<path d="M49.7959 33.2381C48.7359 33.2291 47.6949 33.1566 46.7049 33.0296L46.8059 30.0796L49.7959 33.2381Z" fill="#A6A8AB"/>
<path d="M53.2387 30.1968L53.3137 33.0348C52.3362 33.1593 51.3092 33.2298 50.2627 33.2393L53.2387 30.1968Z" fill="#A6A8AB"/>
<path d="M56.1849 32.6792L51.6914 36.9457L53.4624 33.2142C54.4284 33.0857 55.3454 32.9047 56.1844 32.6792H56.1849Z" fill="#A6A8AB"/>
<path d="M58.0379 28.9136L59.7929 30.8036C59.0919 31.3991 58.0299 31.9141 56.7359 32.3146V32.2806L58.0379 28.9136Z" fill="#A6A8AB"/>
<path d="M50.0005 24.5596H50L45.2645 25.0761L44.276 25.8166L41.5835 27.8676L40 30.8366L50 40.4226L60 30.8366L58.4165 27.8676L55.724 25.8166L55.793 25.8821L54.7355 25.0761L50.0005 24.5596ZM50.0005 24.5596H50" stroke="#B17569" stroke-width="0.5" stroke-miterlimit="10"/>
<path d="M40.0841 30.7884C41.7476 32.2829 45.7081 33.3234 50.0186 33.3234C54.3291 33.3234 58.2921 32.2774 59.9491 30.7764" stroke="#B17569" stroke-width="0.5" stroke-miterlimit="10"/>
<path d="M46.7066 29.8247L46.5961 33.0687L50.0011 40.2417L53.4066 33.0687L53.3236 29.9442L50.0186 33.3237L46.7066 29.8247ZM46.7066 29.8247L45.1236 26.6572" stroke="#B17569" stroke-width="0.5" stroke-miterlimit="10"/>
<path d="M43.3901 34.0867L43.3771 33.8282L43.3076 32.4742L48.5291 37.2842L48.5731 37.1892L50.0191 33.5257L51.4426 37.0712L51.5181 37.2227L56.5796 32.4167L56.5681 32.4077L50.0211 27.1797L46.6491 29.7092L43.2651 32.2482L41.8991 28.7152L45.1236 26.6567" stroke="#B17569" stroke-width="0.5" stroke-miterlimit="10"/>
<path d="M40.0781 30.9105L40.1406 30.8365L41.8991 28.7145L41.6556 27.8115L41.6506 27.793" stroke="#B17569" stroke-width="0.5" stroke-miterlimit="10"/>
<path d="M56.6491 34.0492V33.8282L56.6306 32.3882L56.6286 32.2482L57.9951 28.7152L54.7706 26.6567L53.3236 29.9442" stroke="#B17569" stroke-width="0.5" stroke-miterlimit="10"/>
<path d="M59.9196 30.788L57.9951 28.7155V28.715L58.4311 27.895" stroke="#B17569" stroke-width="0.5" stroke-miterlimit="10"/>
<path d="M44.2686 25.8228L44.2696 25.8238L44.2751 25.8308L44.3716 25.9498L45.2866 26.6473L49.9706 27.1578L54.6551 26.6473L55.6831 25.8633" stroke="#B17569" stroke-width="0.5" stroke-miterlimit="10"/>
<path d="M50.8255 30.0431C50.905 30.0916 50.945 30.1246 50.9915 30.1436C51.334 30.2821 51.6875 30.3971 52.0185 30.5581C52.5595 30.8211 52.914 31.2656 53.131 31.8211C53.2275 32.0686 53.313 32.3206 53.411 32.5676C53.428 32.6101 53.4815 32.6386 53.5185 32.6731C53.5515 32.6376 53.598 32.6076 53.6145 32.5656C53.739 32.2551 53.8405 31.9336 53.9825 31.6316C54.2735 31.0126 54.764 30.6081 55.4065 30.3831C55.6295 30.3051 55.8525 30.2251 56.0725 30.1391C56.1115 30.1236 56.1515 30.0771 56.1625 30.0371C56.168 30.0176 56.114 29.9666 56.078 29.9526C55.8485 29.8636 55.6165 29.7806 55.3855 29.6956C54.656 29.4276 54.1455 28.9386 53.8775 28.2036C53.7915 27.9676 53.702 27.7326 53.6085 27.4996C53.5935 27.4626 53.5355 27.4061 53.5205 27.4126C53.477 27.4311 53.4285 27.4706 53.4115 27.5136C53.2965 27.8016 53.194 28.0946 53.078 28.3826C52.876 28.8851 52.5255 29.2661 52.049 29.5086C51.712 29.6801 51.3465 29.7946 50.995 29.9376C50.946 29.9576 50.904 29.9941 50.8265 30.0436L50.8255 30.0431Z" fill="white"/>
<path d="M41.1397 32.4941C41.2002 32.5311 41.2307 32.5561 41.2657 32.5706C41.5262 32.6756 41.7952 32.7636 42.0472 32.8861C42.4587 33.0861 42.7287 33.4241 42.8937 33.8471C42.9672 34.0356 43.0322 34.2271 43.1067 34.4151C43.1197 34.4476 43.1607 34.4691 43.1882 34.4956C43.2132 34.4686 43.2487 34.4456 43.2612 34.4136C43.3562 34.1771 43.4332 33.9331 43.5412 33.7031C43.7627 33.2321 44.1357 32.9241 44.6247 32.7531C44.7947 32.6936 44.9642 32.6331 45.1312 32.5676C45.1612 32.5561 45.1912 32.5206 45.1997 32.4901C45.2037 32.4751 45.1627 32.4361 45.1352 32.4256C44.9607 32.3576 44.7842 32.2946 44.6082 32.2301C44.0532 32.0261 43.6647 31.6541 43.4607 31.0946C43.3952 30.9151 43.3272 30.7366 43.2557 30.5591C43.2442 30.5306 43.2002 30.4876 43.1887 30.4926C43.1557 30.5066 43.1187 30.5366 43.1057 30.5696C43.0182 30.7886 42.9402 31.0116 42.8522 31.2306C42.6982 31.6131 42.4317 31.9026 42.0692 32.0871C41.8127 32.2176 41.5347 32.3046 41.2672 32.4136C41.2302 32.4286 41.1982 32.4566 41.1387 32.4941H41.1397Z" fill="white"/>
</svg>
