<svg width="100" height="100" viewBox="0 0 100 100" fill="none" xmlns="http://www.w3.org/2000/svg">
<path d="M50.0001 78.3064C65.7005 78.3064 78.4281 77.6604 78.4281 76.8634C78.4281 76.0665 65.7005 75.4204 50.0001 75.4204C34.2997 75.4204 21.5721 76.0665 21.5721 76.8634C21.5721 77.6604 34.2997 78.3064 50.0001 78.3064Z" fill="#E3E4E5"/>
<path d="M19.8236 67.9517H25.7531" stroke="#B17569" stroke-linecap="round" stroke-linejoin="round"/>
<path d="M15.0801 64.9517H25.7531" stroke="#B17569" stroke-linecap="round" stroke-linejoin="round"/>
<path d="M19.8236 61.9512H25.7531" stroke="#B17569" stroke-linecap="round" stroke-linejoin="round"/>
<path d="M68.3856 40.1436H31.6151C31.3613 40.1436 31.1556 40.3493 31.1556 40.6031V76.3001C31.1556 76.5538 31.3613 76.7596 31.6151 76.7596H68.3856C68.6394 76.7596 68.8451 76.5538 68.8451 76.3001V40.6031C68.8451 40.3493 68.6394 40.1436 68.3856 40.1436Z" fill="#B17569"/>
<path d="M40.1321 66.0073H39.9641L38.4566 69.4108H38.6091C38.6196 69.4108 38.6296 69.4088 38.6376 69.4053H38.8151C38.8216 69.4088 38.8291 69.4108 38.8361 69.4108H38.9186L39.3916 68.1073H40.4711L40.9941 69.4108H41.0791C41.0871 69.4108 41.0956 69.4088 41.1031 69.4053H41.3886C41.3996 69.4053 41.4061 69.4063 41.4091 69.4068C41.4206 69.4093 41.4326 69.4108 41.4456 69.4108H41.5976L40.1421 66.0338L40.1306 66.0073H40.1321ZM40.3681 67.7963H39.5346L39.9531 66.7963L40.3681 67.7963Z" fill="white"/>
<path d="M45.4556 66.0631C45.4406 66.0706 45.4246 66.0666 45.4076 66.0706C45.4026 66.0721 45.4001 66.0721 45.4001 66.0721H45.3161C45.3121 66.0721 45.3096 66.0721 45.3081 66.0711C45.2911 66.0661 45.2691 66.0691 45.2571 66.0631L45.1671 66.0176V68.4801L42.9581 66.0591L42.9451 66.0451H42.6566V69.4106H42.7001C42.7111 69.4106 42.7226 69.4091 42.7321 69.4066C42.7396 69.4046 42.7471 69.4021 42.7546 69.3991C42.7601 69.3986 42.7661 69.3976 42.7721 69.3956C42.7871 69.3921 42.8001 69.3936 42.8116 69.3886C42.8236 69.3886 42.8346 69.3871 42.8451 69.3851C42.8506 69.3841 42.8556 69.3831 42.8601 69.3831H42.8901C42.8986 69.3866 42.9071 69.3886 42.9181 69.3891C42.9271 69.3921 42.9376 69.3936 42.9481 69.3936C42.9521 69.3951 42.9561 69.3966 42.9601 69.3976C42.9636 69.3996 42.9661 69.4011 42.9686 69.4026C42.9786 69.4076 42.9896 69.4101 43.0016 69.4101H43.0451V66.9051L45.2996 69.4101H45.5481V66.0251L45.4891 66.0476C45.4781 66.0516 45.4666 66.0566 45.4541 66.0631H45.4556Z" fill="white"/>
<path d="M47.1606 67.7008V67.6603C47.1616 67.6573 47.1626 67.6548 47.1631 67.6518C47.1661 67.6443 47.1676 67.6368 47.1676 67.6308C47.1791 67.4323 47.2131 67.2568 47.2686 67.1088C47.3236 66.9623 47.3976 66.8383 47.4891 66.7413C47.5841 66.6393 47.6841 66.5543 47.7871 66.4893C47.8891 66.4248 47.9971 66.3758 48.1046 66.3453C48.1381 66.3378 48.1711 66.3308 48.2036 66.3233C48.2346 66.3163 48.2646 66.3113 48.2981 66.3068C48.3291 66.3003 48.3596 66.2958 48.3901 66.2943C48.5221 66.2868 48.6446 66.2943 48.7491 66.3128C48.8276 66.3268 48.8986 66.3478 48.9591 66.3753C49.0226 66.4038 49.0821 66.4343 49.1361 66.4658C49.1906 66.4973 49.2391 66.5293 49.2801 66.5608C49.3026 66.5783 49.3246 66.5963 49.3451 66.6153C49.3671 66.6358 49.3891 66.6553 49.4091 66.6723C49.4286 66.6908 49.4471 66.7083 49.4656 66.7248C49.4856 66.7428 49.5046 66.7578 49.5231 66.7698L49.5686 66.7993L49.7506 66.3048L49.7191 66.2863C49.6676 66.2563 49.6156 66.2303 49.5641 66.2078L49.4111 66.1413C49.3611 66.1233 49.3086 66.1063 49.2556 66.0913C49.2026 66.0763 49.1506 66.0633 49.1006 66.0523C49.0511 66.0413 48.9991 66.0313 48.9466 66.0218C48.8936 66.0123 48.8411 66.0058 48.7931 66.0023C48.7416 65.9948 48.6886 65.9903 48.6361 65.9883C48.5841 65.9863 48.5331 65.9858 48.4791 65.9858C48.4281 65.9898 48.3721 65.9953 48.3141 66.0023C48.2556 66.0098 48.1946 66.0168 48.1301 66.0238C48.0961 66.0273 48.0616 66.0323 48.0276 66.0378C47.9931 66.0433 47.9576 66.0518 47.9231 66.0633C47.8871 66.0708 47.8521 66.0788 47.8191 66.0878C47.7851 66.0973 47.7506 66.1073 47.7156 66.1188C47.5811 66.1673 47.4511 66.2338 47.3281 66.3173C47.2051 66.4008 47.0871 66.5048 46.9781 66.6268C46.8646 66.7508 46.7761 66.9118 46.7161 67.1043C46.6566 67.2943 46.6206 67.5208 46.6086 67.7798C46.6086 68.0383 46.6476 68.2738 46.7241 68.4798C46.8011 68.6868 46.9196 68.8708 47.0766 69.0273C47.2356 69.1838 47.4236 69.3013 47.6356 69.3758C47.8456 69.4498 48.0866 69.4908 48.3531 69.4983H48.3561L48.4501 69.4873C48.4836 69.4873 48.5206 69.4863 48.5621 69.4843C48.6051 69.4823 48.6531 69.4778 48.7011 69.4708C48.7546 69.4673 48.8096 69.4603 48.8646 69.4513C48.9166 69.4423 48.9686 69.4363 49.0216 69.4323C49.0861 69.4248 49.1516 69.4158 49.2156 69.4048C49.2801 69.3938 49.3431 69.3808 49.4031 69.3658C49.4636 69.3508 49.5181 69.3348 49.5636 69.3178C49.6091 69.3008 49.6481 69.2848 49.6801 69.2698L49.7051 69.2583V67.7983L49.6536 67.8083C49.6331 67.8123 49.6131 67.8173 49.5936 67.8233C49.5801 67.8273 49.5666 67.8298 49.5546 67.8298L49.5451 67.8308C49.5316 67.8338 49.5186 67.8353 49.5061 67.8353H49.4111C49.4071 67.8353 49.4026 67.8348 49.3971 67.8333C49.3711 67.8278 49.3506 67.8308 49.3256 67.8233C49.3066 67.8173 49.2861 67.8123 49.2656 67.8088L49.2141 67.7988V69.0603C49.1821 69.0803 49.1456 69.0993 49.1051 69.1183C49.0566 69.1408 48.9981 69.1608 48.9336 69.1778C48.8656 69.1923 48.7936 69.2038 48.7191 69.2128C48.6451 69.2218 48.5661 69.2263 48.4841 69.2263C48.2881 69.2263 48.1081 69.1918 47.9496 69.1233C47.7916 69.0553 47.6496 68.9498 47.5276 68.8093C47.4031 68.6728 47.3101 68.5118 47.2501 68.3313C47.1896 68.1493 47.1591 67.9438 47.1591 67.7203V67.7093L47.1626 67.7003L47.1606 67.7008Z" fill="white"/>
<path d="M52.5146 66.0073H52.3451L50.8086 69.4108H50.9636C50.9741 69.4108 50.9841 69.4088 50.9926 69.4053H51.1741C51.1806 69.4088 51.1881 69.4108 51.1951 69.4108H51.2781L51.7601 68.1073H52.8621L53.3951 69.4108H53.4811C53.4891 69.4108 53.4976 69.4088 53.5056 69.4053H53.7971C53.8081 69.4053 53.8151 69.4063 53.8186 69.4068C53.8301 69.4093 53.8421 69.4108 53.8556 69.4108H54.0096L52.5256 66.0333L52.5141 66.0073H52.5146ZM52.7566 67.7963H51.9056L52.3326 66.7943L52.7566 67.7963Z" fill="white"/>
<path d="M56.3111 67.7979C56.3416 67.7924 56.3726 67.7859 56.4086 67.7774C56.4291 67.7704 56.4506 67.7644 56.4711 67.7594C56.4956 67.7534 56.5206 67.7449 56.5461 67.7334C56.5591 67.7294 56.5721 67.7239 56.5841 67.7179C56.5926 67.7134 56.6016 67.7099 56.6111 67.7069L56.6151 67.7054C56.6871 67.6754 56.7586 67.6354 56.8276 67.5864C56.8966 67.5379 56.9626 67.4789 57.0236 67.4119C57.0871 67.3459 57.1361 67.2664 57.1691 67.1759C57.2016 67.0859 57.2181 66.9829 57.2181 66.8694C57.2181 66.7559 57.1971 66.6419 57.1556 66.5444C57.1141 66.4469 57.0521 66.3584 56.9721 66.2824C56.8936 66.2054 56.7926 66.1459 56.6721 66.1059C56.5536 66.0664 56.4126 66.0464 56.2536 66.0464H55.0671V69.4119H55.1106C55.1231 69.4119 55.1356 69.4109 55.1471 69.4084C55.1566 69.4064 55.1666 69.4039 55.1761 69.4009C55.1841 69.4009 55.1921 69.3994 55.2006 69.3979C55.2076 69.3964 55.2146 69.3959 55.2211 69.3959L55.2336 69.3939C55.2561 69.3874 55.2771 69.3904 55.2986 69.3849H55.3421C55.3506 69.3884 55.3591 69.3904 55.3676 69.3904H55.4336C55.4416 69.3934 55.4506 69.3959 55.4596 69.3979C55.4686 69.3994 55.4776 69.4009 55.4866 69.4014C55.4951 69.4049 55.5036 69.4074 55.5131 69.4089C55.5251 69.4114 55.5376 69.4124 55.5501 69.4124H55.5936V67.8469H55.6721L56.8866 69.4124H56.9081C56.9231 69.4124 56.9366 69.4114 56.9491 69.4089C56.9596 69.4074 56.9711 69.4044 56.9826 69.4014C56.9946 69.4014 57.0066 69.3999 57.0181 69.3984C57.0276 69.3969 57.0361 69.3959 57.0441 69.3959H57.0511C57.0711 69.3919 57.0926 69.3894 57.1151 69.3874C57.1381 69.3859 57.1606 69.3849 57.1836 69.3849H57.2046C57.2131 69.3884 57.2221 69.3904 57.2316 69.3904H57.3261C57.3326 69.3929 57.3391 69.3944 57.3466 69.3954C57.3556 69.3994 57.3651 69.4014 57.3751 69.4014L57.3941 69.4024C57.4011 69.4044 57.4086 69.4059 57.4166 69.4069C57.4266 69.4109 57.4366 69.4129 57.4461 69.4129H57.5511L56.2951 67.8024C56.2991 67.8019 56.3036 67.8009 56.3076 67.7999L56.3111 67.7979ZM55.5961 66.3174H55.9611C56.0551 66.3174 56.1396 66.3264 56.2126 66.3434C56.2841 66.3604 56.3451 66.3844 56.3941 66.4149C56.4461 66.4459 56.4906 66.4789 56.5261 66.5129C56.5616 66.5464 56.5901 66.5819 56.6131 66.6199C56.6281 66.6429 56.6406 66.6669 56.6501 66.6909C56.6596 66.7154 56.6666 66.7394 56.6711 66.7624C56.6756 66.7869 56.6791 66.8079 56.6816 66.8254C56.6836 66.8419 56.6846 66.8569 56.6846 66.8689C56.6846 66.8824 56.6836 66.9024 56.6811 66.9279C56.6786 66.9544 56.6751 66.9834 56.6706 67.0154C56.6661 67.0444 56.6576 67.0749 56.6446 67.1059C56.6311 67.1389 56.6136 67.1754 56.5936 67.2119C56.5671 67.2559 56.5301 67.3004 56.4841 67.3449C56.4376 67.3894 56.3811 67.4314 56.3151 67.4694C56.2506 67.5069 56.1671 67.5354 56.0671 67.5544C55.9651 67.5739 55.8461 67.5834 55.7136 67.5834H55.6836L55.6801 67.5779H55.6201L55.6151 67.5724H55.5951V66.3174H55.5961Z" fill="white"/>
<path d="M60.0881 66.0333L60.0766 66.0068H59.9086L58.4011 69.4103H58.5536C58.5641 69.4103 58.5741 69.4083 58.5821 69.4048H58.7596C58.7661 69.4083 58.7736 69.4103 58.7806 69.4103H58.8631L59.3361 68.1068H60.4156L60.9386 69.4103H61.0236C61.0316 69.4103 61.0401 69.4083 61.0476 69.4048H61.3331C61.3441 69.4048 61.3506 69.4058 61.3541 69.4063C61.3651 69.4088 61.3776 69.4103 61.3906 69.4103H61.5426L60.0871 66.0333H60.0881ZM60.3126 67.7963H59.4791L59.8976 66.7963L60.3126 67.7963Z" fill="white"/>
<path d="M59.8923 47.6912C67.7058 44.5407 72.9043 39.2647 71.5033 35.9062C70.1028 32.5477 62.6328 32.3787 54.8193 35.5287C47.0058 38.6787 41.8073 43.9547 43.2088 47.3137C44.6093 50.6722 52.0788 50.8412 59.8923 47.6912ZM46.0033 45.8987C45.7558 43.1427 49.8453 39.2932 55.7443 36.9147C61.1238 34.7462 66.3058 34.4872 68.5358 36.0762H68.5363C68.7833 38.8327 64.6938 42.6822 58.7943 45.0607C56.6833 45.9117 54.6028 46.4682 52.7193 46.7347C49.8023 47.1472 47.3578 46.8642 46.0028 45.8987H46.0033Z" fill="white"/>
<path d="M43.0203 47.3884C43.0538 47.4689 43.0908 47.5474 43.1313 47.6244C43.4358 48.1149 43.8603 48.5339 44.3503 48.8524C44.7978 49.1429 45.2833 49.3739 45.7923 49.5554C47.4653 50.1519 49.3988 50.2169 51.1023 50.1209C57.3068 49.7119 64.7908 46.5784 69.0753 42.0159C70.0123 40.9954 71.0018 39.6514 71.3863 38.2254C71.3888 38.2174 71.3908 38.2099 71.3928 38.2019C71.4498 37.9869 71.4928 37.7704 71.5198 37.5524C71.5208 37.5479 71.5208 37.5434 71.5218 37.5384C71.5818 36.9874 71.5168 36.4639 71.3153 35.9804C70.9128 35.0149 70.0083 34.3129 68.7383 33.8779C70.6623 34.8394 71.4403 36.5229 70.2623 38.7694C69.8273 39.6064 69.2268 40.3529 68.5758 41.0364C67.7423 41.9044 66.8093 42.6714 65.8308 43.3724C61.0208 46.7384 54.0568 49.3804 48.1378 49.0699C47.1953 49.0014 46.2583 48.8439 45.3818 48.4924C42.9628 47.4854 42.7978 45.6164 43.5328 43.7779C42.7923 45.0869 42.5808 46.3319 43.0213 47.3879L43.0203 47.3884Z" fill="#A6A8AB"/>
<path d="M44.9473 44.9519C45.0683 45.2474 45.2518 45.5144 45.4953 45.7534C45.5998 44.4074 46.5558 42.8514 48.2368 41.3114C50.1098 39.5959 52.7663 38.0084 55.7168 36.8414C56.3413 36.5944 56.9658 36.3704 57.5873 36.1709C59.6698 35.5004 61.7173 35.0984 63.5938 34.9964C65.7368 34.8794 67.4713 35.1624 68.6563 35.8164C68.6353 35.7459 68.6118 35.6764 68.5838 35.6079C68.1483 34.5459 66.9213 33.8469 65.0348 33.5864C63.4503 33.6169 61.7243 33.8454 59.9348 34.2554C58.4988 34.5839 57.0218 35.0299 55.5438 35.5849C55.3413 35.6609 55.1383 35.7389 54.9358 35.8194C52.0493 36.9609 49.4118 38.4264 47.3078 40.0569C46.8693 40.3969 46.4593 40.7394 46.0798 41.0829C44.9043 42.5534 44.5118 43.8909 44.9463 44.9524L44.9473 44.9519Z" fill="white"/>
<path d="M67.9543 35.1354C68.0868 35.4259 68.1563 35.7429 68.1638 36.0834C67.7973 35.7899 67.3418 35.5534 66.8073 35.3779C65.7018 34.7614 63.8258 34.1124 60.7133 33.9279C61.4103 33.7569 62.0968 33.6169 62.7673 33.5099C63.3148 33.4224 63.8458 33.3574 64.3558 33.3154C66.2328 33.4634 67.4768 34.0919 67.9538 35.1349L67.9543 35.1354Z" fill="#A6A8AB"/>
<path d="M44.9268 44.7636C45.0443 45.0506 45.2233 45.3106 45.4598 45.5426C45.4953 45.0876 45.6308 44.6076 45.8613 44.1121C46.1593 42.9186 46.9458 41.1566 48.8838 38.8276C48.2993 39.2081 47.7438 39.6021 47.2223 40.0061C46.7963 40.3366 46.3973 40.6696 46.0288 41.0031C44.8863 42.4321 44.5053 43.7321 44.9273 44.7636H44.9268Z" fill="#A6A8AB"/>
<path d="M59.7493 47.9427C67.6095 44.7988 72.8711 39.4739 71.5014 36.0493C70.1316 32.6246 62.6492 32.397 54.7889 35.5409C46.9286 38.6848 41.667 44.0096 43.0368 47.4343C44.4066 50.859 51.889 51.0866 59.7493 47.9427Z" stroke="#D299A0" stroke-width="0.35" stroke-miterlimit="10"/>
<path d="M45.9785 40.8305C44.836 42.2745 44.388 43.6835 44.8635 44.824C46.0175 47.5905 52.1705 47.73 58.607 45.135C65.043 42.54 69.325 38.194 68.1715 35.427C67.696 34.287 66.3715 33.593 64.5285 33.353" stroke="#D299A0" stroke-width="0.35" stroke-miterlimit="10"/>
<path d="M68.348 36.151C66.118 34.5615 60.936 34.821 55.5565 36.9895C49.657 39.368 45.5675 43.2175 45.815 45.974" stroke="#D299A0" stroke-width="0.35" stroke-miterlimit="10"/>
<g style="mix-blend-mode:multiply">
<path d="M59.7493 47.9427C67.6095 44.7988 72.8711 39.4739 71.5014 36.0493C70.1316 32.6246 62.6492 32.397 54.7889 35.5409C46.9286 38.6848 41.667 44.0096 43.0368 47.4343C44.4066 50.859 51.889 51.0866 59.7493 47.9427Z" stroke="#B17569" stroke-width="0.35" stroke-miterlimit="10"/>
<path d="M45.9785 40.8305C44.836 42.2745 44.388 43.6835 44.8635 44.824C46.0175 47.5905 52.1705 47.73 58.607 45.135C65.043 42.54 69.325 38.194 68.1715 35.427C67.696 34.287 66.3715 33.593 64.5285 33.353" stroke="#B17569" stroke-width="0.35" stroke-miterlimit="10"/>
<path d="M68.348 36.151C66.118 34.5615 60.936 34.821 55.5565 36.9895C49.657 39.368 45.5675 43.2175 45.815 45.974" stroke="#B17569" stroke-width="0.35" stroke-miterlimit="10"/>
</g>
<path d="M52.479 42.9541C52.647 43.3651 52.4505 43.8346 52.0395 44.0026C51.6285 44.1706 51.159 43.9741 50.991 43.5631C50.823 43.1521 51.0195 42.6826 51.4305 42.5146C51.8415 42.3466 52.311 42.5431 52.479 42.9541Z" fill="#A6A8AB"/>
<path d="M62.981 39.3025C63.1733 38.9023 63.0048 38.4219 62.6046 38.2296C62.2044 38.0372 61.724 38.2057 61.5317 38.6059C61.3393 39.0061 61.5078 39.4865 61.908 39.6788C62.3083 39.8712 62.7886 39.7027 62.981 39.3025Z" fill="#A6A8AB"/>
<path d="M56.3912 54.3398C56.775 54.1165 56.905 53.6243 56.6817 53.2405C56.4583 52.8567 55.9661 52.7267 55.5823 52.9501C55.1986 53.1734 55.0685 53.6656 55.2919 54.0494C55.5153 54.4331 56.0074 54.5632 56.3912 54.3398Z" fill="#A6A8AB"/>
<path d="M67.251 49.0391C67.419 49.4501 67.2225 49.9196 66.8115 50.0876C66.4005 50.2556 65.931 50.0591 65.763 49.6481C65.595 49.2371 65.7915 48.7676 66.2025 48.5996C66.6135 48.4316 67.083 48.6281 67.251 49.0391Z" fill="#A6A8AB"/>
<path d="M54.897 50.6631L56.096 53.5061C55.164 53.1081 54.3485 52.5496 53.668 51.8761L54.897 50.6631Z" fill="white"/>
<path d="M59.2631 54.1372L59.266 52.4287L62.0815 53.5737C61.192 53.9307 60.2366 54.1257 59.2631 54.1372Z" fill="white"/>
<path d="M57.3366 50.6342L58.9211 52.2462L56.3096 53.3477L55.1571 50.6152L57.3366 50.6342Z" fill="white"/>
<path d="M63.4095 50.8262L64.5626 51.9822C63.9076 52.6057 63.152 53.1057 62.3355 53.4667L63.4095 50.8262Z" fill="white"/>
<path d="M53.0425 46.4434L51.9105 49.2264C51.558 48.3494 51.364 47.4079 51.3475 46.4489L53.0425 46.4434Z" fill="white"/>
<path d="M53.0081 46.1851L51.347 46.1906C51.3605 45.2916 51.531 44.3811 51.874 43.4956L53.0081 46.1851Z" fill="white"/>
<path d="M65.3146 46.4025L66.9935 46.397C66.984 47.309 66.814 48.2335 66.466 49.1325L65.3146 46.4025Z" fill="white"/>
<path d="M58.9665 40.4359L57.4115 41.9639L55.1511 41.9444L56.2196 39.3184L58.9665 40.4359Z" fill="white"/>
<path d="M59.373 52.194L60.928 50.666L63.1885 50.6855L62.1205 53.3115L59.373 52.194Z" fill="white"/>
<path d="M52.1735 49.266L53.291 46.519L54.819 48.0735L54.7995 50.334L52.1735 49.266Z" fill="white"/>
<path d="M65.1021 46.5635L66.2036 49.1755L63.4711 50.3275L63.4896 48.148L65.1021 46.5635Z" fill="white"/>
<path d="M53.238 46.0667L52.1365 43.4547L54.869 42.3022L54.85 44.4822L53.238 46.0667Z" fill="white"/>
<path d="M63.2325 48.0396L60.8235 50.4071L57.4455 50.3781L55.078 47.9691L55.107 44.5916L57.516 42.2236L60.8935 42.2531L63.2615 44.6616L63.2325 48.0396Z" fill="white"/>
<path d="M66.166 43.3649L65.049 46.1124L63.5205 44.5574L63.54 42.2969L66.166 43.3649Z" fill="white"/>
<path d="M54.8855 41.9116L53.699 40.7216C54.3725 40.0636 55.155 39.5376 56.004 39.1621L54.8855 41.9116Z" fill="white"/>
<path d="M63.624 42.0512L64.804 40.8872C65.4425 41.5507 65.9546 42.3182 66.3216 43.1487L63.6235 42.0512H63.624Z" fill="white"/>
<path d="M59.008 52.4902L59.005 54.1367C58.1195 54.1187 57.223 53.9482 56.351 53.6107L59.0075 52.4902H59.008Z" fill="white"/>
<path d="M54.6451 50.549L53.487 51.6915C52.8705 51.04 52.3755 50.2905 52.0175 49.4805L54.6451 50.549Z" fill="white"/>
<path d="M59.12 52.0807L57.7015 50.6372L60.563 50.6622L59.12 52.0807Z" fill="white"/>
<path d="M57.0805 50.3735L55.0575 50.3565L55.075 48.333L57.0805 50.3735Z" fill="white"/>
<path d="M63.2115 50.4273L61.1885 50.4098L63.2295 48.4038L63.2115 50.4273Z" fill="white"/>
<path d="M54.8471 44.8462L54.8221 47.7077L53.4041 46.2647L54.8471 44.8462Z" fill="white"/>
<path d="M63.5315 50.5822L66.362 49.3887C65.9675 50.3137 65.414 51.1242 64.747 51.8012L63.5315 50.5822Z" fill="white"/>
<path d="M54.701 42.0918L51.9781 43.2403C52.3581 42.3503 52.884 41.5663 53.518 40.9053L54.701 42.0918Z" fill="white"/>
<path d="M64.9361 46.3644L63.4926 47.7829L63.5176 44.9214L64.9361 46.3644Z" fill="white"/>
<path d="M55.1281 42.2021L57.151 42.2197L55.1105 44.2257L55.1281 42.2021Z" fill="white"/>
<path d="M61.2591 42.2554L63.2821 42.2729L63.2646 44.2959L61.2591 42.2554Z" fill="white"/>
<path d="M59.2195 40.5483L60.638 41.9918L57.7771 41.9673L59.2195 40.5483Z" fill="white"/>
<path d="M65.314 46.1448L66.429 43.4028C66.776 44.2673 66.9695 45.1943 66.991 46.1388L65.3135 46.1448H65.314Z" fill="white"/>
<path d="M59.0315 38.4922L59.0285 40.1817L56.258 39.0547C57.134 38.7032 58.074 38.5087 59.0315 38.4917V38.4922Z" fill="white"/>
<path d="M62.031 39.2812L63.183 42.0138L61.0031 41.9948L59.419 40.3832L62.031 39.2812Z" fill="white"/>
<path d="M63.4135 41.8961L62.244 39.1226C63.153 39.5106 63.952 40.0516 64.622 40.7036L63.4135 41.8961Z" fill="white"/>
<path d="M59.287 40.1582L59.2891 38.4917C60.1896 38.5052 61.1016 38.6757 61.9881 39.0187L59.2865 40.1582H59.287Z" fill="white"/>
<path d="M54.897 50.6631L56.096 53.5061C55.164 53.1081 54.3485 52.5496 53.668 51.8761L54.897 50.6631Z" fill="white"/>
<path d="M59.2631 54.1372L59.266 52.4287L62.0815 53.5737C61.192 53.9307 60.2366 54.1257 59.2631 54.1372Z" fill="#A6A8AB"/>
<path d="M57.3366 50.6342L58.9211 52.2462L56.3096 53.3477L55.1571 50.6152L57.3366 50.6342Z" fill="white"/>
<path d="M63.4095 50.8262L64.5626 51.9822C63.9076 52.6057 63.152 53.1057 62.3355 53.4667L63.4095 50.8262Z" fill="white"/>
<path d="M53.0425 46.4434L51.9105 49.2264C51.558 48.3494 51.364 47.4079 51.3475 46.4489L53.0425 46.4434Z" fill="white"/>
<path d="M53.0081 46.1851L51.347 46.1906C51.3605 45.2916 51.531 44.3811 51.874 43.4956L53.0081 46.1851Z" fill="#A6A8AB"/>
<path d="M65.3146 46.4025L66.9935 46.397C66.984 47.309 66.814 48.2335 66.466 49.1325L65.3146 46.4025Z" fill="white"/>
<path d="M58.9665 40.4359L57.4115 41.9639L55.1511 41.9444L56.2196 39.3184L58.9665 40.4359Z" fill="white"/>
<path d="M59.373 52.194L60.928 50.666L63.1885 50.6855L62.1205 53.3115L59.373 52.194Z" fill="#F0F1F1"/>
<path d="M52.1735 49.266L53.291 46.519L54.819 48.0735L54.7995 50.334L52.1735 49.266Z" fill="#F0F1F1"/>
<path d="M65.1021 46.5635L66.2036 49.1755L63.4711 50.3275L63.4896 48.148L65.1021 46.5635Z" fill="#F0F1F1"/>
<path d="M53.238 46.0667L52.1365 43.4547L54.869 42.3022L54.85 44.4822L53.238 46.0667Z" fill="#F0F1F1"/>
<path d="M63.2325 48.0396L60.8235 50.4071L57.4455 50.3781L55.078 47.9691L55.107 44.5916L57.516 42.2236L60.8935 42.2531L63.2615 44.6616L63.2325 48.0396Z" fill="#F0F1F1"/>
<path d="M66.166 43.3649L65.049 46.1124L63.5205 44.5574L63.54 42.2969L66.166 43.3649Z" fill="#F0F1F1"/>
<path d="M54.8855 41.9116L53.699 40.7216C54.3725 40.0636 55.155 39.5376 56.004 39.1621L54.8855 41.9116Z" fill="white"/>
<path d="M63.624 42.0512L64.804 40.8872C65.4425 41.5507 65.9546 42.3182 66.3216 43.1487L63.6235 42.0512H63.624Z" fill="#A6A8AB"/>
<g opacity="0.6">
<path d="M59.008 52.4902L59.005 54.1367C58.1195 54.1187 57.223 53.9482 56.351 53.6107L59.0075 52.4902H59.008Z" fill="#58595B"/>
<path d="M54.6451 50.549L53.487 51.6915C52.8705 51.04 52.3755 50.2905 52.0175 49.4805L54.6451 50.549Z" fill="#58595B"/>
<path d="M59.12 52.0807L57.7015 50.6372L60.563 50.6622L59.12 52.0807Z" fill="#58595B"/>
<path d="M57.0805 50.3735L55.0575 50.3565L55.075 48.333L57.0805 50.3735Z" fill="#58595B"/>
<path d="M63.2115 50.4273L61.1885 50.4098L63.2295 48.4038L63.2115 50.4273Z" fill="#58595B"/>
<path d="M54.8471 44.8462L54.8221 47.7077L53.4041 46.2647L54.8471 44.8462Z" fill="#58595B"/>
<path d="M63.5315 50.5822L66.362 49.3887C65.9675 50.3137 65.414 51.1242 64.747 51.8012L63.5315 50.5822Z" fill="#58595B"/>
<path d="M54.701 42.0918L51.9781 43.2403C52.3581 42.3503 52.884 41.5663 53.518 40.9053L54.701 42.0918Z" fill="#58595B"/>
<path d="M64.9361 46.3644L63.4926 47.7829L63.5176 44.9214L64.9361 46.3644Z" fill="#58595B"/>
<path d="M55.1281 42.2021L57.151 42.2197L55.1105 44.2257L55.1281 42.2021Z" fill="#58595B"/>
<path d="M61.2591 42.2554L63.2821 42.2729L63.2646 44.2959L61.2591 42.2554Z" fill="#58595B"/>
<path d="M59.2195 40.5483L60.638 41.9918L57.7771 41.9673L59.2195 40.5483Z" fill="#58595B"/>
<path d="M65.314 46.1448L66.429 43.4028C66.776 44.2673 66.9695 45.1943 66.991 46.1388L65.3135 46.1448H65.314Z" fill="#58595B"/>
<path d="M59.0315 38.4922L59.0285 40.1817L56.258 39.0547C57.134 38.7032 58.074 38.5087 59.0315 38.4917V38.4922Z" fill="#58595B"/>
</g>
<path d="M62.031 39.2812L63.183 42.0138L61.0031 41.9948L59.419 40.3832L62.031 39.2812Z" fill="white"/>
<path d="M63.4135 41.8961L62.244 39.1226C63.153 39.5106 63.952 40.0516 64.622 40.7036L63.4135 41.8961Z" fill="white"/>
<path d="M59.287 40.1582L59.2891 38.4917C60.1896 38.5052 61.1016 38.6757 61.9881 39.0187L59.2865 40.1582H59.287Z" fill="#A6A8AB"/>
<path d="M64.7009 51.8456C67.7553 48.7911 67.7553 43.8388 64.7009 40.7843C61.6464 37.7298 56.6941 37.7298 53.6396 40.7843C50.5851 43.8388 50.5851 48.7911 53.6396 51.8456C56.6941 54.9001 61.6464 54.9001 64.7009 51.8456Z" stroke="#D299A0" stroke-width="0.35" stroke-miterlimit="10"/>
<path d="M53.219 46.3528L52.0055 49.3368L54.989 50.5503L56.2405 53.5178L59.208 52.2663L62.1915 53.4798L63.405 50.4958L66.3725 49.2443L65.121 46.2768L66.3345 43.2938L63.351 42.0803L62.0995 39.1128L59.132 40.3643L56.1485 39.1508L54.935 42.1338L56.1485 39.1508L59.132 40.3643L62.0995 39.1128L63.351 42.0803L66.3345 43.2938L65.121 46.2768L66.3725 49.2443L63.405 50.4958L62.1915 53.4798L59.208 52.2663L56.2405 53.5178L54.989 50.5503L52.0055 49.3368L53.219 46.3528ZM53.219 46.3528L51.9675 43.3853L54.935 42.1338L51.9675 43.3853L53.219 46.3528Z" stroke="#D299A0" stroke-width="0.35" stroke-miterlimit="10"/>
<path d="M59.2223 40.3726L53.222 46.269L59.1184 52.2693L65.1187 46.3729L59.2223 40.3726Z" stroke="#D299A0" stroke-width="0.35" stroke-miterlimit="10"/>
<path d="M63.4086 42.1506L54.9964 42.0771L54.923 50.4893L63.3351 50.5627L63.4086 42.1506Z" stroke="#D299A0" stroke-width="0.35" stroke-miterlimit="10"/>
<path d="M66.9929 46.269L65.1214 46.275L65.0284 46.2755" stroke="#D299A0" stroke-width="0.35" stroke-miterlimit="10"/>
<path d="M51.3464 46.321L53.2024 46.315L53.2709 46.3145" stroke="#D299A0" stroke-width="0.35" stroke-miterlimit="10"/>
<path d="M63.3234 50.5581L63.3634 50.5976L64.6554 51.8931" stroke="#D299A0" stroke-width="0.35" stroke-miterlimit="10"/>
<path d="M54.9989 42.2085L54.9274 42.137L53.6079 40.8135" stroke="#D299A0" stroke-width="0.35" stroke-miterlimit="10"/>
<path d="M59.1344 54.1391L59.1374 52.2961V52.2451" stroke="#D299A0" stroke-width="0.35" stroke-miterlimit="10"/>
<path d="M59.1604 38.4922L59.1574 40.3537V40.4297" stroke="#D299A0" stroke-width="0.35" stroke-miterlimit="10"/>
<path d="M54.9274 50.4531L54.8749 50.5041L53.5769 51.7856" stroke="#D299A0" stroke-width="0.35" stroke-miterlimit="10"/>
<path d="M63.3459 42.1449L63.3939 42.0979L64.7139 40.7954" stroke="#D299A0" stroke-width="0.35" stroke-miterlimit="10"/>
<g style="mix-blend-mode:multiply">
<path d="M64.7009 51.8456C67.7553 48.7911 67.7553 43.8388 64.7009 40.7843C61.6464 37.7298 56.6941 37.7298 53.6396 40.7843C50.5851 43.8388 50.5851 48.7911 53.6396 51.8456C56.6941 54.9001 61.6464 54.9001 64.7009 51.8456Z" stroke="#B17569" stroke-width="0.35" stroke-miterlimit="10"/>
<path d="M53.219 46.3528L52.0055 49.3368L54.989 50.5503L56.2405 53.5178L59.208 52.2663L62.1915 53.4798L63.405 50.4958L66.3725 49.2443L65.121 46.2768L66.3345 43.2938L63.351 42.0803L62.0995 39.1128L59.132 40.3643L56.1485 39.1508L54.935 42.1338L56.1485 39.1508L59.132 40.3643L62.0995 39.1128L63.351 42.0803L66.3345 43.2938L65.121 46.2768L66.3725 49.2443L63.405 50.4958L62.1915 53.4798L59.208 52.2663L56.2405 53.5178L54.989 50.5503L52.0055 49.3368L53.219 46.3528ZM53.219 46.3528L51.9675 43.3853L54.935 42.1338L51.9675 43.3853L53.219 46.3528Z" stroke="#B17569" stroke-width="0.35" stroke-miterlimit="10"/>
<path d="M59.2223 40.3726L53.222 46.269L59.1184 52.2693L65.1187 46.3729L59.2223 40.3726Z" stroke="#B17569" stroke-width="0.35" stroke-miterlimit="10"/>
<path d="M63.4086 42.1506L54.9964 42.0771L54.923 50.4893L63.3351 50.5627L63.4086 42.1506Z" stroke="#B17569" stroke-width="0.35" stroke-miterlimit="10"/>
<path d="M66.9929 46.269L65.1214 46.275L65.0284 46.2755" stroke="#B17569" stroke-width="0.35" stroke-miterlimit="10"/>
<path d="M51.3464 46.321L53.2024 46.315L53.2709 46.3145" stroke="#B17569" stroke-width="0.35" stroke-miterlimit="10"/>
<path d="M63.3234 50.5581L63.3634 50.5976L64.6554 51.8931" stroke="#B17569" stroke-width="0.35" stroke-miterlimit="10"/>
<path d="M54.9989 42.2085L54.9274 42.137L53.6079 40.8135" stroke="#B17569" stroke-width="0.35" stroke-miterlimit="10"/>
<path d="M59.1344 54.1391L59.1374 52.2961V52.2451" stroke="#B17569" stroke-width="0.35" stroke-miterlimit="10"/>
<path d="M59.1604 38.4922L59.1574 40.3537V40.4297" stroke="#B17569" stroke-width="0.35" stroke-miterlimit="10"/>
<path d="M54.9274 50.4531L54.8749 50.5041L53.5769 51.7856" stroke="#B17569" stroke-width="0.35" stroke-miterlimit="10"/>
<path d="M63.3459 42.1449L63.3939 42.0979L64.7139 40.7954" stroke="#B17569" stroke-width="0.35" stroke-miterlimit="10"/>
</g>
<path d="M59.9316 43.5596C60.0126 43.5646 60.0571 43.5736 60.1006 43.5691C60.4211 43.5356 60.7406 43.4796 61.0621 43.4686C61.5866 43.4501 62.0416 43.6476 62.4361 43.9871C62.6121 44.1381 62.7806 44.2976 62.9576 44.4476C62.9881 44.4736 63.0411 44.4731 63.0836 44.4851C63.0946 44.4441 63.1181 44.4021 63.1136 44.3631C63.0826 44.0726 63.0291 43.7836 63.0151 43.4926C62.9861 42.8961 63.1986 42.3841 63.6021 41.9476C63.7421 41.7961 63.8811 41.6436 64.0156 41.4871C64.0396 41.4591 64.0511 41.4071 64.0431 41.3716C64.0391 41.3541 63.9766 41.3371 63.9431 41.3411C63.7296 41.3661 63.5171 41.3976 63.3041 41.4266C62.6321 41.5181 62.0386 41.3506 61.5311 40.8936C61.3681 40.7471 61.2031 40.6026 61.0356 40.4611C61.0091 40.4386 60.9411 40.4186 60.9321 40.4301C60.9061 40.4621 60.8851 40.5126 60.8896 40.5526C60.9186 40.8216 60.9596 41.0896 60.9881 41.3586C61.0381 41.8286 60.9241 42.2656 60.6556 42.6476C60.4661 42.9176 60.2311 43.1556 60.0186 43.4096C59.9891 43.4451 59.9716 43.4901 59.9321 43.5601L59.9316 43.5596Z" fill="white"/>
<path d="M58.0511 52.9546C58.0981 52.9526 58.1246 52.9551 58.1491 52.9501C58.3321 52.9116 58.5131 52.8606 58.6976 52.8346C58.9991 52.7926 59.2731 52.8796 59.5211 53.0516C59.6316 53.1281 59.7386 53.2101 59.8491 53.2861C59.8681 53.2991 59.8986 53.2961 59.9241 53.3001C59.9281 53.2761 59.9391 53.2501 59.9341 53.2276C59.8991 53.0621 59.8511 52.8986 59.8256 52.7316C59.7731 52.3896 59.8656 52.0811 60.0721 51.8056C60.1436 51.7101 60.2151 51.6136 60.2831 51.5156C60.2951 51.4981 60.2986 51.4676 60.2921 51.4476C60.2891 51.4376 60.2516 51.4316 60.2326 51.4361C60.1111 51.4631 59.9901 51.4941 59.8691 51.5231C59.4871 51.6161 59.1346 51.5546 58.8151 51.3211C58.7126 51.2461 58.6086 51.1726 58.5036 51.1011C58.4866 51.0896 58.4466 51.0821 58.4421 51.0891C58.4291 51.1091 58.4196 51.1396 58.4246 51.1621C58.4576 51.3156 58.4971 51.4676 58.5296 51.6211C58.5861 51.8891 58.5466 52.1481 58.4146 52.3841C58.3211 52.5511 58.2001 52.7021 58.0926 52.8611C58.0776 52.8831 58.0701 52.9106 58.0516 52.9531L58.0511 52.9546Z" fill="white"/>
<path d="M43.4831 42.9414C43.5301 42.9444 43.5561 42.9494 43.5811 42.9469C43.7671 42.9274 43.9521 42.8949 44.1386 42.8884C44.4426 42.8779 44.7066 42.9919 44.9351 43.1889C45.0371 43.2764 45.1351 43.3689 45.2371 43.4559C45.2546 43.4709 45.2856 43.4709 45.3101 43.4779C45.3161 43.4544 45.3301 43.4299 45.3276 43.4069C45.3096 43.2384 45.2786 43.0709 45.2706 42.9024C45.2536 42.5569 45.3771 42.2594 45.6106 42.0064C45.6916 41.9184 45.7726 41.8299 45.8501 41.7394C45.8641 41.7234 45.8706 41.6929 45.8661 41.6724C45.8641 41.6624 45.8276 41.6524 45.8081 41.6549C45.6846 41.6694 45.5611 41.6874 45.4376 41.7044C45.0481 41.7574 44.7041 41.6604 44.4096 41.3954C44.3151 41.3104 44.2196 41.2269 44.1221 41.1449C44.1066 41.1319 44.0671 41.1204 44.0621 41.1269C44.0471 41.1454 44.0346 41.1749 44.0371 41.1979C44.0541 41.3539 44.0776 41.5094 44.0941 41.6654C44.1231 41.9379 44.0571 42.1914 43.9011 42.4129C43.7911 42.5694 43.6551 42.7074 43.5316 42.8544C43.5146 42.8749 43.5046 42.9014 43.4816 42.9419L43.4831 42.9414Z" fill="white"/>
<path d="M40.8385 40.1441C41.2475 29.3221 45.2385 20.8291 50.102 20.8291" stroke="#B17569" stroke-linecap="round" stroke-linejoin="round"/>
<path d="M50.0465 20.8291C54.55 20.8291 58.3055 28.1116 59.1615 37.7826" stroke="#B17569" stroke-linecap="round" stroke-linejoin="round"/>
</svg>
