<svg width="22" height="22" viewBox="0 0 22 22" fill="none" xmlns="http://www.w3.org/2000/svg">
<path d="M16.0143 20H5.98574C3.86432 20 2.1286 18.2643 2.1286 16.1429V16.0143L2.51432 5.72857C2.5786 3.60714 4.31432 2 6.37146 2H15.6286C17.6857 2 19.4215 3.60714 19.4857 5.72857L19.8715 16.0143C19.9357 17.0429 19.55 18.0071 18.8429 18.7786C18.1357 19.55 17.1715 20 16.1429 20H16.0143ZM6.37146 3.28571C4.95717 3.28571 3.86432 4.37857 3.80003 5.72857L3.41432 16.1429C3.41432 17.5571 4.57146 18.7143 5.98574 18.7143H16.1429C16.85 18.7143 17.4929 18.3929 17.9429 17.8786C18.3929 17.3643 18.65 16.7214 18.65 16.0143L18.2643 5.72857C18.2 4.31429 17.1072 3.28571 15.6929 3.28571H6.37146Z" fill="#151515"/>
<path d="M11 9.71439C8.49286 9.71439 6.5 7.72153 6.5 5.21439C6.5 4.82868 6.75714 4.57153 7.14286 4.57153C7.52857 4.57153 7.78571 4.82868 7.78571 5.21439C7.78571 7.01439 9.2 8.42868 11 8.42868C12.8 8.42868 14.2143 7.01439 14.2143 5.21439C14.2143 4.82868 14.4714 4.57153 14.8571 4.57153C15.2429 4.57153 15.5 4.82868 15.5 5.21439C15.5 7.72153 13.5071 9.71439 11 9.71439Z" fill="#151515"/>
</svg>
