<svg width="68" height="57" viewBox="0 0 68 57" fill="none" xmlns="http://www.w3.org/2000/svg">
<path d="M4.77698 14.3853C4.47898 24.7038 9.49498 35.0343 17.788 41.1813" stroke="#B17569" stroke-width="0.35" stroke-linecap="round" stroke-linejoin="round"/>
<path d="M34.55 56.3057C45.6509 56.3057 54.65 55.708 54.65 54.9707C54.65 54.2334 45.6509 53.6357 34.55 53.6357C23.449 53.6357 14.45 54.2334 14.45 54.9707C14.45 55.708 23.449 56.3057 34.55 56.3057Z" fill="#E3E4E5"/>
<path d="M66.2299 1.1582C66.3909 1.1582 66.3909 0.908203 66.2299 0.908203C66.0689 0.908203 66.0689 1.1582 66.2299 1.1582Z" fill="white"/>
<path d="M64.0604 29.5474C61.1939 39.8329 53.0729 48.5024 42.9969 52.0349" stroke="#D299A0" stroke-width="0.35" stroke-miterlimit="10"/>
<path d="M64.0604 29.5474C61.1939 39.8329 53.0729 48.5024 42.9969 52.0349" stroke="#B17569" stroke-width="0.35" stroke-miterlimit="10"/>
<path d="M49.6174 48.9166C49.6874 48.8801 50.3854 49.3571 50.4669 49.3996C51.0919 49.7241 51.7434 50.0081 52.4214 50.2011C53.0919 50.3916 53.8479 50.5216 54.5299 50.3106C55.0134 50.1611 55.6609 49.7091 55.6799 49.1481C55.7134 48.1596 54.1884 47.8991 53.4614 47.8646C52.4704 47.8176 51.4764 48.0931 50.5689 48.4706C50.2454 48.6051 49.9284 48.7556 49.6169 48.9166H49.6174Z" fill="#A6A8AB"/>
<path d="M51.9169 47.1376C51.9664 47.0761 51.6379 46.2971 51.6124 46.2091C51.4184 45.5321 51.2699 44.8371 51.2154 44.1341C51.1619 43.4391 51.1849 42.6721 51.5269 42.0461C51.7694 41.6021 52.3414 41.0571 52.8949 41.1501C53.8704 41.3136 53.8229 42.8601 53.7119 43.5796C53.5609 44.5601 53.0934 45.4796 52.5434 46.2936C52.3474 46.5841 52.1369 46.8651 51.9169 47.1376Z" fill="#A6A8AB"/>
<path d="M53.8669 45.6157C53.9269 45.5647 54.7149 45.8712 54.8034 45.8937C55.4854 46.0682 56.1849 46.1977 56.8889 46.2317C57.5849 46.2657 58.3509 46.2207 58.9674 45.8612C59.4044 45.6062 59.9329 45.0192 59.8249 44.4687C59.6339 43.4982 58.0894 43.5897 57.3734 43.7207C56.3979 43.8992 55.4919 44.3927 54.6934 44.9657C54.4084 45.1702 54.1339 45.3882 53.8674 45.6157H53.8669Z" fill="#A6A8AB"/>
<path d="M56.7824 42.6649C56.8194 42.5954 56.3504 41.8919 56.3089 41.8104C55.9914 41.1824 55.7144 40.5274 55.5289 39.8469C55.3454 39.1744 55.2239 38.4169 55.4419 37.7374C55.5964 37.2554 56.0554 36.6129 56.6169 36.5999C57.6054 36.5774 57.8499 38.1049 57.8764 38.8324C57.9124 39.8234 57.6264 40.8149 57.2394 41.7179C57.1014 42.0399 56.9479 42.3554 56.7829 42.6649H56.7824Z" fill="#A6A8AB"/>
<path d="M58.5229 40.7862C58.5779 40.7297 59.3899 40.9657 59.4804 40.9802C60.1749 41.0937 60.8829 41.1607 61.5874 41.1327C62.2839 41.1047 63.0429 40.9927 63.6249 40.5802C64.0379 40.2877 64.5124 39.6562 64.3559 39.1172C64.0799 38.1677 62.5494 38.3952 61.8479 38.5887C60.8919 38.8527 60.0329 39.4242 59.2884 40.0657C59.0229 40.2942 58.7684 40.5357 58.5229 40.7862Z" fill="#A6A8AB"/>
<path d="M60.6064 37.524C60.6384 37.452 60.1209 36.7835 60.0739 36.705C59.7129 36.1005 59.3904 35.467 59.1574 34.8015C58.9274 34.1435 58.7529 33.3965 58.9224 32.7035C59.0429 32.212 59.4554 31.5385 60.0144 31.486C60.9989 31.394 61.3499 32.9005 61.4279 33.6245C61.5339 34.6105 61.3179 35.6195 60.9954 36.548C60.8804 36.879 60.7494 37.2045 60.6069 37.5245L60.6064 37.524Z" fill="#A6A8AB"/>
<path d="M61.7539 35.6628C61.7959 35.5958 62.6394 35.6538 62.7309 35.6488C63.4339 35.6123 64.1399 35.5273 64.8224 35.3498C65.4969 35.1748 66.2149 34.9038 66.6959 34.3768C67.0374 34.0033 67.3669 33.2853 67.0989 32.7918C66.6274 31.9228 65.1804 32.4698 64.5359 32.8083C63.6579 33.2698 62.9399 34.0103 62.3484 34.7953C62.1374 35.0753 61.9399 35.3653 61.7534 35.6618L61.7539 35.6628Z" fill="#A6A8AB"/>
<path d="M63.4754 31.4468C63.4539 31.3708 64.0599 30.7818 64.1179 30.7103C64.5604 30.1628 64.9684 29.5803 65.2924 28.9543C65.6124 28.3353 65.8904 27.6198 65.8199 26.9098C65.7699 26.4063 65.4559 25.6813 64.9099 25.5513C63.9479 25.3218 63.3889 26.7643 63.2104 27.4698C62.9674 28.4313 63.0389 29.4603 63.2284 30.4248C63.2959 30.7688 63.3799 31.1093 63.4759 31.4463L63.4754 31.4468Z" fill="#A6A8AB"/>
<path d="M49.6174 48.9166C49.6874 48.8801 50.3854 49.3571 50.4669 49.3996C51.0919 49.7241 51.7434 50.0081 52.4214 50.2011C53.0919 50.3916 53.8479 50.5216 54.5299 50.3106C55.0134 50.1611 55.6609 49.7091 55.6799 49.1481C55.7134 48.1596 54.1884 47.8991 53.4614 47.8646C52.4704 47.8176 51.4764 48.0931 50.5689 48.4706C50.2454 48.6051 49.9284 48.7556 49.6169 48.9166H49.6174Z" stroke="#B17569" stroke-width="0.35" stroke-miterlimit="10"/>
<path d="M51.9169 47.1376C51.9664 47.0761 51.6379 46.2971 51.6124 46.2091C51.4184 45.5321 51.2699 44.8371 51.2154 44.1341C51.1619 43.4391 51.1849 42.6721 51.5269 42.0461C51.7694 41.6021 52.3414 41.0571 52.8949 41.1501C53.8704 41.3136 53.8229 42.8601 53.7119 43.5796C53.5609 44.5601 53.0934 45.4796 52.5434 46.2936C52.3474 46.5841 52.1369 46.8651 51.9169 47.1376Z" stroke="#B17569" stroke-width="0.35" stroke-miterlimit="10"/>
<path d="M53.8669 45.6157C53.9269 45.5647 54.7149 45.8712 54.8034 45.8937C55.4854 46.0682 56.1849 46.1977 56.8889 46.2317C57.5849 46.2657 58.3509 46.2207 58.9674 45.8612C59.4044 45.6062 59.9329 45.0192 59.8249 44.4687C59.6339 43.4982 58.0894 43.5897 57.3734 43.7207C56.3979 43.8992 55.4919 44.3927 54.6934 44.9657C54.4084 45.1702 54.1339 45.3882 53.8674 45.6157H53.8669Z" stroke="#B17569" stroke-width="0.35" stroke-miterlimit="10"/>
<path d="M56.7824 42.6649C56.8194 42.5954 56.3504 41.8919 56.3089 41.8104C55.9914 41.1824 55.7144 40.5274 55.5289 39.8469C55.3454 39.1744 55.2239 38.4169 55.4419 37.7374C55.5964 37.2554 56.0554 36.6129 56.6169 36.5999C57.6054 36.5774 57.8499 38.1049 57.8764 38.8324C57.9124 39.8234 57.6264 40.8149 57.2394 41.7179C57.1014 42.0399 56.9479 42.3554 56.7829 42.6649H56.7824Z" stroke="#B17569" stroke-width="0.35" stroke-miterlimit="10"/>
<path d="M58.5229 40.7862C58.5779 40.7297 59.3899 40.9657 59.4804 40.9802C60.1749 41.0937 60.8829 41.1607 61.5874 41.1327C62.2839 41.1047 63.0429 40.9927 63.6249 40.5802C64.0379 40.2877 64.5124 39.6562 64.3559 39.1172C64.0799 38.1677 62.5494 38.3952 61.8479 38.5887C60.8919 38.8527 60.0329 39.4242 59.2884 40.0657C59.0229 40.2942 58.7684 40.5357 58.5229 40.7862Z" stroke="#B17569" stroke-width="0.35" stroke-miterlimit="10"/>
<path d="M60.6064 37.524C60.6384 37.452 60.1209 36.7835 60.0739 36.705C59.7129 36.1005 59.3904 35.467 59.1574 34.8015C58.9274 34.1435 58.7529 33.3965 58.9224 32.7035C59.0429 32.212 59.4554 31.5385 60.0144 31.486C60.9989 31.394 61.3499 32.9005 61.4279 33.6245C61.5339 34.6105 61.3179 35.6195 60.9954 36.548C60.8804 36.879 60.7494 37.2045 60.6069 37.5245L60.6064 37.524Z" stroke="#B17569" stroke-width="0.35" stroke-miterlimit="10"/>
<path d="M61.7539 35.6628C61.7959 35.5958 62.6394 35.6538 62.7309 35.6488C63.4339 35.6123 64.1399 35.5273 64.8224 35.3498C65.4969 35.1748 66.2149 34.9038 66.6959 34.3768C67.0374 34.0033 67.3669 33.2853 67.0989 32.7918C66.6274 31.9228 65.1804 32.4698 64.5359 32.8083C63.6579 33.2698 62.9399 34.0103 62.3484 34.7953C62.1374 35.0753 61.9399 35.3653 61.7534 35.6618L61.7539 35.6628Z" stroke="#B17569" stroke-width="0.35" stroke-miterlimit="10"/>
<path d="M63.4754 31.4468C63.4539 31.3708 64.0599 30.7818 64.1179 30.7103C64.5604 30.1628 64.9684 29.5803 65.2924 28.9543C65.6124 28.3353 65.8904 27.6198 65.8199 26.9098C65.7699 26.4063 65.4559 25.6813 64.9099 25.5513C63.9479 25.3218 63.3889 26.7643 63.2104 27.4698C62.9674 28.4313 63.0389 29.4603 63.2284 30.4248C63.2959 30.7688 63.3799 31.1093 63.4759 31.4463L63.4754 31.4468Z" stroke="#B17569" stroke-width="0.35" stroke-miterlimit="10"/>
<path d="M12.2361 36.0528C12.1771 36.0043 11.4211 36.3148 11.3356 36.3383C10.6796 36.5193 10.0061 36.6568 9.32608 36.7023C8.65358 36.7478 7.91258 36.7177 7.31008 36.3817C6.88308 36.1432 6.36158 35.5853 6.45658 35.0513C6.62408 34.1098 8.11808 34.1703 8.81308 34.2843C9.75958 34.4393 10.6441 34.8998 11.4261 35.4393C11.7051 35.6318 11.9746 35.8373 12.2361 36.0528Z" fill="#A6A8AB"/>
<path d="M10.6901 33.817C10.6621 33.746 11.1886 33.121 11.2371 33.047C11.6096 32.4775 11.9466 31.878 12.1976 31.2445C12.4461 30.618 12.6441 29.9035 12.5081 29.227C12.4116 28.7475 12.0396 28.0805 11.5016 28.008C10.5541 27.88 10.1551 29.3215 10.0516 30.0175C9.91011 30.966 10.0786 31.949 10.3536 32.8585C10.4516 33.183 10.5651 33.5025 10.6901 33.8175V33.817Z" fill="#A6A8AB"/>
<path d="M9.08462 31.4281C9.03912 31.3666 8.23062 31.4856 8.14212 31.4876C7.46162 31.5046 6.77512 31.4756 6.10412 31.3556C5.44062 31.2371 4.72862 31.0296 4.22562 30.5576C3.86862 30.2231 3.49762 29.5556 3.71862 29.0601C4.10862 28.1871 5.54412 28.6066 6.19062 28.8851C7.07162 29.2641 7.81862 29.9246 8.44712 30.6371C8.67112 30.8911 8.88312 31.1561 9.08512 31.4281H9.08462Z" fill="#A6A8AB"/>
<path d="M7.71409 28.5574C7.69159 28.4844 8.26409 27.9014 8.31809 27.8314C8.73309 27.2919 9.11459 26.7199 9.41359 26.1074C9.70909 25.5019 9.96109 24.8044 9.87709 24.1194C9.81709 23.6339 9.49709 22.9404 8.96659 22.8269C8.03159 22.6269 7.52409 24.0334 7.36759 24.7199C7.15409 25.6549 7.24709 26.6479 7.45159 27.5754C7.52459 27.9064 7.61359 28.2334 7.71409 28.5569V28.5574Z" fill="#A6A8AB"/>
<path d="M6.54508 25.9205C6.50908 25.853 5.69208 25.849 5.60408 25.838C4.92908 25.753 4.25408 25.621 3.60908 25.4015C2.97108 25.185 2.29808 24.8725 1.87158 24.3305C1.56908 23.946 1.30208 23.2305 1.59508 22.774C2.11158 21.9695 3.46758 22.5995 4.06508 22.9715C4.87908 23.4785 5.51858 24.2435 6.03308 25.0425C6.21658 25.3275 6.38658 25.621 6.54508 25.92V25.9205Z" fill="#A6A8AB"/>
<path d="M5.68313 22.2351C5.67413 22.1591 6.34363 21.6906 6.40963 21.6311C6.91613 21.1766 7.39513 20.6836 7.80063 20.1356C8.20163 19.5941 8.57663 18.9541 8.61863 18.2656C8.64813 17.7771 8.46012 17.0371 7.95913 16.8291C7.07613 16.4621 6.32062 17.7526 6.04162 18.3991C5.66162 19.2796 5.57212 20.2726 5.60412 21.2221C5.61562 21.5606 5.64363 21.8986 5.68313 22.2351Z" fill="#A6A8AB"/>
<path d="M5.10809 20.2334C5.09009 20.1594 4.29909 19.9544 4.21609 19.9219C3.58259 19.6734 2.96109 19.3794 2.38959 19.0079C1.82459 18.6409 1.24909 18.1729 0.968592 17.5424C0.769592 17.0954 0.687092 16.3364 1.08359 15.9654C1.78209 15.3124 2.94159 16.2569 3.42909 16.7649C4.09309 17.4564 4.52509 18.3554 4.82709 19.2564C4.93509 19.5774 5.02709 19.9039 5.10759 20.2329L5.10809 20.2334Z" fill="#A6A8AB"/>
<path d="M4.77312 15.8019C4.81462 15.7379 4.42363 15.0204 4.39063 14.9379C4.13913 14.3054 3.92862 13.6509 3.80912 12.9799C3.69062 12.3164 3.63912 11.5764 3.90762 10.9409C4.09812 10.4904 4.59562 9.91091 5.13712 9.94691C6.09112 10.0104 6.19413 11.5024 6.15713 12.2054C6.10613 13.1629 5.74513 14.0924 5.29463 14.9289C5.13363 15.2274 4.95863 15.5174 4.77363 15.8014L4.77312 15.8019Z" fill="#A6A8AB"/>
<path d="M12.2361 36.0528C12.1771 36.0043 11.4211 36.3148 11.3356 36.3383C10.6796 36.5193 10.0061 36.6568 9.32608 36.7023C8.65358 36.7478 7.91258 36.7177 7.31008 36.3817C6.88308 36.1432 6.36158 35.5853 6.45658 35.0513C6.62408 34.1098 8.11808 34.1703 8.81308 34.2843C9.75958 34.4393 10.6441 34.8998 11.4261 35.4393C11.7051 35.6318 11.9746 35.8373 12.2361 36.0528Z" stroke="#D299A0" stroke-width="0.35" stroke-miterlimit="10"/>
<path d="M10.6901 33.817C10.6621 33.746 11.1886 33.121 11.2371 33.047C11.6096 32.4775 11.9466 31.878 12.1976 31.2445C12.4461 30.618 12.6441 29.9035 12.5081 29.227C12.4116 28.7475 12.0396 28.0805 11.5016 28.008C10.5541 27.88 10.1551 29.3215 10.0516 30.0175C9.91011 30.966 10.0786 31.949 10.3536 32.8585C10.4516 33.183 10.5651 33.5025 10.6901 33.8175V33.817Z" stroke="#D299A0" stroke-width="0.35" stroke-miterlimit="10"/>
<path d="M9.08462 31.4281C9.03912 31.3666 8.23062 31.4856 8.14212 31.4876C7.46162 31.5046 6.77512 31.4756 6.10412 31.3556C5.44062 31.2371 4.72862 31.0296 4.22562 30.5576C3.86862 30.2231 3.49762 29.5556 3.71862 29.0601C4.10862 28.1871 5.54412 28.6066 6.19062 28.8851C7.07162 29.2641 7.81862 29.9246 8.44712 30.6371C8.67112 30.8911 8.88312 31.1561 9.08512 31.4281H9.08462Z" stroke="#D299A0" stroke-width="0.35" stroke-miterlimit="10"/>
<path d="M7.71409 28.5574C7.69159 28.4844 8.26409 27.9014 8.31809 27.8314C8.73309 27.2919 9.11459 26.7199 9.41359 26.1074C9.70909 25.5019 9.96109 24.8044 9.87709 24.1194C9.81709 23.6339 9.49709 22.9404 8.96659 22.8269C8.03159 22.6269 7.52409 24.0334 7.36759 24.7199C7.15409 25.6549 7.24709 26.6479 7.45159 27.5754C7.52459 27.9064 7.61359 28.2334 7.71409 28.5569V28.5574Z" stroke="#D299A0" stroke-width="0.35" stroke-miterlimit="10"/>
<path d="M6.54508 25.9205C6.50908 25.853 5.69208 25.849 5.60408 25.838C4.92908 25.753 4.25408 25.621 3.60908 25.4015C2.97108 25.185 2.29808 24.8725 1.87158 24.3305C1.56908 23.946 1.30208 23.2305 1.59508 22.774C2.11158 21.9695 3.46758 22.5995 4.06508 22.9715C4.87908 23.4785 5.51858 24.2435 6.03308 25.0425C6.21658 25.3275 6.38658 25.621 6.54508 25.92V25.9205Z" stroke="#D299A0" stroke-width="0.35" stroke-miterlimit="10"/>
<path d="M5.68313 22.2351C5.67413 22.1591 6.34363 21.6906 6.40963 21.6311C6.91613 21.1766 7.39513 20.6836 7.80063 20.1356C8.20163 19.5941 8.57663 18.9541 8.61863 18.2656C8.64813 17.7771 8.46013 17.0371 7.95912 16.8291C7.07612 16.4621 6.32062 17.7526 6.04162 18.3991C5.66162 19.2796 5.57212 20.2726 5.60412 21.2221C5.61562 21.5606 5.64363 21.8986 5.68313 22.2351Z" stroke="#D299A0" stroke-width="0.35" stroke-miterlimit="10"/>
<path d="M5.10809 20.2334C5.09009 20.1594 4.29909 19.9544 4.21609 19.9219C3.58259 19.6734 2.96109 19.3794 2.38959 19.0079C1.82459 18.6409 1.24909 18.1729 0.968592 17.5424C0.769592 17.0954 0.687092 16.3364 1.08359 15.9654C1.78209 15.3124 2.94159 16.2569 3.42909 16.7649C4.09309 17.4564 4.52509 18.3554 4.82709 19.2564C4.93509 19.5774 5.02709 19.9039 5.10759 20.2329L5.10809 20.2334Z" stroke="#D299A0" stroke-width="0.35" stroke-miterlimit="10"/>
<path d="M4.77312 15.8019C4.81462 15.7379 4.42363 15.0204 4.39063 14.9379C4.13913 14.3054 3.92862 13.6509 3.80912 12.9799C3.69062 12.3164 3.63912 11.5764 3.90762 10.9409C4.09812 10.4904 4.59562 9.91091 5.13712 9.94691C6.09112 10.0104 6.19413 11.5024 6.15713 12.2054C6.10613 13.1629 5.74513 14.0924 5.29463 14.9289C5.13363 15.2274 4.95863 15.5174 4.77363 15.8014L4.77312 15.8019Z" stroke="#D299A0" stroke-width="0.35" stroke-miterlimit="10"/>
<g style="mix-blend-mode:multiply">
<path d="M12.2361 36.0528C12.1771 36.0043 11.4211 36.3148 11.3356 36.3383C10.6796 36.5193 10.0061 36.6568 9.32608 36.7023C8.65358 36.7478 7.91258 36.7177 7.31008 36.3817C6.88308 36.1432 6.36158 35.5853 6.45658 35.0513C6.62408 34.1098 8.11808 34.1703 8.81308 34.2843C9.75958 34.4393 10.6441 34.8998 11.4261 35.4393C11.7051 35.6318 11.9746 35.8373 12.2361 36.0528Z" stroke="#B17569" stroke-width="0.35" stroke-linecap="round" stroke-linejoin="round"/>
<path d="M10.6901 33.817C10.6621 33.746 11.1886 33.121 11.2371 33.047C11.6096 32.4775 11.9466 31.878 12.1976 31.2445C12.4461 30.618 12.6441 29.9035 12.5081 29.227C12.4116 28.7475 12.0396 28.0805 11.5016 28.008C10.5541 27.88 10.1551 29.3215 10.0516 30.0175C9.91011 30.966 10.0786 31.949 10.3536 32.8585C10.4516 33.183 10.5651 33.5025 10.6901 33.8175V33.817Z" stroke="#B17569" stroke-width="0.35" stroke-linecap="round" stroke-linejoin="round"/>
<path d="M9.08462 31.4281C9.03912 31.3666 8.23062 31.4856 8.14212 31.4876C7.46162 31.5046 6.77512 31.4756 6.10412 31.3556C5.44062 31.2371 4.72862 31.0296 4.22562 30.5576C3.86862 30.2231 3.49762 29.5556 3.71862 29.0601C4.10862 28.1871 5.54412 28.6066 6.19062 28.8851C7.07162 29.2641 7.81862 29.9246 8.44712 30.6371C8.67112 30.8911 8.88312 31.1561 9.08512 31.4281H9.08462Z" stroke="#B17569" stroke-width="0.35" stroke-linecap="round" stroke-linejoin="round"/>
<path d="M7.71409 28.5574C7.69159 28.4844 8.26409 27.9014 8.31809 27.8314C8.73309 27.2919 9.11459 26.7199 9.41359 26.1074C9.70909 25.5019 9.96109 24.8044 9.87709 24.1194C9.81709 23.6339 9.49709 22.9404 8.96659 22.8269C8.03159 22.6269 7.52409 24.0334 7.36759 24.7199C7.15409 25.6549 7.24709 26.6479 7.45159 27.5754C7.52459 27.9064 7.61359 28.2334 7.71409 28.5569V28.5574Z" stroke="#B17569" stroke-width="0.35" stroke-linecap="round" stroke-linejoin="round"/>
<path d="M6.54508 25.9205C6.50908 25.853 5.69208 25.849 5.60408 25.838C4.92908 25.753 4.25408 25.621 3.60908 25.4015C2.97108 25.185 2.29808 24.8725 1.87158 24.3305C1.56908 23.946 1.30208 23.2305 1.59508 22.774C2.11158 21.9695 3.46758 22.5995 4.06508 22.9715C4.87908 23.4785 5.51858 24.2435 6.03308 25.0425C6.21658 25.3275 6.38658 25.621 6.54508 25.92V25.9205Z" stroke="#B17569" stroke-width="0.35" stroke-linecap="round" stroke-linejoin="round"/>
<path d="M5.68313 22.2351C5.67413 22.1591 6.34363 21.6906 6.40963 21.6311C6.91613 21.1766 7.39513 20.6836 7.80063 20.1356C8.20163 19.5941 8.57663 18.9541 8.61863 18.2656C8.64813 17.7771 8.46013 17.0371 7.95912 16.8291C7.07612 16.4621 6.32062 17.7526 6.04162 18.3991C5.66162 19.2796 5.57212 20.2726 5.60412 21.2221C5.61562 21.5606 5.64363 21.8986 5.68313 22.2351Z" stroke="#B17569" stroke-width="0.35" stroke-linecap="round" stroke-linejoin="round"/>
<path d="M5.10809 20.2334C5.09009 20.1594 4.29909 19.9544 4.21609 19.9219C3.58259 19.6734 2.96109 19.3794 2.38959 19.0079C1.82459 18.6409 1.24909 18.1729 0.968592 17.5424C0.769592 17.0954 0.687092 16.3364 1.08359 15.9654C1.78209 15.3124 2.94159 16.2569 3.42909 16.7649C4.09309 17.4564 4.52509 18.3554 4.82709 19.2564C4.93509 19.5774 5.02709 19.9039 5.10759 20.2329L5.10809 20.2334Z" stroke="#B17569" stroke-width="0.35" stroke-linecap="round" stroke-linejoin="round"/>
<path d="M4.77312 15.8019C4.81462 15.7379 4.42363 15.0204 4.39063 14.9379C4.13913 14.3054 3.92862 13.6509 3.80912 12.9799C3.69062 12.3164 3.63912 11.5764 3.90762 10.9409C4.09812 10.4904 4.59562 9.91091 5.13712 9.94691C6.09112 10.0104 6.19413 11.5024 6.15713 12.2054C6.10613 13.1629 5.74513 14.0924 5.29463 14.9289C5.13363 15.2274 4.95863 15.5174 4.77363 15.8014L4.77312 15.8019Z" stroke="#B17569" stroke-width="0.35" stroke-linecap="round" stroke-linejoin="round"/>
</g>
<path d="M59.0849 29.6551C59.0849 31.5576 58.8685 33.4101 58.4585 35.1881C55.9495 46.0741 46.198 54.1901 34.55 54.1901C21 54.1901 10.015 43.2056 10.015 29.6551C10.015 22.7091 12.9015 16.4371 17.541 11.9736C20.0535 9.55511 23.081 7.66812 26.4425 6.49162C28.9805 5.60312 31.7095 5.12012 34.55 5.12012C34.7985 5.12012 35.046 5.12412 35.293 5.13112C36.519 5.16762 37.722 5.29362 38.896 5.50412C45.3335 6.65462 50.9005 10.3156 54.5485 15.4381C57.4049 19.4486 59.0849 24.3556 59.0849 29.6546V29.6551Z" fill="#B17569"/>
<mask id="mask0_50_490" style="mask-type:luminance" maskUnits="userSpaceOnUse" x="10" y="5" width="50" height="50">
<path d="M59.0849 29.6551C59.0849 31.5576 58.8685 33.4101 58.4585 35.1881C55.9495 46.0741 46.198 54.1901 34.55 54.1901C21 54.1901 10.015 43.2056 10.015 29.6551C10.015 22.7091 12.9015 16.4371 17.541 11.9736C20.0535 9.55511 23.081 7.66812 26.4425 6.49162C28.9805 5.60312 31.7095 5.12012 34.55 5.12012C34.7985 5.12012 35.046 5.12412 35.293 5.13112C36.519 5.16762 37.722 5.29362 38.896 5.50412C45.3335 6.65462 50.9005 10.3156 54.5485 15.4381C57.4049 19.4486 59.0849 24.3556 59.0849 29.6546V29.6551Z" fill="white"/>
</mask>
<g mask="url(#mask0_50_490)">
<path d="M64.0745 34.0542C64.5715 35.5312 61.333 38.4772 59.7525 38.4492C58.9925 38.3582 59.276 37.3662 58.9075 36.8797C58.8135 36.5672 58.3025 36.3027 58.353 35.9622C57.6905 33.1502 57.1715 32.9252 57.7725 30.0222C57.907 28.8357 56.265 27.9632 56.5895 26.9802C56.826 26.4217 56.6205 25.6282 56.01 25.5072C55.768 25.4422 55.6325 25.7027 55.455 25.3377C54.323 24.0647 52.4155 26.0382 51.0365 25.4107C46.6085 22.2057 49.4905 18.3207 52.316 15.3172C52.566 15.8717 53.2855 15.1817 53.765 15.4632C54.671 15.2637 54.0775 15.1827 55.624 15.0767C56.5655 15.0042 55.938 15.0767 56.1315 15.0042C57.8095 14.4222 55.9765 15.7612 57.218 16.2602C57.411 16.6462 57.604 16.3082 57.7975 16.4287C58.461 16.7397 59.614 17.6422 59.753 16.3327C59.753 15.9462 59.8015 16.2117 59.898 16.3087C60.6995 16.6032 62.031 17.0957 62.983 16.8957L63.84 17.5302L63.3155 17.9942L63.589 18.2757C63.6085 18.3467 63.6345 18.4227 63.666 18.5027C64.087 19.5897 65.492 21.4862 66.1705 22.7182C66.317 22.9842 66.4295 23.2187 66.491 23.4077C72.141 22.9347 66.468 26.2787 65.3795 28.8152C66.3255 32.9007 65.761 31.0767 64.076 34.0547L64.0745 34.0542Z" fill="white"/>
<path d="M32.954 48.5965C27.6015 42.4475 33.5745 39.432 25.848 31.745C25.8485 31.745 25.9015 31.322 25.9015 31.322C26.7335 31.018 25.6175 30.5535 26.0865 30.107C28.5325 27.1885 26.115 27.8645 28.041 25.9865C28.652 26.0765 28.5865 25.03 28.8865 25.6165C29.325 26.093 28.9175 26.818 29.3355 26.4885C29.789 25.3935 29.4605 25.4385 30.577 26.0395C30.642 26.1975 32.2585 25.88 32.0825 26.1715C32.0035 26.4355 31.845 26.145 32.2145 26.4355C32.853 27.0505 32.9165 26.618 33.5615 27.175C34.134 27.6685 34.1925 28.002 34.882 28.047C35.981 28.07 36.2865 29.7675 35.542 30.16C35.933 30.074 36.769 29.7235 36.6255 30.2655C36.7135 29.8965 37.718 30.4695 37.893 30.7675C39.6155 30.6655 42.4065 31.949 40.2435 33.7255C39.765 35.007 39.9 36.6255 39.267 37.793C38.9275 38.481 37.1175 38.117 37.1275 38.955C37.237 40.1125 36.0925 43.0445 34.5395 42.045C34.7505 43.151 36.102 42.279 34.6975 43.7625C34.5085 43.99 34.1915 43.592 34.0375 43.7095C33.6345 43.9225 34.341 44.9005 33.4035 44.6075C33.317 44.2625 32.975 44.692 33.219 44.898C33.4225 44.9315 33.608 45.5255 33.5095 45.611C32.4725 47.125 33.6135 46.0535 33.642 46.7995C33.8395 47.505 33.0965 47.824 33.4305 48.4375C33.7835 48.7425 32.9615 48.5935 32.9555 48.596L32.954 48.5965Z" fill="white"/>
<path d="M26.1675 27.1208C24.857 26.1433 25.3085 25.4473 25.217 24.1623C22.102 24.3153 25.972 22.1088 23.8165 22.1288C22.9065 24.0728 20.4575 23.2033 21.4395 21.0723C21.586 19.6833 23.199 18.6468 24.3185 19.3558C24.94 19.4853 24.5455 18.3783 25.8505 18.9598C26.7845 19.0258 26.355 21.4488 27.118 20.4653C27.2815 17.6478 26.565 18.9358 29.231 17.0578C30.0475 15.7128 32.843 13.4968 33.748 13.5708C33.2195 13.8883 33.5625 13.7033 33.457 13.9673C33.3515 14.2313 33.272 14.5748 33.774 14.1783C34.557 13.5113 34.111 13.7868 34.8835 13.6238C35.552 13.4813 35.5785 12.9638 35.095 13.1748C32.407 13.6823 36.0765 12.0633 33.5895 12.5673C31.3605 11.9763 37.8615 12.1708 37.4455 10.7188C36.9175 10.0213 37.1255 10.8673 36.8385 10.4548C36.599 9.78178 36.383 10.2128 36.416 9.58327C37.0505 7.34777 34.905 10.1893 34.884 8.71177C35.03 8.09927 33.852 7.88477 33.4845 7.97177C33.379 8.13028 32.8245 8.63228 32.7185 8.68528C32.613 8.73828 32.4545 8.23627 32.3755 9.05527C32.6885 11.0428 31.3025 9.54877 30.8175 11.4588C30.184 11.6728 29.943 10.9038 30.157 10.5343C31.0475 10.0818 28.7555 10.1983 28.7305 9.92678C26.4985 8.34478 30.8435 7.83027 31.2135 6.94277C31.0735 6.57027 31.4365 6.59977 31.583 6.83627C31.6095 6.91527 31.6095 7.10028 31.7945 6.88878C32.2875 6.25828 33.3635 6.59078 33.67 5.83228C33.745 5.03578 31.6515 6.99628 32.1115 5.77928C31.381 5.67778 32.0365 4.98128 31.6095 5.01328C30.2185 5.27278 31.1195 7.06078 29.0735 6.06978C26.569 5.74828 27.386 6.94828 26.67 6.30778C24.888 5.69228 22.569 5.25578 20.542 6.07028C18.543 6.05378 20.7255 4.60477 16.4745 5.43627C15.7905 5.50027 13.341 5.65778 13.1465 6.22828C13.489 6.45328 13.342 6.70828 13.1465 6.83578C11.66 6.07728 11.2245 7.64528 12.5655 7.04728C13.333 7.08728 11.946 7.85928 11.4825 7.70728C10.531 7.72028 10.047 8.78678 11.06 9.05428C11.468 8.99728 10.654 9.66528 11.2185 9.34478C12.275 9.26128 13.438 8.19028 13.252 8.71078C13.339 9.03028 14.123 8.22828 14.388 8.42028C14.4565 8.52378 16.6125 8.59828 16.554 8.94828C17.5545 9.36478 17.078 10.2678 17.0295 11.0878C17.048 11.5288 17.641 12.7468 16.924 12.6458C16.344 14.2258 13.842 16.2248 15.8415 17.8228C16.6545 18.5943 16.106 20.0678 17.004 20.9128C17.4085 22.0208 16.882 19.5743 16.6075 19.2228C16.216 16.7308 18.31 21.7863 18.6675 22.1018C18.3795 23.4158 20.568 24.3523 21.652 24.1093C22.3495 24.0983 22.8375 25.0793 23.6595 24.9538C24.887 25.4728 24.194 26.6863 26.1685 27.1193L26.1675 27.1208Z" fill="white"/>
<path d="M37.987 0.86914C39.773 0.94114 41.476 -0.43836 43.296 0.11614C46.653 0.55864 50.5154 -0.0393607 53.5969 0.512139C53.6364 0.829639 54.1514 0.59164 53.6364 0.82964C52.2649 1.29714 53.1754 1.81664 52.3289 2.21664C50.3449 2.27914 51.8015 3.09514 50.863 3.84114C49.242 4.00764 47.4289 4.68714 46.1479 5.42614C45.4929 7.38114 43.92 6.73164 43.7705 4.99014C43.731 4.75264 43.3745 4.19814 43.7705 4.27714C45.7035 4.65814 44.336 1.83414 43.2555 1.70164C42.785 1.64164 41.6574 1.43564 42.4229 1.26564C43.3334 1.19664 43.754 1.47314 43.9685 0.94864C43.731 0.90914 44.325 0.55214 43.7705 0.67114C43.216 0.79014 42.582 0.94864 42.4234 0.98814C41.4505 1.03714 40.2925 1.62414 39.769 1.82014C38.828 2.32264 38.975 1.72214 38.4615 1.70114C37.6105 1.66114 37.508 1.26914 37.986 0.86864L37.987 0.86914Z" fill="white"/>
<path d="M35.8705 4.36572C35.6725 4.56372 35.197 4.84122 35.316 4.96022C35.435 5.07922 35.514 5.51472 35.752 5.39622C35.9895 5.27722 35.7125 4.88122 36.6235 5.19822C37.535 5.51522 37.4555 5.15872 37.6535 5.63422C37.9955 6.49122 38.1465 6.62322 37.3365 6.94172C36.202 7.27922 37.7985 7.76022 38.0895 7.93222C39.4515 8.33322 38.1125 7.31372 38.763 7.17922C38.763 7.17922 39.4365 7.69422 39.199 7.10022C38.961 6.50572 38.8025 6.50572 38.961 6.50572C39.398 6.60322 39.4435 6.83672 39.595 6.38672C39.5745 6.03222 39.1865 5.56572 38.9215 5.35672C38.9215 5.35672 39.3575 4.96072 38.763 4.88122C38.1685 4.80222 38.2085 4.80222 37.8915 4.60372C37.437 4.01972 36.0765 4.97322 35.871 4.36572H35.8705Z" fill="white"/>
<path d="M64.099 15.5105C64.018 16.3805 63.5735 16.7715 62.982 16.895L61.385 15.713L55.322 14.1275L53.813 14.569C54.122 14.323 53.8705 13.888 54.2475 13.6515C54.8455 13.5445 54.7485 13.0005 55.2855 12.8305C56.644 13.2805 55.504 12.2625 56.42 12.565C56.8665 13.0705 59.518 14.202 57.6515 14.6175C57.9745 15.074 58.521 14.271 58.545 14.086C58.537 13.589 58.767 14.0475 58.9075 13.917C58.76 13.335 57.593 13.092 57.3135 12.444C56.998 11.593 58.2545 12.594 58.4725 12.8065C58.7535 13.211 59.164 12.9005 59.2455 13.386C59.166 13.7655 60.355 15.689 60.3795 14.545C61.032 14.4825 59.849 13.9505 60.38 13.7C60.574 14.0915 61.4715 13.238 61.37 13.7485C60.7335 15.875 64.0955 14.386 64.099 15.511V15.5105Z" fill="white"/>
</g>
</svg>
