<svg width="100" height="100" viewBox="0 0 100 100" fill="none" xmlns="http://www.w3.org/2000/svg">
<path d="M20.777 36.3853C20.479 46.7038 25.495 57.0343 33.788 63.1813" stroke="#B17569" stroke-width="0.35" stroke-linecap="round" stroke-linejoin="round"/>
<path d="M50.55 78.3057C61.6509 78.3057 70.65 77.708 70.65 76.9707C70.65 76.2334 61.6509 75.6357 50.55 75.6357C39.449 75.6357 30.45 76.2334 30.45 76.9707C30.45 77.708 39.449 78.3057 50.55 78.3057Z" fill="#E3E4E5"/>
<path d="M82.2299 23.1582C82.3909 23.1582 82.3909 22.9082 82.2299 22.9082C82.0689 22.9082 82.0689 23.1582 82.2299 23.1582Z" fill="white"/>
<path d="M80.0604 51.5474C77.1939 61.8329 69.0729 70.5024 58.9969 74.0349" stroke="#D299A0" stroke-width="0.35" stroke-miterlimit="10"/>
<path d="M80.0604 51.5474C77.1939 61.8329 69.0729 70.5024 58.9969 74.0349" stroke="#B17569" stroke-width="0.35" stroke-miterlimit="10"/>
<path d="M65.6174 70.9166C65.6874 70.8801 66.3854 71.3571 66.4669 71.3996C67.0919 71.7241 67.7434 72.0081 68.4214 72.2011C69.0919 72.3916 69.8479 72.5216 70.5299 72.3106C71.0134 72.1611 71.6609 71.7091 71.6799 71.1481C71.7134 70.1596 70.1884 69.8991 69.4614 69.8646C68.4704 69.8176 67.4764 70.0931 66.5689 70.4706C66.2454 70.6051 65.9284 70.7556 65.6169 70.9166H65.6174Z" fill="#A6A8AB"/>
<path d="M67.9169 69.1376C67.9664 69.0761 67.6379 68.2971 67.6124 68.2091C67.4184 67.5321 67.2699 66.8371 67.2154 66.1341C67.1619 65.4391 67.1849 64.6721 67.5269 64.0461C67.7694 63.6021 68.3414 63.0571 68.8949 63.1501C69.8704 63.3136 69.8229 64.8601 69.7119 65.5796C69.5609 66.5601 69.0934 67.4796 68.5434 68.2936C68.3474 68.5841 68.1369 68.8651 67.9169 69.1376Z" fill="#A6A8AB"/>
<path d="M69.8669 67.6157C69.9269 67.5647 70.7149 67.8712 70.8034 67.8937C71.4854 68.0682 72.1849 68.1977 72.8889 68.2317C73.5849 68.2657 74.3509 68.2207 74.9674 67.8612C75.4044 67.6062 75.9329 67.0192 75.8249 66.4687C75.6339 65.4982 74.0894 65.5897 73.3734 65.7207C72.3979 65.8992 71.4919 66.3927 70.6934 66.9657C70.4084 67.1702 70.1339 67.3882 69.8674 67.6157H69.8669Z" fill="#A6A8AB"/>
<path d="M72.7824 64.6649C72.8194 64.5954 72.3504 63.8919 72.3089 63.8104C71.9914 63.1824 71.7144 62.5274 71.5289 61.8469C71.3454 61.1744 71.2239 60.4169 71.4419 59.7374C71.5964 59.2554 72.0554 58.6129 72.6169 58.5999C73.6054 58.5774 73.8499 60.1049 73.8764 60.8324C73.9124 61.8234 73.6264 62.8149 73.2394 63.7179C73.1014 64.0399 72.9479 64.3554 72.7829 64.6649H72.7824Z" fill="#A6A8AB"/>
<path d="M74.5229 62.7862C74.5779 62.7297 75.3899 62.9657 75.4804 62.9802C76.1749 63.0937 76.8829 63.1607 77.5874 63.1327C78.2839 63.1047 79.0429 62.9927 79.6249 62.5802C80.0379 62.2877 80.5124 61.6562 80.3559 61.1172C80.0799 60.1677 78.5494 60.3952 77.8479 60.5887C76.8919 60.8527 76.0329 61.4242 75.2884 62.0657C75.0229 62.2942 74.7684 62.5357 74.5229 62.7862Z" fill="#A6A8AB"/>
<path d="M76.6064 59.524C76.6384 59.452 76.1209 58.7835 76.0739 58.705C75.7129 58.1005 75.3904 57.467 75.1574 56.8015C74.9274 56.1435 74.7529 55.3965 74.9224 54.7035C75.0429 54.212 75.4554 53.5385 76.0144 53.486C76.9989 53.394 77.3499 54.9005 77.4279 55.6245C77.5339 56.6105 77.3179 57.6195 76.9954 58.548C76.8804 58.879 76.7494 59.2045 76.6069 59.5245L76.6064 59.524Z" fill="#A6A8AB"/>
<path d="M77.7539 57.6628C77.7959 57.5958 78.6394 57.6538 78.7309 57.6488C79.4339 57.6123 80.1399 57.5273 80.8224 57.3498C81.4969 57.1748 82.2149 56.9038 82.6959 56.3768C83.0374 56.0033 83.3669 55.2853 83.0989 54.7918C82.6274 53.9228 81.1804 54.4698 80.5359 54.8083C79.6579 55.2698 78.9399 56.0103 78.3484 56.7953C78.1374 57.0753 77.9399 57.3653 77.7534 57.6618L77.7539 57.6628Z" fill="#A6A8AB"/>
<path d="M79.4754 53.4468C79.4539 53.3708 80.0599 52.7818 80.1179 52.7103C80.5604 52.1628 80.9684 51.5803 81.2924 50.9543C81.6124 50.3353 81.8904 49.6198 81.8199 48.9098C81.7699 48.4063 81.4559 47.6813 80.9099 47.5513C79.9479 47.3218 79.3889 48.7643 79.2104 49.4698C78.9674 50.4313 79.0389 51.4603 79.2284 52.4248C79.2959 52.7688 79.3799 53.1093 79.4759 53.4463L79.4754 53.4468Z" fill="#A6A8AB"/>
<path d="M65.6174 70.9166C65.6874 70.8801 66.3854 71.3571 66.4669 71.3996C67.0919 71.7241 67.7434 72.0081 68.4214 72.2011C69.0919 72.3916 69.8479 72.5216 70.5299 72.3106C71.0134 72.1611 71.6609 71.7091 71.6799 71.1481C71.7134 70.1596 70.1884 69.8991 69.4614 69.8646C68.4704 69.8176 67.4764 70.0931 66.5689 70.4706C66.2454 70.6051 65.9284 70.7556 65.6169 70.9166H65.6174Z" stroke="#B17569" stroke-width="0.35" stroke-miterlimit="10"/>
<path d="M67.9169 69.1376C67.9664 69.0761 67.6379 68.2971 67.6124 68.2091C67.4184 67.5321 67.2699 66.8371 67.2154 66.1341C67.1619 65.4391 67.1849 64.6721 67.5269 64.0461C67.7694 63.6021 68.3414 63.0571 68.8949 63.1501C69.8704 63.3136 69.8229 64.8601 69.7119 65.5796C69.5609 66.5601 69.0934 67.4796 68.5434 68.2936C68.3474 68.5841 68.1369 68.8651 67.9169 69.1376Z" stroke="#B17569" stroke-width="0.35" stroke-miterlimit="10"/>
<path d="M69.8669 67.6157C69.9269 67.5647 70.7149 67.8712 70.8034 67.8937C71.4854 68.0682 72.1849 68.1977 72.8889 68.2317C73.5849 68.2657 74.3509 68.2207 74.9674 67.8612C75.4044 67.6062 75.9329 67.0192 75.8249 66.4687C75.6339 65.4982 74.0894 65.5897 73.3734 65.7207C72.3979 65.8992 71.4919 66.3927 70.6934 66.9657C70.4084 67.1702 70.1339 67.3882 69.8674 67.6157H69.8669Z" stroke="#B17569" stroke-width="0.35" stroke-miterlimit="10"/>
<path d="M72.7824 64.6649C72.8194 64.5954 72.3504 63.8919 72.3089 63.8104C71.9914 63.1824 71.7144 62.5274 71.5289 61.8469C71.3454 61.1744 71.2239 60.4169 71.4419 59.7374C71.5964 59.2554 72.0554 58.6129 72.6169 58.5999C73.6054 58.5774 73.8499 60.1049 73.8764 60.8324C73.9124 61.8234 73.6264 62.8149 73.2394 63.7179C73.1014 64.0399 72.9479 64.3554 72.7829 64.6649H72.7824Z" stroke="#B17569" stroke-width="0.35" stroke-miterlimit="10"/>
<path d="M74.5229 62.7862C74.5779 62.7297 75.3899 62.9657 75.4804 62.9802C76.1749 63.0937 76.8829 63.1607 77.5874 63.1327C78.2839 63.1047 79.0429 62.9927 79.6249 62.5802C80.0379 62.2877 80.5124 61.6562 80.3559 61.1172C80.0799 60.1677 78.5494 60.3952 77.8479 60.5887C76.8919 60.8527 76.0329 61.4242 75.2884 62.0657C75.0229 62.2942 74.7684 62.5357 74.5229 62.7862Z" stroke="#B17569" stroke-width="0.35" stroke-miterlimit="10"/>
<path d="M76.6064 59.524C76.6384 59.452 76.1209 58.7835 76.0739 58.705C75.7129 58.1005 75.3904 57.467 75.1574 56.8015C74.9274 56.1435 74.7529 55.3965 74.9224 54.7035C75.0429 54.212 75.4554 53.5385 76.0144 53.486C76.9989 53.394 77.3499 54.9005 77.4279 55.6245C77.5339 56.6105 77.3179 57.6195 76.9954 58.548C76.8804 58.879 76.7494 59.2045 76.6069 59.5245L76.6064 59.524Z" stroke="#B17569" stroke-width="0.35" stroke-miterlimit="10"/>
<path d="M77.7539 57.6628C77.7959 57.5958 78.6394 57.6538 78.7309 57.6488C79.4339 57.6123 80.1399 57.5273 80.8224 57.3498C81.4969 57.1748 82.2149 56.9038 82.6959 56.3768C83.0374 56.0033 83.3669 55.2853 83.0989 54.7918C82.6274 53.9228 81.1804 54.4698 80.5359 54.8083C79.6579 55.2698 78.9399 56.0103 78.3484 56.7953C78.1374 57.0753 77.9399 57.3653 77.7534 57.6618L77.7539 57.6628Z" stroke="#B17569" stroke-width="0.35" stroke-miterlimit="10"/>
<path d="M79.4754 53.4468C79.4539 53.3708 80.0599 52.7818 80.1179 52.7103C80.5604 52.1628 80.9684 51.5803 81.2924 50.9543C81.6124 50.3353 81.8904 49.6198 81.8199 48.9098C81.7699 48.4063 81.4559 47.6813 80.9099 47.5513C79.9479 47.3218 79.3889 48.7643 79.2104 49.4698C78.9674 50.4313 79.0389 51.4603 79.2284 52.4248C79.2959 52.7688 79.3799 53.1093 79.4759 53.4463L79.4754 53.4468Z" stroke="#B17569" stroke-width="0.35" stroke-miterlimit="10"/>
<path d="M28.2361 58.0528C28.1771 58.0043 27.4211 58.3148 27.3356 58.3383C26.6796 58.5193 26.0061 58.6568 25.3261 58.7023C24.6536 58.7478 23.9126 58.7177 23.3101 58.3817C22.8831 58.1432 22.3616 57.5853 22.4566 57.0513C22.6241 56.1098 24.1181 56.1703 24.8131 56.2843C25.7596 56.4393 26.6441 56.8998 27.4261 57.4393C27.7051 57.6318 27.9746 57.8373 28.2361 58.0528Z" fill="#A6A8AB"/>
<path d="M26.6901 55.817C26.6621 55.746 27.1886 55.121 27.2371 55.047C27.6096 54.4775 27.9466 53.878 28.1976 53.2445C28.4461 52.618 28.6441 51.9035 28.5081 51.227C28.4116 50.7475 28.0396 50.0805 27.5016 50.008C26.5541 49.88 26.1551 51.3215 26.0516 52.0175C25.9101 52.966 26.0786 53.949 26.3536 54.8585C26.4516 55.183 26.5651 55.5025 26.6901 55.8175V55.817Z" fill="#A6A8AB"/>
<path d="M25.0846 53.4281C25.0391 53.3666 24.2306 53.4856 24.1421 53.4876C23.4616 53.5046 22.7751 53.4756 22.1041 53.3556C21.4406 53.2371 20.7286 53.0296 20.2256 52.5576C19.8686 52.2231 19.4976 51.5556 19.7186 51.0601C20.1086 50.1871 21.5441 50.6066 22.1906 50.8851C23.0716 51.2641 23.8186 51.9246 24.4471 52.6371C24.6711 52.8911 24.8831 53.1561 25.0851 53.4281H25.0846Z" fill="#A6A8AB"/>
<path d="M23.7141 50.5574C23.6916 50.4844 24.2641 49.9014 24.3181 49.8314C24.7331 49.2919 25.1146 48.7199 25.4136 48.1074C25.7091 47.5019 25.9611 46.8044 25.8771 46.1194C25.8171 45.6339 25.4971 44.9404 24.9666 44.8269C24.0316 44.6269 23.5241 46.0334 23.3676 46.7199C23.1541 47.6549 23.2471 48.6479 23.4516 49.5754C23.5246 49.9064 23.6136 50.2334 23.7141 50.5569V50.5574Z" fill="#A6A8AB"/>
<path d="M22.5451 47.9205C22.5091 47.853 21.6921 47.849 21.6041 47.838C20.9291 47.753 20.2541 47.621 19.6091 47.4015C18.9711 47.185 18.2981 46.8725 17.8716 46.3305C17.5691 45.946 17.3021 45.2305 17.5951 44.774C18.1116 43.9695 19.4676 44.5995 20.0651 44.9715C20.8791 45.4785 21.5186 46.2435 22.0331 47.0425C22.2166 47.3275 22.3866 47.621 22.5451 47.92V47.9205Z" fill="#A6A8AB"/>
<path d="M21.6831 44.2351C21.6741 44.1591 22.3436 43.6906 22.4096 43.6311C22.9161 43.1766 23.3951 42.6836 23.8006 42.1356C24.2016 41.5941 24.5766 40.9541 24.6186 40.2656C24.6481 39.7771 24.4601 39.0371 23.9591 38.8291C23.0761 38.4621 22.3206 39.7526 22.0416 40.3991C21.6616 41.2796 21.5721 42.2726 21.6041 43.2221C21.6156 43.5606 21.6436 43.8986 21.6831 44.2351Z" fill="#A6A8AB"/>
<path d="M21.1081 42.2334C21.0901 42.1594 20.2991 41.9544 20.2161 41.9219C19.5826 41.6734 18.9611 41.3794 18.3896 41.0079C17.8246 40.6409 17.2491 40.1729 16.9686 39.5424C16.7696 39.0954 16.6871 38.3364 17.0836 37.9654C17.7821 37.3124 18.9416 38.2569 19.4291 38.7649C20.0931 39.4564 20.5251 40.3554 20.8271 41.2564C20.9351 41.5774 21.0271 41.9039 21.1076 42.2329L21.1081 42.2334Z" fill="#A6A8AB"/>
<path d="M20.7731 37.8019C20.8146 37.7379 20.4236 37.0204 20.3906 36.9379C20.1391 36.3054 19.9286 35.6509 19.8091 34.9799C19.6906 34.3164 19.6391 33.5764 19.9076 32.9409C20.0981 32.4904 20.5956 31.9109 21.1371 31.9469C22.0911 32.0104 22.1941 33.5024 22.1571 34.2054C22.1061 35.1629 21.7451 36.0924 21.2946 36.9289C21.1336 37.2274 20.9586 37.5174 20.7736 37.8014L20.7731 37.8019Z" fill="#A6A8AB"/>
<path d="M28.2361 58.0528C28.1771 58.0043 27.4211 58.3148 27.3356 58.3383C26.6796 58.5193 26.0061 58.6568 25.3261 58.7023C24.6536 58.7478 23.9126 58.7177 23.3101 58.3817C22.8831 58.1432 22.3616 57.5853 22.4566 57.0513C22.6241 56.1098 24.1181 56.1703 24.8131 56.2843C25.7596 56.4393 26.6441 56.8998 27.4261 57.4393C27.7051 57.6318 27.9746 57.8373 28.2361 58.0528Z" stroke="#D299A0" stroke-width="0.35" stroke-miterlimit="10"/>
<path d="M26.6901 55.817C26.6621 55.746 27.1886 55.121 27.2371 55.047C27.6096 54.4775 27.9466 53.878 28.1976 53.2445C28.4461 52.618 28.6441 51.9035 28.5081 51.227C28.4116 50.7475 28.0396 50.0805 27.5016 50.008C26.5541 49.88 26.1551 51.3215 26.0516 52.0175C25.9101 52.966 26.0786 53.949 26.3536 54.8585C26.4516 55.183 26.5651 55.5025 26.6901 55.8175V55.817Z" stroke="#D299A0" stroke-width="0.35" stroke-miterlimit="10"/>
<path d="M25.0846 53.4281C25.0391 53.3666 24.2306 53.4856 24.1421 53.4876C23.4616 53.5046 22.7751 53.4756 22.1041 53.3556C21.4406 53.2371 20.7286 53.0296 20.2256 52.5576C19.8686 52.2231 19.4976 51.5556 19.7186 51.0601C20.1086 50.1871 21.5441 50.6066 22.1906 50.8851C23.0716 51.2641 23.8186 51.9246 24.4471 52.6371C24.6711 52.8911 24.8831 53.1561 25.0851 53.4281H25.0846Z" stroke="#D299A0" stroke-width="0.35" stroke-miterlimit="10"/>
<path d="M23.7141 50.5574C23.6916 50.4844 24.2641 49.9014 24.3181 49.8314C24.7331 49.2919 25.1146 48.7199 25.4136 48.1074C25.7091 47.5019 25.9611 46.8044 25.8771 46.1194C25.8171 45.6339 25.4971 44.9404 24.9666 44.8269C24.0316 44.6269 23.5241 46.0334 23.3676 46.7199C23.1541 47.6549 23.2471 48.6479 23.4516 49.5754C23.5246 49.9064 23.6136 50.2334 23.7141 50.5569V50.5574Z" stroke="#D299A0" stroke-width="0.35" stroke-miterlimit="10"/>
<path d="M22.5451 47.9205C22.5091 47.853 21.6921 47.849 21.6041 47.838C20.9291 47.753 20.2541 47.621 19.6091 47.4015C18.9711 47.185 18.2981 46.8725 17.8716 46.3305C17.5691 45.946 17.3021 45.2305 17.5951 44.774C18.1116 43.9695 19.4676 44.5995 20.0651 44.9715C20.8791 45.4785 21.5186 46.2435 22.0331 47.0425C22.2166 47.3275 22.3866 47.621 22.5451 47.92V47.9205Z" stroke="#D299A0" stroke-width="0.35" stroke-miterlimit="10"/>
<path d="M21.6831 44.2351C21.6741 44.1591 22.3436 43.6906 22.4096 43.6311C22.9161 43.1766 23.3951 42.6836 23.8006 42.1356C24.2016 41.5941 24.5766 40.9541 24.6186 40.2656C24.6481 39.7771 24.4601 39.0371 23.9591 38.8291C23.0761 38.4621 22.3206 39.7526 22.0416 40.3991C21.6616 41.2796 21.5721 42.2726 21.6041 43.2221C21.6156 43.5606 21.6436 43.8986 21.6831 44.2351Z" stroke="#D299A0" stroke-width="0.35" stroke-miterlimit="10"/>
<path d="M21.1081 42.2334C21.0901 42.1594 20.2991 41.9544 20.2161 41.9219C19.5826 41.6734 18.9611 41.3794 18.3896 41.0079C17.8246 40.6409 17.2491 40.1729 16.9686 39.5424C16.7696 39.0954 16.6871 38.3364 17.0836 37.9654C17.7821 37.3124 18.9416 38.2569 19.4291 38.7649C20.0931 39.4564 20.5251 40.3554 20.8271 41.2564C20.9351 41.5774 21.0271 41.9039 21.1076 42.2329L21.1081 42.2334Z" stroke="#D299A0" stroke-width="0.35" stroke-miterlimit="10"/>
<path d="M20.7731 37.8019C20.8146 37.7379 20.4236 37.0204 20.3906 36.9379C20.1391 36.3054 19.9286 35.6509 19.8091 34.9799C19.6906 34.3164 19.6391 33.5764 19.9076 32.9409C20.0981 32.4904 20.5956 31.9109 21.1371 31.9469C22.0911 32.0104 22.1941 33.5024 22.1571 34.2054C22.1061 35.1629 21.7451 36.0924 21.2946 36.9289C21.1336 37.2274 20.9586 37.5174 20.7736 37.8014L20.7731 37.8019Z" stroke="#D299A0" stroke-width="0.35" stroke-miterlimit="10"/>
<g style="mix-blend-mode:multiply">
<path d="M28.2361 58.0528C28.1771 58.0043 27.4211 58.3148 27.3356 58.3383C26.6796 58.5193 26.0061 58.6568 25.3261 58.7023C24.6536 58.7478 23.9126 58.7177 23.3101 58.3817C22.8831 58.1432 22.3616 57.5853 22.4566 57.0513C22.6241 56.1098 24.1181 56.1703 24.8131 56.2843C25.7596 56.4393 26.6441 56.8998 27.4261 57.4393C27.7051 57.6318 27.9746 57.8373 28.2361 58.0528Z" stroke="#B17569" stroke-width="0.35" stroke-linecap="round" stroke-linejoin="round"/>
<path d="M26.6901 55.817C26.6621 55.746 27.1886 55.121 27.2371 55.047C27.6096 54.4775 27.9466 53.878 28.1976 53.2445C28.4461 52.618 28.6441 51.9035 28.5081 51.227C28.4116 50.7475 28.0396 50.0805 27.5016 50.008C26.5541 49.88 26.1551 51.3215 26.0516 52.0175C25.9101 52.966 26.0786 53.949 26.3536 54.8585C26.4516 55.183 26.5651 55.5025 26.6901 55.8175V55.817Z" stroke="#B17569" stroke-width="0.35" stroke-linecap="round" stroke-linejoin="round"/>
<path d="M25.0846 53.4281C25.0391 53.3666 24.2306 53.4856 24.1421 53.4876C23.4616 53.5046 22.7751 53.4756 22.1041 53.3556C21.4406 53.2371 20.7286 53.0296 20.2256 52.5576C19.8686 52.2231 19.4976 51.5556 19.7186 51.0601C20.1086 50.1871 21.5441 50.6066 22.1906 50.8851C23.0716 51.2641 23.8186 51.9246 24.4471 52.6371C24.6711 52.8911 24.8831 53.1561 25.0851 53.4281H25.0846Z" stroke="#B17569" stroke-width="0.35" stroke-linecap="round" stroke-linejoin="round"/>
<path d="M23.7141 50.5574C23.6916 50.4844 24.2641 49.9014 24.3181 49.8314C24.7331 49.2919 25.1146 48.7199 25.4136 48.1074C25.7091 47.5019 25.9611 46.8044 25.8771 46.1194C25.8171 45.6339 25.4971 44.9404 24.9666 44.8269C24.0316 44.6269 23.5241 46.0334 23.3676 46.7199C23.1541 47.6549 23.2471 48.6479 23.4516 49.5754C23.5246 49.9064 23.6136 50.2334 23.7141 50.5569V50.5574Z" stroke="#B17569" stroke-width="0.35" stroke-linecap="round" stroke-linejoin="round"/>
<path d="M22.5451 47.9205C22.5091 47.853 21.6921 47.849 21.6041 47.838C20.9291 47.753 20.2541 47.621 19.6091 47.4015C18.9711 47.185 18.2981 46.8725 17.8716 46.3305C17.5691 45.946 17.3021 45.2305 17.5951 44.774C18.1116 43.9695 19.4676 44.5995 20.0651 44.9715C20.8791 45.4785 21.5186 46.2435 22.0331 47.0425C22.2166 47.3275 22.3866 47.621 22.5451 47.92V47.9205Z" stroke="#B17569" stroke-width="0.35" stroke-linecap="round" stroke-linejoin="round"/>
<path d="M21.6831 44.2351C21.6741 44.1591 22.3436 43.6906 22.4096 43.6311C22.9161 43.1766 23.3951 42.6836 23.8006 42.1356C24.2016 41.5941 24.5766 40.9541 24.6186 40.2656C24.6481 39.7771 24.4601 39.0371 23.9591 38.8291C23.0761 38.4621 22.3206 39.7526 22.0416 40.3991C21.6616 41.2796 21.5721 42.2726 21.6041 43.2221C21.6156 43.5606 21.6436 43.8986 21.6831 44.2351Z" stroke="#B17569" stroke-width="0.35" stroke-linecap="round" stroke-linejoin="round"/>
<path d="M21.1081 42.2334C21.0901 42.1594 20.2991 41.9544 20.2161 41.9219C19.5826 41.6734 18.9611 41.3794 18.3896 41.0079C17.8246 40.6409 17.2491 40.1729 16.9686 39.5424C16.7696 39.0954 16.6871 38.3364 17.0836 37.9654C17.7821 37.3124 18.9416 38.2569 19.4291 38.7649C20.0931 39.4564 20.5251 40.3554 20.8271 41.2564C20.9351 41.5774 21.0271 41.9039 21.1076 42.2329L21.1081 42.2334Z" stroke="#B17569" stroke-width="0.35" stroke-linecap="round" stroke-linejoin="round"/>
<path d="M20.7731 37.8019C20.8146 37.7379 20.4236 37.0204 20.3906 36.9379C20.1391 36.3054 19.9286 35.6509 19.8091 34.9799C19.6906 34.3164 19.6391 33.5764 19.9076 32.9409C20.0981 32.4904 20.5956 31.9109 21.1371 31.9469C22.0911 32.0104 22.1941 33.5024 22.1571 34.2054C22.1061 35.1629 21.7451 36.0924 21.2946 36.9289C21.1336 37.2274 20.9586 37.5174 20.7736 37.8014L20.7731 37.8019Z" stroke="#B17569" stroke-width="0.35" stroke-linecap="round" stroke-linejoin="round"/>
</g>
<path d="M75.0849 51.6551C75.0849 53.5576 74.8685 55.4101 74.4585 57.1881C71.9495 68.0741 62.198 76.1901 50.55 76.1901C37 76.1901 26.015 65.2056 26.015 51.6551C26.015 44.7091 28.9015 38.4371 33.541 33.9736C36.0535 31.5551 39.081 29.6681 42.4425 28.4916C44.9805 27.6031 47.7095 27.1201 50.55 27.1201C50.7985 27.1201 51.046 27.1241 51.293 27.1311C52.519 27.1676 53.722 27.2936 54.896 27.5041C61.3335 28.6546 66.9005 32.3156 70.5485 37.4381C73.4049 41.4486 75.0849 46.3556 75.0849 51.6546V51.6551Z" fill="#B17569"/>
<mask id="mask0_50_489" style="mask-type:luminance" maskUnits="userSpaceOnUse" x="26" y="27" width="50" height="50">
<path d="M75.0849 51.6551C75.0849 53.5576 74.8685 55.4101 74.4585 57.1881C71.9495 68.0741 62.198 76.1901 50.55 76.1901C37 76.1901 26.015 65.2056 26.015 51.6551C26.015 44.7091 28.9015 38.4371 33.541 33.9736C36.0535 31.5551 39.081 29.6681 42.4425 28.4916C44.9805 27.6031 47.7095 27.1201 50.55 27.1201C50.7985 27.1201 51.046 27.1241 51.293 27.1311C52.519 27.1676 53.722 27.2936 54.896 27.5041C61.3335 28.6546 66.9005 32.3156 70.5485 37.4381C73.4049 41.4486 75.0849 46.3556 75.0849 51.6546V51.6551Z" fill="white"/>
</mask>
<g mask="url(#mask0_50_489)">
<path d="M80.0745 56.0542C80.5715 57.5312 77.333 60.4772 75.7525 60.4492C74.9925 60.3582 75.276 59.3662 74.9075 58.8797C74.8135 58.5672 74.3025 58.3027 74.353 57.9622C73.6905 55.1502 73.1715 54.9252 73.7725 52.0222C73.907 50.8357 72.265 49.9632 72.5895 48.9802C72.826 48.4217 72.6205 47.6282 72.01 47.5072C71.768 47.4422 71.6325 47.7027 71.455 47.3377C70.323 46.0647 68.4155 48.0382 67.0365 47.4107C62.6085 44.2057 65.4905 40.3207 68.316 37.3172C68.566 37.8717 69.2855 37.1817 69.765 37.4632C70.671 37.2637 70.0775 37.1827 71.624 37.0767C72.5655 37.0042 71.938 37.0767 72.1315 37.0042C73.8095 36.4222 71.9765 37.7612 73.218 38.2602C73.411 38.6462 73.604 38.3082 73.7975 38.4287C74.461 38.7397 75.614 39.6422 75.753 38.3327C75.753 37.9462 75.8015 38.2117 75.898 38.3087C76.6995 38.6032 78.031 39.0957 78.983 38.8957L79.84 39.5302L79.3155 39.9942L79.589 40.2757C79.6085 40.3467 79.6345 40.4227 79.666 40.5027C80.087 41.5897 81.492 43.4862 82.1705 44.7182C82.317 44.9842 82.4295 45.2187 82.491 45.4077C88.141 44.9347 82.468 48.2787 81.3795 50.8152C82.3255 54.9007 81.761 53.0767 80.076 56.0547L80.0745 56.0542Z" fill="white"/>
<path d="M48.954 70.5965C43.6015 64.4475 49.5745 61.432 41.848 53.745C41.8485 53.745 41.9015 53.322 41.9015 53.322C42.7335 53.018 41.6175 52.5535 42.0865 52.107C44.5325 49.1885 42.115 49.8645 44.041 47.9865C44.652 48.0765 44.5865 47.03 44.8865 47.6165C45.325 48.093 44.9175 48.818 45.3355 48.4885C45.789 47.3935 45.4605 47.4385 46.577 48.0395C46.642 48.1975 48.2585 47.88 48.0825 48.1715C48.0035 48.4355 47.845 48.145 48.2145 48.4355C48.853 49.0505 48.9165 48.618 49.5615 49.175C50.134 49.6685 50.1925 50.002 50.882 50.047C51.981 50.07 52.2865 51.7675 51.542 52.16C51.933 52.074 52.769 51.7235 52.6255 52.2655C52.7135 51.8965 53.718 52.4695 53.893 52.7675C55.6155 52.6655 58.4065 53.949 56.2435 55.7255C55.765 57.007 55.9 58.6255 55.267 59.793C54.9275 60.481 53.1175 60.117 53.1275 60.955C53.237 62.1125 52.0925 65.0445 50.5395 64.045C50.7505 65.151 52.102 64.279 50.6975 65.7625C50.5085 65.99 50.1915 65.592 50.0375 65.7095C49.6345 65.9225 50.341 66.9005 49.4035 66.6075C49.317 66.2625 48.975 66.692 49.219 66.898C49.4225 66.9315 49.608 67.5255 49.5095 67.611C48.4725 69.125 49.6135 68.0535 49.642 68.7995C49.8395 69.505 49.0965 69.824 49.4305 70.4375C49.7835 70.7425 48.9615 70.5935 48.9555 70.596L48.954 70.5965Z" fill="white"/>
<path d="M42.1675 49.1208C40.857 48.1433 41.3085 47.4473 41.217 46.1623C38.102 46.3153 41.972 44.1088 39.8165 44.1288C38.9065 46.0728 36.4575 45.2033 37.4395 43.0723C37.586 41.6833 39.199 40.6468 40.3185 41.3558C40.94 41.4853 40.5455 40.3783 41.8505 40.9598C42.7845 41.0258 42.355 43.4488 43.118 42.4653C43.2815 39.6478 42.565 40.9358 45.231 39.0578C46.0475 37.7128 48.843 35.4968 49.748 35.5708C49.2195 35.8883 49.5625 35.7033 49.457 35.9673C49.3515 36.2313 49.272 36.5748 49.774 36.1783C50.557 35.5113 50.111 35.7868 50.8835 35.6238C51.552 35.4813 51.5785 34.9638 51.095 35.1748C48.407 35.6823 52.0765 34.0633 49.5895 34.5673C47.3605 33.9763 53.8615 34.1708 53.4455 32.7188C52.9175 32.0213 53.1255 32.8673 52.8385 32.4548C52.599 31.7818 52.383 32.2128 52.416 31.5833C53.0505 29.3478 50.905 32.1893 50.884 30.7118C51.03 30.0993 49.852 29.8848 49.4845 29.9718C49.379 30.1303 48.8245 30.6323 48.7185 30.6853C48.613 30.7383 48.4545 30.2363 48.3755 31.0553C48.6885 33.0428 47.3025 31.5488 46.8175 33.4588C46.184 33.6728 45.943 32.9038 46.157 32.5343C47.0475 32.0818 44.7555 32.1983 44.7305 31.9268C42.4985 30.3448 46.8435 29.8303 47.2135 28.9428C47.0735 28.5703 47.4365 28.5998 47.583 28.8363C47.6095 28.9153 47.6095 29.1003 47.7945 28.8888C48.2875 28.2583 49.3635 28.5908 49.67 27.8323C49.745 27.0358 47.6515 28.9963 48.1115 27.7793C47.381 27.6778 48.0365 26.9813 47.6095 27.0133C46.2185 27.2728 47.1195 29.0608 45.0735 28.0698C42.569 27.7483 43.386 28.9483 42.67 28.3078C40.888 27.6923 38.569 27.2558 36.542 28.0703C34.543 28.0538 36.7255 26.6048 32.4745 27.4363C31.7905 27.5003 29.341 27.6578 29.1465 28.2283C29.489 28.4533 29.342 28.7083 29.1465 28.8358C27.66 28.0773 27.2245 29.6453 28.5655 29.0473C29.333 29.0873 27.946 29.8593 27.4825 29.7073C26.531 29.7203 26.047 30.7868 27.06 31.0543C27.468 30.9973 26.654 31.6653 27.2185 31.3448C28.275 31.2613 29.438 30.1903 29.252 30.7108C29.339 31.0303 30.123 30.2283 30.388 30.4203C30.4565 30.5238 32.6125 30.5983 32.554 30.9483C33.5545 31.3648 33.078 32.2678 33.0295 33.0878C33.048 33.5288 33.641 34.7468 32.924 34.6458C32.344 36.2258 29.842 38.2248 31.8415 39.8228C32.6545 40.5943 32.106 42.0678 33.004 42.9128C33.4085 44.0208 32.882 41.5743 32.6075 41.2228C32.216 38.7308 34.31 43.7863 34.6675 44.1018C34.3795 45.4158 36.568 46.3523 37.652 46.1093C38.3495 46.0983 38.8375 47.0793 39.6595 46.9538C40.887 47.4728 40.194 48.6863 42.1685 49.1193L42.1675 49.1208Z" fill="white"/>
<path d="M53.987 22.8691C55.773 22.9411 57.476 21.5616 59.296 22.1161C62.653 22.5586 66.5154 21.9606 69.5969 22.5121C69.6364 22.8296 70.1514 22.5916 69.6364 22.8296C68.2649 23.2971 69.1754 23.8166 68.3289 24.2166C66.3449 24.2791 67.8015 25.0951 66.863 25.8411C65.242 26.0076 63.4289 26.6871 62.1479 27.4261C61.4929 29.3811 59.92 28.7316 59.7705 26.9901C59.731 26.7526 59.3745 26.1981 59.7705 26.2771C61.7035 26.6581 60.336 23.8341 59.2555 23.7016C58.785 23.6416 57.6574 23.4356 58.4229 23.2656C59.3334 23.1966 59.754 23.4731 59.9685 22.9486C59.731 22.9091 60.325 22.5521 59.7705 22.6711C59.216 22.7901 58.582 22.9486 58.4234 22.9881C57.4505 23.0371 56.2925 23.6241 55.769 23.8201C54.828 24.3226 54.975 23.7221 54.4615 23.7011C53.6105 23.6611 53.508 23.2691 53.986 22.8686L53.987 22.8691Z" fill="white"/>
<path d="M51.8705 26.3657C51.6725 26.5637 51.197 26.8412 51.316 26.9602C51.435 27.0792 51.514 27.5147 51.752 27.3962C51.9895 27.2772 51.7125 26.8812 52.6235 27.1982C53.535 27.5152 53.4555 27.1587 53.6535 27.6342C53.9955 28.4912 54.1465 28.6232 53.3365 28.9417C52.202 29.2792 53.7985 29.7602 54.0895 29.9322C55.4515 30.3332 54.1125 29.3137 54.763 29.1792C54.763 29.1792 55.4365 29.6942 55.199 29.1002C54.961 28.5057 54.8025 28.5057 54.961 28.5057C55.398 28.6032 55.4435 28.8367 55.595 28.3867C55.5745 28.0322 55.1865 27.5657 54.9215 27.3567C54.9215 27.3567 55.3575 26.9607 54.763 26.8812C54.1685 26.8022 54.2085 26.8022 53.8915 26.6037C53.437 26.0197 52.0765 26.9732 51.871 26.3657H51.8705Z" fill="white"/>
<path d="M80.099 37.5105C80.018 38.3805 79.5735 38.7715 78.982 38.895L77.385 37.713L71.322 36.1275L69.813 36.569C70.122 36.323 69.8705 35.888 70.2475 35.6515C70.8455 35.5445 70.7485 35.0005 71.2855 34.8305C72.644 35.2805 71.504 34.2625 72.42 34.565C72.8665 35.0705 75.518 36.202 73.6515 36.6175C73.9745 37.074 74.521 36.271 74.545 36.086C74.537 35.589 74.767 36.0475 74.9075 35.917C74.76 35.335 73.593 35.092 73.3135 34.444C72.998 33.593 74.2545 34.594 74.4725 34.8065C74.7535 35.211 75.164 34.9005 75.2455 35.386C75.166 35.7655 76.355 37.689 76.3795 36.545C77.032 36.4825 75.849 35.9505 76.38 35.7C76.574 36.0915 77.4715 35.238 77.37 35.7485C76.7335 37.875 80.0955 36.386 80.099 37.511V37.5105Z" fill="white"/>
</g>
</svg>
