<svg width="100" height="100" viewBox="0 0 100 100" fill="none" xmlns="http://www.w3.org/2000/svg">
<path d="M50 76.8057C57.6983 76.8057 63.939 76.3343 63.939 75.7527C63.939 75.1712 57.6983 74.6997 50 74.6997C42.3017 74.6997 36.061 75.1712 36.061 75.7527C36.061 76.3343 42.3017 76.8057 50 76.8057Z" fill="#E3E4E5"/>
<path d="M65.425 55.5593C65.425 64.0778 58.519 70.9843 50 70.9843C46.5575 70.9843 43.3785 69.8563 40.812 67.9503C40.6815 67.8533 40.5525 67.7548 40.4255 67.6538C38.3575 66.0148 36.7195 63.8558 35.709 61.3753C35.6465 61.2218 35.586 61.0673 35.5285 60.9113C34.9115 59.2438 34.575 57.4408 34.575 55.5593C34.575 47.0403 41.481 40.1343 50 40.1343C58.519 40.1343 65.425 47.0403 65.425 55.5593Z" fill="#B17569"/>
<path d="M56.6725 57.76C57.21 57.9555 57.5865 58.471 57.564 59.062C57.5385 59.7485 56.9905 60.301 56.3135 60.333C56.611 60.5505 56.8195 60.916 56.8045 61.312C56.7835 61.882 56.3505 62.339 55.803 62.409L47.3225 63.9205C46.163 64.1275 45.186 64.864 44.2265 65.502C43.198 66.186 42.1945 66.907 41.219 67.665L40.812 67.9505C40.6815 67.8535 40.5525 67.755 40.4255 67.654C38.3575 66.015 36.7195 63.856 35.709 61.3755L36.287 61.0685C37.19 60.5885 38.0935 60.1085 38.997 59.629C39.7715 59.217 40.548 58.809 41.326 58.403C42.072 58.0135 42.838 57.6575 43.5275 57.169C44.363 56.577 44.783 56.05 45.1055 55.0925C45.4255 54.1415 45.8025 53.2105 46.2135 52.2955C47.0085 50.523 47.9295 48.811 48.814 47.0825C49.1685 46.389 49.2475 45.642 49.1115 44.879C49.058 44.5765 48.9285 44.208 49.09 43.917C49.2685 43.594 49.637 43.6055 49.89 43.8415C50.612 44.5165 51.0215 45.589 50.896 46.5725C50.698 48.127 50.275 49.619 50.2005 51.191C50.1805 51.721 50.594 52.166 51.1235 52.186L55.851 52.363C56.6345 52.398 57.244 53.059 57.2145 53.844C57.191 54.465 56.775 54.9785 56.2145 55.1615C56.271 55.156 56.3285 55.1545 56.387 55.157C57.1175 55.184 57.687 55.7985 57.66 56.529C57.6375 57.1265 57.2225 57.6165 56.6725 57.76Z" fill="white"/>
<path d="M65.0435 37.4127L65.542 40.3212L62.9305 38.9477L60.319 40.3212L60.8175 37.4127L58.7045 35.3532L61.6245 34.9287L62.9305 32.2827L64.2365 34.9287L67.1565 35.3532L65.0435 37.4127Z" fill="#A6A8AB"/>
<path d="M70.251 42.4956L71.557 45.1416L74.477 45.5661L72.364 47.6256L72.863 50.5336L70.251 49.1606L67.6395 50.5336L68.1385 47.6256L66.0255 45.5661L68.9455 45.1416L70.251 42.4956Z" fill="white"/>
<path d="M70.251 42.4956L71.557 45.1416L74.477 45.5661L72.364 47.6256L72.863 50.5336L70.251 49.1606L67.6395 50.5336L68.1385 47.6256L66.0255 45.5661L68.9455 45.1416L70.251 42.4956Z" fill="white"/>
<path d="M70.251 42.4956V49.1606L67.6395 50.5336L68.1385 47.6256L66.0255 45.5661L68.9455 45.1416L70.251 42.4956Z" fill="#A6A8AB"/>
<path d="M37.0695 32.2827L38.3755 34.9287L41.2955 35.3532L39.1825 37.4127L39.681 40.3212L37.0695 38.9477L34.458 40.3212L34.9565 37.4127L32.8435 35.3532L35.7635 34.9287L37.0695 32.2827Z" fill="#A6A8AB"/>
<path d="M37.1335 32.3972L38.3585 34.8797C38.369 34.9007 38.389 34.9152 38.4125 34.9187L41.152 35.3167C41.2105 35.3252 41.234 35.3972 41.1915 35.4387L39.2095 37.3707C39.1925 37.3872 39.185 37.4107 39.189 37.4342L39.657 40.1627C39.667 40.2212 39.6055 40.2657 39.553 40.2382L37.103 38.9502C37.082 38.9392 37.0575 38.9392 37.0365 38.9502L34.5865 40.2382C34.534 40.2657 34.4725 40.2212 34.4825 40.1627L34.9505 37.4342C34.9545 37.4112 34.947 37.3872 34.93 37.3707L32.948 35.4387C32.9055 35.3972 32.929 35.3252 32.9875 35.3167L35.727 34.9187C35.7505 34.9152 35.7705 34.9007 35.781 34.8797L37.006 32.3972C37.032 32.3442 37.108 32.3442 37.1345 32.3972H37.1335Z" stroke="#B17569" stroke-width="0.6" stroke-miterlimit="10"/>
<path d="M62.9945 32.3972L64.2195 34.8797C64.23 34.9007 64.25 34.9152 64.2735 34.9187L67.013 35.3167C67.0715 35.3252 67.095 35.3972 67.0525 35.4387L65.0705 37.3707C65.0535 37.3872 65.046 37.4107 65.05 37.4342L65.518 40.1627C65.528 40.2212 65.4665 40.2657 65.414 40.2382L62.964 38.9502C62.943 38.9392 62.9185 38.9392 62.8975 38.9502L60.4475 40.2382C60.395 40.2657 60.3335 40.2212 60.3435 40.1627L60.8115 37.4342C60.8155 37.4112 60.808 37.3872 60.791 37.3707L58.809 35.4387C58.7665 35.3972 58.79 35.3252 58.8485 35.3167L61.588 34.9187C61.6115 34.9152 61.6315 34.9007 61.642 34.8797L62.867 32.3972C62.893 32.3442 62.969 32.3442 62.9955 32.3972H62.9945Z" stroke="#B17569" stroke-width="0.6" stroke-miterlimit="10"/>
<path d="M70.251 42.4956L71.557 45.1416L74.477 45.5661L72.364 47.6256L72.863 50.5336L70.251 49.1606L67.6395 50.5336L68.1385 47.6256L66.0255 45.5661L68.9455 45.1416L70.251 42.4956Z" stroke="#B17569" stroke-width="0.6" stroke-linecap="round" stroke-linejoin="round"/>
<path d="M29.749 42.4956L31.0545 45.1416L33.9745 45.5661L31.8615 47.6256L32.3605 50.5336L29.749 49.1606L27.137 50.5336L27.636 47.6256L25.523 45.5661L28.443 45.1416L29.749 42.4956Z" fill="#A6A8AB"/>
<path d="M29.813 42.6101L31.038 45.0926C31.0485 45.1136 31.0685 45.1281 31.092 45.1316L33.8315 45.5296C33.89 45.5381 33.9135 45.6101 33.871 45.6516L31.889 47.5836C31.872 47.6001 31.8645 47.6236 31.8685 47.6471L32.3365 50.3756C32.3465 50.4341 32.285 50.4786 32.2325 50.4511L29.7825 49.1631C29.7615 49.1521 29.737 49.1521 29.716 49.1631L27.266 50.4511C27.2135 50.4786 27.152 50.4341 27.162 50.3756L27.63 47.6471C27.634 47.6241 27.6265 47.6001 27.6095 47.5836L25.6275 45.6516C25.585 45.6101 25.6085 45.5381 25.667 45.5296L28.4065 45.1316C28.43 45.1281 28.45 45.1136 28.4605 45.0926L29.6855 42.6101C29.7115 42.5571 29.7875 42.5571 29.814 42.6101H29.813Z" stroke="#B17569" stroke-width="0.6" stroke-miterlimit="10"/>
<path d="M50 28.4131L51.306 31.0591L54.226 31.4831L52.113 33.5426L52.6115 36.4511L50 35.0781L47.3885 36.4511L47.887 33.5426L45.774 31.4831L48.694 31.0591L50 28.4131Z" fill="#A6A8AB"/>
<path d="M50.064 28.5275L51.289 31.01C51.2995 31.031 51.3195 31.0455 51.343 31.049L54.0825 31.447C54.141 31.4555 54.1645 31.5275 54.122 31.569L52.14 33.501C52.123 33.5175 52.1155 33.541 52.1195 33.5645L52.5875 36.293C52.5975 36.3515 52.536 36.396 52.4835 36.3685L50.0335 35.0805C50.0125 35.0695 49.988 35.0695 49.967 35.0805L47.517 36.3685C47.4645 36.396 47.403 36.3515 47.413 36.293L47.881 33.5645C47.885 33.5415 47.8775 33.5175 47.8605 33.501L45.8785 31.569C45.836 31.5275 45.8595 31.4555 45.918 31.447L48.6575 31.049C48.681 31.0455 48.701 31.031 48.7115 31.01L49.9365 28.5275C49.9625 28.4745 50.0385 28.4745 50.065 28.5275H50.064Z" stroke="#B17569" stroke-width="0.6" stroke-miterlimit="10"/>
</svg>
