<svg width="20" height="20" viewBox="0 0 20 20" fill="none" xmlns="http://www.w3.org/2000/svg">
<g clip-path="url(#clip0_108_220)">
<path d="M13.3333 2.77783H6.66667C5.8889 2.77783 5.22223 3.4445 5.22223 4.22228V15.8889C5.22223 16.6667 5.8889 17.3334 6.66667 17.3334H13.3333C14.1111 17.3334 14.7778 16.6667 14.7778 15.8889V4.11117C14.6667 3.4445 14.1111 2.77783 13.3333 2.77783ZM13.5556 4.11117V15.7778C13.5556 15.8889 13.4445 16.0001 13.3333 16.0001H6.66667C6.55556 16.0001 6.44445 15.8889 6.44445 15.7778V4.11117C6.44445 4.00005 6.55556 3.88894 6.66667 3.88894H13.3333C13.4445 3.88894 13.5556 4.00005 13.5556 4.11117Z" fill="black"/>
<path d="M3.88889 15.5556C3.77778 15.5556 3.55556 15.5556 3.55556 15.3334L1.11111 6.88897C1.11111 6.77786 1.11111 6.77786 1.11111 6.66675L1.22222 6.55564L4.22222 5.77786V4.66675L1 5.55564C0.666667 5.66675 0.333333 5.88897 0.222222 6.11119C0 6.44453 0 6.77786 0 7.11119L2.44444 15.6667C2.66667 16.2223 3.22222 16.6667 3.77778 16.6667C3.88889 16.6667 4 16.6667 4.11111 16.5556L4.33333 16.4445V15.3334L3.88889 15.5556Z" fill="black"/>
<path d="M19 5.55564L15.6667 4.66675V5.77786L18.6667 6.55564C18.7778 6.55564 18.7778 6.55564 18.7778 6.66675C18.7778 6.66675 18.7778 6.77786 18.7778 6.88897L16.4445 15.4445C16.4445 15.5556 16.2222 15.6667 16.1111 15.6667L15.6667 15.5556V16.6667L15.7778 16.7779C15.8889 16.7779 16 16.889 16.2222 16.889C16.7778 16.889 17.3334 16.5556 17.5556 15.889L20 7.11119V7.00008C20.1111 6.44453 19.6667 5.77786 19 5.55564Z" fill="black"/>
</g>
<defs>
<clipPath id="clip0_108_220">
<rect width="20" height="20" fill="white"/>
</clipPath>
</defs>
</svg>
