<svg width="100" height="100" viewBox="0 0 100 100" fill="none" xmlns="http://www.w3.org/2000/svg">
<path d="M50 76.8057C69.5365 76.8057 85.374 76.0779 85.374 75.1802C85.374 74.2824 69.5365 73.5547 50 73.5547C30.4635 73.5547 14.626 74.2824 14.626 75.1802C14.626 76.0779 30.4635 76.8057 50 76.8057Z" fill="#E3E4E5"/>
<path d="M52.061 49.4697V73.5547C52.061 74.0847 51.631 74.5152 51.1005 74.5152H22.763C22.2325 74.5152 21.8025 74.0847 21.8025 73.5547V49.4697H52.061Z" fill="#B17569"/>
<path d="M52.061 43.2964V50.9149H21.8025V43.2964C21.8025 42.7654 22.232 42.3354 22.763 42.3354H51.1005C51.6305 42.3354 52.061 42.7654 52.061 43.2964Z" fill="#B17569"/>
<path d="M52.061 49.4697H21.8025V50.9147H52.061V49.4697Z" fill="white"/>
<path d="M38.4695 55.2856H35.4275V58.3276H38.4695V55.2856Z" fill="white"/>
<path d="M43.7005 55.2856H40.6585V58.3276H43.7005V55.2856Z" fill="white"/>
<path d="M33.2385 55.2856H30.1965V58.3276H33.2385V55.2856Z" fill="white"/>
<path d="M27.9905 55.2856H24.9485V58.3276H27.9905V55.2856Z" fill="white"/>
<path d="M48.9315 55.2856H45.8895V58.3276H48.9315V55.2856Z" fill="#A6A8AB"/>
<path d="M48.6315 55.5856V58.0276H46.1895V55.5856H48.6315ZM48.9315 55.2856H45.8895V58.3276H48.9315V55.2856Z" fill="#F0F1F1"/>
<path d="M38.4695 61.2974H35.4275V64.3394H38.4695V61.2974Z" fill="white"/>
<path d="M48.9315 61.2974H45.8895V64.3394H48.9315V61.2974Z" fill="white"/>
<path d="M43.7004 61.2974H40.6584V64.3394H43.7004V61.2974Z" fill="white"/>
<path d="M28.007 61.2974H24.9315V64.3394H28.007V61.2974Z" fill="white"/>
<path d="M33.2384 61.2974H30.1964V64.3394H33.2384V61.2974Z" fill="white"/>
<path d="M38.4695 67.4443H35.4275V70.4863H38.4695V67.4443Z" fill="white"/>
<path d="M43.7004 67.4443H40.6584V70.4863H43.7004V67.4443Z" fill="white"/>
<path d="M48.9315 67.4443H45.8895V70.4863H48.9315V67.4443Z" fill="white"/>
<path d="M28.007 67.4443H24.9315V70.4863H28.007V67.4443Z" fill="white"/>
<path d="M33.2384 67.4443H30.1964V70.4863H33.2384V67.4443Z" fill="white"/>
<path d="M68.219 70.8245C75.0198 70.8245 80.533 70.1968 80.533 69.4225C80.533 68.6482 75.0198 68.0205 68.219 68.0205C61.4182 68.0205 55.905 68.6482 55.905 69.4225C55.905 70.1968 61.4182 70.8245 68.219 70.8245Z" fill="#F0F1F1"/>
<path d="M68.2195 70.8249C61.4185 70.8249 55.9055 70.1969 55.9055 69.4224V73.9614C55.9055 74.2324 56.5835 74.4864 57.7565 74.7009C59.93 75.0989 63.803 75.3634 68.2195 75.3634C72.636 75.3634 76.509 75.0989 78.6825 74.7009C79.8555 74.4859 80.5325 74.2324 80.5325 73.9614V69.4224C80.5325 70.1964 75.02 70.8249 68.2195 70.8249Z" fill="#A6A8AB"/>
<path d="M68.2195 70.8249C61.4185 70.8249 55.9055 70.1969 55.9055 69.4224V73.9614C55.9055 74.2324 56.5835 74.4864 57.7565 74.7009C59.93 75.0989 63.803 75.3634 68.2195 75.3634C72.636 75.3634 76.509 75.0989 78.6825 74.7009C79.8555 74.4859 80.5325 74.2324 80.5325 73.9614V69.4224C80.5325 70.1964 75.02 70.8249 68.2195 70.8249Z" stroke="#B17569" stroke-width="0.45" stroke-miterlimit="10"/>
<path d="M68.219 70.8245C75.0198 70.8245 80.533 70.1968 80.533 69.4225C80.533 68.6482 75.0198 68.0205 68.219 68.0205C61.4182 68.0205 55.905 68.6482 55.905 69.4225C55.905 70.1968 61.4182 70.8245 68.219 70.8245Z" stroke="#B17569" stroke-width="0.45" stroke-miterlimit="10"/>
<path d="M57.2595 74.601V70.062" stroke="#B17569" stroke-width="0.45" stroke-miterlimit="10"/>
<path d="M58.477 74.8183V70.2793" stroke="#B17569" stroke-width="0.45" stroke-miterlimit="10"/>
<path d="M59.6949 74.9726V70.4346" stroke="#B17569" stroke-width="0.45" stroke-miterlimit="10"/>
<path d="M60.9124 75.0898V70.5518" stroke="#B17569" stroke-width="0.45" stroke-miterlimit="10"/>
<path d="M62.1306 75.1806V70.6416" stroke="#B17569" stroke-width="0.45" stroke-miterlimit="10"/>
<path d="M63.3485 75.2495V70.7104" stroke="#B17569" stroke-width="0.45" stroke-miterlimit="10"/>
<path d="M65.784 75.3359V70.7969" stroke="#B17569" stroke-width="0.45" stroke-miterlimit="10"/>
<path d="M68.2195 75.3637V70.8247" stroke="#B17569" stroke-width="0.45" stroke-miterlimit="10"/>
<path d="M64.5659 75.3007V70.7612" stroke="#B17569" stroke-width="0.45" stroke-miterlimit="10"/>
<path d="M67.0015 75.3559V70.8169" stroke="#B17569" stroke-width="0.45" stroke-miterlimit="10"/>
<path d="M69.437 75.3559V70.8169" stroke="#B17569" stroke-width="0.45" stroke-miterlimit="10"/>
<path d="M70.655 75.3359V70.7969" stroke="#B17569" stroke-width="0.45" stroke-miterlimit="10"/>
<path d="M71.8725 75.3007V70.7612" stroke="#B17569" stroke-width="0.45" stroke-miterlimit="10"/>
<path d="M73.0905 75.2495V70.7104" stroke="#B17569" stroke-width="0.45" stroke-miterlimit="10"/>
<path d="M74.308 75.1806V70.6416" stroke="#B17569" stroke-width="0.45" stroke-miterlimit="10"/>
<path d="M75.5259 75.0898V70.5518" stroke="#B17569" stroke-width="0.45" stroke-miterlimit="10"/>
<path d="M76.7435 74.9726V70.4346" stroke="#B17569" stroke-width="0.45" stroke-miterlimit="10"/>
<path d="M77.9615 74.8183V70.2793" stroke="#B17569" stroke-width="0.45" stroke-miterlimit="10"/>
<path d="M79.179 74.601V70.062" stroke="#B17569" stroke-width="0.45" stroke-miterlimit="10"/>
<path d="M68.219 65.1883C75.0198 65.1883 80.533 64.5606 80.533 63.7863C80.533 63.012 75.0198 62.3843 68.219 62.3843C61.4182 62.3843 55.905 63.012 55.905 63.7863C55.905 64.5606 61.4182 65.1883 68.219 65.1883Z" fill="#F0F1F1"/>
<path d="M68.2195 65.1886C61.4185 65.1886 55.9055 64.5606 55.9055 63.7861V68.3251C55.9055 68.5961 56.5835 68.8501 57.7565 69.0646C59.93 69.4626 63.803 69.7271 68.2195 69.7271C72.636 69.7271 76.509 69.4626 78.6825 69.0646C79.8555 68.8496 80.5325 68.5961 80.5325 68.3251V63.7861C80.5325 64.5601 75.02 65.1886 68.2195 65.1886Z" fill="#A6A8AB"/>
<path d="M68.2195 65.1886C61.4185 65.1886 55.9055 64.5606 55.9055 63.7861V68.3251C55.9055 68.5961 56.5835 68.8501 57.7565 69.0646C59.93 69.4626 63.803 69.7271 68.2195 69.7271C72.636 69.7271 76.509 69.4626 78.6825 69.0646C79.8555 68.8496 80.5325 68.5961 80.5325 68.3251V63.7861C80.5325 64.5601 75.02 65.1886 68.2195 65.1886Z" stroke="#B17569" stroke-width="0.45" stroke-miterlimit="10"/>
<path d="M68.219 65.1883C75.0198 65.1883 80.533 64.5606 80.533 63.7863C80.533 63.012 75.0198 62.3843 68.219 62.3843C61.4182 62.3843 55.905 63.012 55.905 63.7863C55.905 64.5606 61.4182 65.1883 68.219 65.1883Z" stroke="#B17569" stroke-width="0.45" stroke-miterlimit="10"/>
<path d="M57.2595 68.9657V64.4272" stroke="#B17569" stroke-width="0.45" stroke-miterlimit="10"/>
<path d="M58.477 69.1835V64.6445" stroke="#B17569" stroke-width="0.45" stroke-miterlimit="10"/>
<path d="M59.6949 69.3373V64.7993" stroke="#B17569" stroke-width="0.45" stroke-miterlimit="10"/>
<path d="M60.9125 69.4545V64.9165" stroke="#B17569" stroke-width="0.45" stroke-miterlimit="10"/>
<path d="M62.1305 69.5449V65.0059" stroke="#B17569" stroke-width="0.45" stroke-miterlimit="10"/>
<path d="M63.3484 69.6142V65.0752" stroke="#B17569" stroke-width="0.45" stroke-miterlimit="10"/>
<path d="M65.784 69.7011V65.1621" stroke="#B17569" stroke-width="0.45" stroke-miterlimit="10"/>
<path d="M68.2196 69.728V65.189" stroke="#B17569" stroke-width="0.45" stroke-miterlimit="10"/>
<path d="M64.566 69.6655V65.1255" stroke="#B17569" stroke-width="0.45" stroke-miterlimit="10"/>
<path d="M67.0015 69.7211V65.1821" stroke="#B17569" stroke-width="0.45" stroke-miterlimit="10"/>
<path d="M69.437 69.7211V65.1821" stroke="#B17569" stroke-width="0.45" stroke-miterlimit="10"/>
<path d="M70.655 69.7011V65.1621" stroke="#B17569" stroke-width="0.45" stroke-miterlimit="10"/>
<path d="M71.8725 69.6655V65.1255" stroke="#B17569" stroke-width="0.45" stroke-miterlimit="10"/>
<path d="M73.0905 69.6142V65.0752" stroke="#B17569" stroke-width="0.45" stroke-miterlimit="10"/>
<path d="M74.308 69.5449V65.0059" stroke="#B17569" stroke-width="0.45" stroke-miterlimit="10"/>
<path d="M75.526 69.4545V64.9165" stroke="#B17569" stroke-width="0.45" stroke-miterlimit="10"/>
<path d="M76.7434 69.3373V64.7993" stroke="#B17569" stroke-width="0.45" stroke-miterlimit="10"/>
<path d="M77.9615 69.1835V64.6445" stroke="#B17569" stroke-width="0.45" stroke-miterlimit="10"/>
<path d="M79.179 68.9657V64.4272" stroke="#B17569" stroke-width="0.45" stroke-miterlimit="10"/>
<path d="M68.2185 59.6106C75.0193 59.6106 80.5325 58.9829 80.5325 58.2086C80.5325 57.4343 75.0193 56.8066 68.2185 56.8066C61.4177 56.8066 55.9045 57.4343 55.9045 58.2086C55.9045 58.9829 61.4177 59.6106 68.2185 59.6106Z" fill="#F0F1F1"/>
<path d="M68.219 59.611C61.418 59.611 55.905 58.983 55.905 58.2085V62.7475C55.905 63.0185 56.583 63.2725 57.756 63.487C59.9295 63.885 63.8025 64.1495 68.219 64.1495C72.6355 64.1495 76.5085 63.885 78.682 63.487C79.855 63.272 80.532 63.0185 80.532 62.7475V58.2085C80.532 58.9825 75.0195 59.611 68.219 59.611Z" fill="#A6A8AB"/>
<path d="M68.219 59.611C61.418 59.611 55.905 58.983 55.905 58.2085V62.7475C55.905 63.0185 56.583 63.2725 57.756 63.487C59.9295 63.885 63.8025 64.1495 68.219 64.1495C72.6355 64.1495 76.5085 63.885 78.682 63.487C79.855 63.272 80.532 63.0185 80.532 62.7475V58.2085C80.532 58.9825 75.0195 59.611 68.219 59.611Z" stroke="#B17569" stroke-width="0.45" stroke-miterlimit="10"/>
<path d="M68.2185 59.6106C75.0193 59.6106 80.5325 58.9829 80.5325 58.2086C80.5325 57.4343 75.0193 56.8066 68.2185 56.8066C61.4177 56.8066 55.9045 57.4343 55.9045 58.2086C55.9045 58.9829 61.4177 59.6106 68.2185 59.6106Z" stroke="#B17569" stroke-width="0.45" stroke-miterlimit="10"/>
<path d="M57.2591 63.3871V58.8481" stroke="#B17569" stroke-width="0.45" stroke-miterlimit="10"/>
<path d="M58.4771 63.6044V59.0654" stroke="#B17569" stroke-width="0.45" stroke-miterlimit="10"/>
<path d="M59.6945 63.7587V59.2207" stroke="#B17569" stroke-width="0.45" stroke-miterlimit="10"/>
<path d="M60.9126 63.8759V59.3379" stroke="#B17569" stroke-width="0.45" stroke-miterlimit="10"/>
<path d="M62.1301 63.9667V59.4277" stroke="#B17569" stroke-width="0.45" stroke-miterlimit="10"/>
<path d="M63.3481 64.0356V59.4966" stroke="#B17569" stroke-width="0.45" stroke-miterlimit="10"/>
<path d="M65.7836 64.122V59.583" stroke="#B17569" stroke-width="0.45" stroke-miterlimit="10"/>
<path d="M68.2191 64.1493V59.6108" stroke="#B17569" stroke-width="0.45" stroke-miterlimit="10"/>
<path d="M64.5656 64.0869V59.5474" stroke="#B17569" stroke-width="0.45" stroke-miterlimit="10"/>
<path d="M67.0011 64.142V59.603" stroke="#B17569" stroke-width="0.45" stroke-miterlimit="10"/>
<path d="M69.4366 64.142V59.603" stroke="#B17569" stroke-width="0.45" stroke-miterlimit="10"/>
<path d="M70.6546 64.122V59.583" stroke="#B17569" stroke-width="0.45" stroke-miterlimit="10"/>
<path d="M71.8721 64.0869V59.5474" stroke="#B17569" stroke-width="0.45" stroke-miterlimit="10"/>
<path d="M73.0901 64.0356V59.4966" stroke="#B17569" stroke-width="0.45" stroke-miterlimit="10"/>
<path d="M74.3076 63.9667V59.4277" stroke="#B17569" stroke-width="0.45" stroke-miterlimit="10"/>
<path d="M75.5256 63.8759V59.3379" stroke="#B17569" stroke-width="0.45" stroke-miterlimit="10"/>
<path d="M76.7431 63.7587V59.2207" stroke="#B17569" stroke-width="0.45" stroke-miterlimit="10"/>
<path d="M77.9611 63.6044V59.0654" stroke="#B17569" stroke-width="0.45" stroke-miterlimit="10"/>
<path d="M79.1786 63.3871V58.8481" stroke="#B17569" stroke-width="0.45" stroke-miterlimit="10"/>
<path d="M74.031 59.4283C74.097 59.4703 74.1305 59.4983 74.169 59.5143C74.4545 59.6343 74.7495 59.7353 75.0255 59.8743C75.476 60.1013 75.7675 60.4783 75.943 60.9468C76.021 61.1553 76.0895 61.3678 76.169 61.5758C76.1825 61.6118 76.2275 61.6363 76.258 61.6658C76.286 61.6363 76.3255 61.6118 76.34 61.5768C76.4485 61.3178 76.537 61.0498 76.66 60.7978C76.9115 60.2823 77.3275 59.9488 77.8695 59.7678C78.0575 59.7048 78.2455 59.6408 78.431 59.5713C78.464 59.5588 78.498 59.5203 78.5075 59.4868C78.5125 59.4703 78.4675 59.4268 78.4375 59.4148C78.246 59.3373 78.0525 59.2653 77.86 59.1913C77.2515 58.9578 76.8295 58.5418 76.6135 57.9218C76.544 57.7228 76.472 57.5248 76.396 57.3283C76.384 57.2968 76.336 57.2488 76.323 57.2543C76.286 57.2693 76.245 57.3018 76.2305 57.3378C76.1305 57.5778 76.041 57.8223 75.9405 58.0623C75.765 58.4813 75.4665 58.7963 75.064 58.9938C74.7795 59.1333 74.4715 59.2253 74.175 59.3408C74.134 59.3568 74.098 59.3868 74.0325 59.4278L74.031 59.4283Z" fill="white"/>
<path d="M55.9045 64.1681C55.9705 64.2101 56.004 64.2381 56.0425 64.2541C56.328 64.3741 56.623 64.4751 56.899 64.6141C57.3495 64.8411 57.641 65.2181 57.8165 65.6866C57.8945 65.8951 57.963 66.1076 58.0425 66.3156C58.056 66.3516 58.101 66.3761 58.1315 66.4056C58.1595 66.3761 58.199 66.3516 58.2135 66.3166C58.322 66.0576 58.4105 65.7896 58.5335 65.5376C58.785 65.0221 59.201 64.6886 59.743 64.5076C59.931 64.4446 60.119 64.3806 60.3045 64.3111C60.3375 64.2986 60.3715 64.2601 60.381 64.2266C60.386 64.2101 60.341 64.1666 60.311 64.1546C60.1195 64.0771 59.926 64.0051 59.7335 63.9311C59.125 63.6976 58.703 63.2816 58.487 62.6616C58.4175 62.4626 58.3455 62.2646 58.2695 62.0681C58.2575 62.0366 58.2095 61.9886 58.1965 61.9941C58.1595 62.0091 58.1185 62.0416 58.104 62.0776C58.004 62.3176 57.9145 62.5621 57.814 62.8021C57.6385 63.2211 57.34 63.5361 56.9375 63.7336C56.653 63.8731 56.345 63.9651 56.0485 64.0806C56.0075 64.0966 55.9715 64.1266 55.906 64.1676L55.9045 64.1681Z" fill="white"/>
<path d="M74.9415 69.7965C75.0075 69.8385 75.041 69.8665 75.0795 69.8825C75.365 70.0025 75.66 70.1035 75.936 70.2425C76.3865 70.4695 76.678 70.8465 76.8535 71.315C76.9315 71.5235 77 71.736 77.0795 71.944C77.093 71.98 77.138 72.0045 77.1685 72.034C77.1965 72.0045 77.236 71.98 77.2505 71.945C77.359 71.686 77.4475 71.418 77.5705 71.166C77.822 70.6505 78.238 70.317 78.78 70.136C78.968 70.073 79.156 70.009 79.3415 69.9395C79.3745 69.927 79.4085 69.8885 79.418 69.855C79.423 69.8385 79.378 69.795 79.348 69.783C79.1565 69.7055 78.963 69.6335 78.7705 69.5595C78.162 69.326 77.74 68.91 77.524 68.29C77.4545 68.091 77.3825 67.893 77.3065 67.6965C77.2945 67.665 77.2465 67.617 77.2335 67.6225C77.1965 67.6375 77.1555 67.67 77.141 67.706C77.041 67.946 76.9515 68.1905 76.851 68.4305C76.6755 68.8495 76.377 69.1645 75.9745 69.362C75.69 69.5015 75.382 69.5935 75.0855 69.709C75.0445 69.725 75.0085 69.755 74.943 69.796L74.9415 69.7965Z" fill="white"/>
<path d="M26.427 47.4722C27.3245 47.4722 28.052 46.7446 28.052 45.8472C28.052 44.9497 27.3245 44.2222 26.427 44.2222C25.5295 44.2222 24.802 44.9497 24.802 45.8472C24.802 46.7446 25.5295 47.4722 26.427 47.4722Z" fill="white"/>
<path d="M33.43 47.4722C34.3275 47.4722 35.055 46.7446 35.055 45.8472C35.055 44.9497 34.3275 44.2222 33.43 44.2222C32.5325 44.2222 31.805 44.9497 31.805 45.8472C31.805 46.7446 32.5325 47.4722 33.43 47.4722Z" fill="white"/>
<path d="M47.436 47.4722C48.3335 47.4722 49.061 46.7446 49.061 45.8472C49.061 44.9497 48.3335 44.2222 47.436 44.2222C46.5385 44.2222 45.811 44.9497 45.811 45.8472C45.811 46.7446 46.5385 47.4722 47.436 47.4722Z" fill="white"/>
<path d="M40.433 47.4722C41.3305 47.4722 42.058 46.7446 42.058 45.8472C42.058 44.9497 41.3305 44.2222 40.433 44.2222C39.5356 44.2222 38.808 44.9497 38.808 45.8472C38.808 46.7446 39.5356 47.4722 40.433 47.4722Z" fill="white"/>
<path d="M26.427 40.4917V46.0237" stroke="#B17569" stroke-linecap="round" stroke-linejoin="round"/>
<path d="M33.43 40.4917V46.0237" stroke="#B17569" stroke-linecap="round" stroke-linejoin="round"/>
<path d="M40.433 40.4917V46.0237" stroke="#B17569" stroke-linecap="round" stroke-linejoin="round"/>
<path d="M47.436 40.4917V46.0237" stroke="#B17569" stroke-linecap="round" stroke-linejoin="round"/>
</svg>
