<svg width="100" height="100" viewBox="0 0 100 100" fill="none" xmlns="http://www.w3.org/2000/svg">
<path d="M50 78.3061C64.6723 78.3061 76.5665 77.1497 76.5665 75.7231C76.5665 74.2966 64.6723 73.1401 50 73.1401C35.3277 73.1401 23.4335 74.2966 23.4335 75.7231C23.4335 77.1497 35.3277 78.3061 50 78.3061Z" fill="#E3E4E5"/>
<path d="M69.09 29.0813L69.108 28.7783L68.962 28.6433L62.634 22.7703H39.2675L32.8215 28.7523L32.7985 28.7733C32.698 27.8583 32.5905 26.9003 32.535 26.4638L38.381 21.3088L38.5225 21.1843L38.5935 21.1218L38.6565 21.0663L38.834 20.9093L39.078 20.6943H62.823L62.8915 20.7548L63.099 20.9373L63.188 21.0158L63.2595 21.0788L63.3685 21.1748L69.378 26.4743L69.09 29.0818V29.0813Z" fill="#B17569"/>
<path d="M69.1085 28.7785L67.813 50.6595L62.634 55.0615H39.2675L34.0885 50.6595L32.7935 28.7785L32.8215 28.752L39.2675 22.7705H62.634L68.9625 28.6435L69.1085 28.7785Z" fill="#E3E4E5"/>
<path d="M68.962 28.6435L62.6335 22.7705H39.267L32.8215 28.7525L32.7935 28.7785L34.0885 50.6595L39.2675 55.0615H62.634L67.813 50.6595L69.1085 28.7785L68.9625 28.6435H68.962ZM65.365 49.634L61.7095 52.7665H40.192L36.5365 49.634L35.375 29.851L40.255 25.286H61.647L66.527 29.8515L65.3655 49.634H65.365Z" fill="white"/>
<path d="M62.4965 23.1205L68.725 28.901L68.749 28.9235L67.472 50.49L62.505 54.712H39.396L34.429 50.49L33.1525 28.923L39.4045 23.121H62.496M62.6335 22.771H39.267L32.8215 28.753L32.7935 28.779L34.0885 50.66L39.2675 55.062H62.634L67.813 50.66L69.1085 28.779L68.9625 28.644L62.634 22.771H62.6335Z" fill="#E3E4E5"/>
<path d="M50.9505 25.8535C51.6453 25.8535 52.2085 25.6486 52.2085 25.396C52.2085 25.1433 51.6453 24.9385 50.9505 24.9385C50.2557 24.9385 49.6925 25.1433 49.6925 25.396C49.6925 25.6486 50.2557 25.8535 50.9505 25.8535Z" fill="#B17569"/>
<path d="M71.8205 58.7065V63.282L65.5595 66.408H36.161L30.081 63.372V58.7965L36.161 61.833H65.5595L71.8205 58.7065Z" fill="#E3E4E5"/>
<path d="M30.0805 58.519L36.2395 53.686H39.8135H50.906H50.9955H62.0875H65.662L71.8205 58.519V58.7065L65.56 61.833H65.4815H65.161H51.481H36.3115H36.2395H36.161L30.0805 58.7965V58.519Z" fill="white"/>
<path d="M65.541 54.036L71.3155 58.5675L65.4775 61.4826H36.2435L30.516 58.6225L36.3605 54.036H65.541ZM65.662 53.686H36.2395L30.0805 58.519V58.7966L36.161 61.8326H65.5595L71.8205 58.706V58.5185L65.6615 53.6855L65.662 53.686Z" fill="#E3E4E5"/>
<path d="M62.6339 22.77H62.3089L62.8154 22.9385L62.6339 22.77Z" fill="#B17569"/>
<path d="M71.8204 60.9321V74.1621L66.1679 76.9846L65.5599 77.2881H36.1609L35.6064 77.0116L30.0804 74.2521V61.0226L35.6064 63.7821L36.1609 64.0586H65.5599L66.1679 63.7551L71.8204 60.9321Z" fill="#B17569"/>
<path d="M71.8205 60.9321V74.1621L66.3295 76.9041L66.168 76.9846L65.56 77.2886H36.161L35.6065 77.0116L35.5985 77.0071L30.081 74.2521V61.0221L35.5985 63.7781L35.6065 63.7821L36.161 64.0586H65.56L66.168 63.7551L66.3295 63.6746L71.8205 60.9321Z" fill="#B17569"/>
<path d="M62.7225 57.8828C62.2975 55.1948 60.9745 52.8063 59.0695 51.0333C58.9995 50.9683 58.929 50.9043 58.858 50.8408C58.5015 50.5243 58.126 50.2288 57.733 49.9568C57.615 49.8753 57.4955 49.7958 57.375 49.7178C57.2945 49.6663 57.2135 49.6153 57.131 49.5658C57.0495 49.5158 56.9665 49.4668 56.8835 49.4193C56.759 49.3473 56.6325 49.2778 56.505 49.2108C56.42 49.1658 56.3345 49.1218 56.2485 49.0793C56.1625 49.0363 56.075 48.9948 55.988 48.9538C55.9005 48.9128 55.8125 48.8733 55.724 48.8343C55.6795 48.8148 55.635 48.7953 55.591 48.7773C55.5015 48.7393 55.412 48.7028 55.3215 48.6673C55.2765 48.6493 55.231 48.6323 55.186 48.6148C55.095 48.5808 55.0045 48.5468 54.9125 48.5148C54.7745 48.4663 54.636 48.4198 54.4955 48.3763C54.4025 48.3473 54.309 48.3193 54.2145 48.2928C54.1675 48.2793 54.12 48.2663 54.0725 48.2533C53.978 48.2278 53.8825 48.2033 53.787 48.1798C53.6915 48.1563 53.5955 48.1343 53.4985 48.1133C53.402 48.0923 53.305 48.0723 53.2075 48.0538C52.477 47.9138 51.7225 47.8403 50.951 47.8403C50.1795 47.8403 49.4255 47.9138 48.6945 48.0538C48.597 48.0728 48.5 48.0928 48.403 48.1133C48.3065 48.1343 48.2105 48.1563 48.1145 48.1798C48.019 48.2033 47.9235 48.2278 47.8295 48.2533C47.782 48.2663 47.7345 48.2793 47.6875 48.2928C47.593 48.3193 47.499 48.3473 47.406 48.3763C47.266 48.4198 47.1275 48.4663 46.9895 48.5148C46.8975 48.5468 46.8065 48.5808 46.7155 48.6148C46.67 48.6323 46.625 48.6493 46.58 48.6673C46.4895 48.7028 46.4005 48.7398 46.311 48.7773C46.2665 48.7958 46.222 48.8153 46.178 48.8343C46.089 48.8733 46.0015 48.9128 45.9135 48.9538C45.826 48.9948 45.7395 49.0363 45.6535 49.0793C45.5675 49.1223 45.4815 49.1658 45.3965 49.2108C45.269 49.2783 45.143 49.3473 45.018 49.4193C44.935 49.4668 44.852 49.5158 44.7705 49.5658C44.6885 49.6153 44.607 49.6663 44.5265 49.7178C44.4055 49.7953 44.286 49.8748 44.1685 49.9568C43.7755 50.2293 43.4 50.5248 43.0435 50.8408C42.972 50.9043 42.9015 50.9683 42.8315 51.0333C40.9275 52.8063 39.6035 55.1948 39.1785 57.8828H41.138C41.981 53.4488 45.7545 50.0533 50.3675 49.7873C50.5605 49.7763 50.755 49.7703 50.9505 49.7703C54.0105 49.7703 56.7495 51.1463 58.5815 53.3133C58.6215 53.3608 58.661 53.4083 58.7 53.4568C58.7365 53.5018 58.773 53.5468 58.809 53.5923C58.9075 53.7178 59.0035 53.8458 59.0965 53.9763C59.1565 54.0613 59.216 54.1473 59.2735 54.2338C59.2915 54.2598 59.3085 54.2863 59.326 54.3133C59.3525 54.3543 59.379 54.3953 59.405 54.4368C59.6275 54.7893 59.8285 55.1568 60.006 55.5373C60.04 55.6108 60.074 55.6848 60.106 55.7588C60.1385 55.8328 60.1705 55.9078 60.201 55.9828C60.37 56.3963 60.5115 56.8233 60.625 57.2618C60.6455 57.3418 60.665 57.4218 60.6835 57.5028C60.712 57.6283 60.739 57.7548 60.763 57.8818" fill="white"/>
<path d="M58.0215 52.4733C57.8765 52.3548 57.729 52.2403 57.58 52.1288C56.7285 51.3653 55.7455 50.7453 54.6695 50.3073C54.4615 50.2363 54.252 50.1728 54.0415 50.1153C52.8315 49.7868 51.5875 49.6803 50.368 49.7873C47.492 50.0393 44.7575 51.4808 42.962 53.9963C42.1025 55.1908 41.5415 56.5148 41.2655 57.8828H40.464C41.064 53.5073 44.53 49.8843 48.9675 49.1878C51.3775 48.7923 53.939 49.3038 55.971 50.6468C56.111 50.7298 56.255 50.8423 56.386 50.9343L56.4885 51.0083L56.5385 51.0453L56.588 51.0853C57.118 51.4968 57.602 51.9623 58.022 52.4738L58.0215 52.4733Z" fill="#A6A8AB"/>
<path d="M62.7225 57.8828C62.2975 55.1948 60.9745 52.8063 59.0695 51.0333C58.9995 50.9683 58.929 50.9043 58.858 50.8408C58.5015 50.5243 58.126 50.2288 57.733 49.9568C57.615 49.8753 57.4955 49.7958 57.375 49.7178C57.2945 49.6663 57.2135 49.6153 57.131 49.5658C57.0495 49.5158 56.9665 49.4668 56.8835 49.4193C56.759 49.3473 56.6325 49.2778 56.505 49.2108C56.42 49.1658 56.3345 49.1218 56.2485 49.0793C56.1625 49.0368 56.075 48.9948 55.988 48.9538C55.9005 48.9128 55.8125 48.8733 55.724 48.8343C55.6795 48.8148 55.635 48.7953 55.591 48.7773C55.5015 48.7393 55.412 48.7028 55.3215 48.6673C55.2765 48.6493 55.231 48.6323 55.186 48.6148C55.095 48.5803 55.0045 48.5468 54.9125 48.5148C54.7745 48.4663 54.636 48.4198 54.4955 48.3763C54.4025 48.3473 54.309 48.3193 54.2145 48.2928C54.1675 48.2793 54.12 48.2663 54.0725 48.2533C53.978 48.2278 53.8825 48.2033 53.787 48.1798C53.6915 48.1563 53.5955 48.1343 53.4985 48.1133C53.402 48.0918 53.305 48.0718 53.2075 48.0538C52.477 47.9138 51.7225 47.8403 50.951 47.8403C50.1795 47.8403 49.4255 47.9138 48.6945 48.0538C48.597 48.0723 48.5 48.0923 48.403 48.1133C48.3065 48.1343 48.2105 48.1563 48.1145 48.1798C48.019 48.2033 47.9235 48.2278 47.8295 48.2533C47.782 48.2663 47.7345 48.2793 47.6875 48.2928C47.593 48.3193 47.499 48.3473 47.406 48.3763C47.266 48.4198 47.1275 48.4663 46.9895 48.5148C46.8975 48.5468 46.8065 48.5803 46.7155 48.6148C46.67 48.6323 46.625 48.6493 46.58 48.6673C46.4895 48.7028 46.4005 48.7398 46.311 48.7773C46.2665 48.7958 46.222 48.8153 46.178 48.8343C46.089 48.8733 46.0015 48.9128 45.9135 48.9538C45.826 48.9948 45.7395 49.0363 45.6535 49.0793C45.5675 49.1223 45.4815 49.1658 45.3965 49.2108C45.269 49.2783 45.143 49.3473 45.018 49.4193C44.935 49.4668 44.852 49.5158 44.7705 49.5658C44.6885 49.6153 44.607 49.6663 44.5265 49.7178C44.4055 49.7953 44.286 49.8748 44.1685 49.9568C43.7755 50.2293 43.4 50.5248 43.0435 50.8408C42.972 50.9043 42.9015 50.9683 42.8315 51.0333C40.9275 52.8063 39.6035 55.1948 39.1785 57.8828" stroke="#D299A0" stroke-width="0.35" stroke-miterlimit="10"/>
<path d="M60.764 57.883C60.74 57.756 60.713 57.6295 60.6845 57.504C60.6655 57.4235 60.646 57.3435 60.626 57.263C60.5125 56.824 60.371 56.397 60.202 55.984C60.1715 55.909 60.14 55.834 60.107 55.76C60.075 55.686 60.041 55.612 60.007 55.5385C59.8295 55.158 59.6285 54.7905 59.406 54.438C59.38 54.3965 59.3535 54.3555 59.327 54.3145C59.3095 54.2875 59.2925 54.261 59.2745 54.235C59.217 54.1485 59.1575 54.0625 59.0975 53.9775C59.0045 53.847 58.9085 53.719 58.81 53.5935C58.774 53.5475 58.7375 53.5025 58.701 53.458C58.662 53.4095 58.6225 53.362 58.5825 53.3145C56.75 51.1475 54.0115 49.7715 50.9515 49.7715C50.7555 49.7715 50.561 49.777 50.3685 49.7885C45.7555 50.0545 41.9815 53.45 41.139 57.884" stroke="#D299A0" stroke-width="0.35" stroke-miterlimit="10"/>
<path d="M62.7225 57.8828C62.2975 55.1948 60.9745 52.8063 59.0695 51.0333C58.9995 50.9683 58.929 50.9043 58.858 50.8408C58.5015 50.5243 58.126 50.2288 57.733 49.9568C57.615 49.8753 57.4955 49.7958 57.375 49.7178C57.2945 49.6663 57.2135 49.6153 57.131 49.5658C57.0495 49.5158 56.9665 49.4668 56.8835 49.4193C56.759 49.3473 56.6325 49.2778 56.505 49.2108C56.42 49.1658 56.3345 49.1218 56.2485 49.0793C56.1625 49.0368 56.075 48.9948 55.988 48.9538C55.9005 48.9128 55.8125 48.8733 55.724 48.8343C55.6795 48.8148 55.635 48.7953 55.591 48.7773C55.5015 48.7393 55.412 48.7028 55.3215 48.6673C55.2765 48.6493 55.231 48.6323 55.186 48.6148C55.095 48.5803 55.0045 48.5468 54.9125 48.5148C54.7745 48.4663 54.636 48.4198 54.4955 48.3763C54.4025 48.3473 54.309 48.3193 54.2145 48.2928C54.1675 48.2793 54.12 48.2663 54.0725 48.2533C53.978 48.2278 53.8825 48.2033 53.787 48.1798C53.6915 48.1563 53.5955 48.1343 53.4985 48.1133C53.402 48.0918 53.305 48.0718 53.2075 48.0538C52.477 47.9138 51.7225 47.8403 50.951 47.8403C50.1795 47.8403 49.4255 47.9138 48.6945 48.0538C48.597 48.0723 48.5 48.0923 48.403 48.1133C48.3065 48.1343 48.2105 48.1563 48.1145 48.1798C48.019 48.2033 47.9235 48.2278 47.8295 48.2533C47.782 48.2663 47.7345 48.2793 47.6875 48.2928C47.593 48.3193 47.499 48.3473 47.406 48.3763C47.266 48.4198 47.1275 48.4663 46.9895 48.5148C46.8975 48.5468 46.8065 48.5803 46.7155 48.6148C46.67 48.6323 46.625 48.6493 46.58 48.6673C46.4895 48.7028 46.4005 48.7398 46.311 48.7773C46.2665 48.7958 46.222 48.8153 46.178 48.8343C46.089 48.8733 46.0015 48.9128 45.9135 48.9538C45.826 48.9948 45.7395 49.0363 45.6535 49.0793C45.5675 49.1223 45.4815 49.1658 45.3965 49.2108C45.269 49.2783 45.143 49.3473 45.018 49.4193C44.935 49.4668 44.852 49.5158 44.7705 49.5658C44.6885 49.6153 44.607 49.6663 44.5265 49.7178C44.4055 49.7953 44.286 49.8748 44.1685 49.9568C43.7755 50.2293 43.4 50.5248 43.0435 50.8408C42.972 50.9043 42.9015 50.9683 42.8315 51.0333C40.9275 52.8063 39.6035 55.1948 39.1785 57.8828" stroke="#B17569" stroke-width="0.35" stroke-miterlimit="10"/>
<path d="M60.764 57.883C60.74 57.756 60.713 57.6295 60.6845 57.504C60.6655 57.4235 60.646 57.3435 60.626 57.263C60.5125 56.824 60.371 56.397 60.202 55.984C60.1715 55.909 60.14 55.834 60.107 55.76C60.075 55.686 60.041 55.612 60.007 55.5385C59.8295 55.158 59.6285 54.7905 59.406 54.438C59.38 54.3965 59.3535 54.3555 59.327 54.3145C59.3095 54.2875 59.2925 54.261 59.2745 54.235C59.217 54.1485 59.1575 54.0625 59.0975 53.9775C59.0045 53.847 58.9085 53.719 58.81 53.5935C58.774 53.5475 58.7375 53.5025 58.701 53.458C58.662 53.4095 58.6225 53.362 58.5825 53.3145C56.75 51.1475 54.0115 49.7715 50.9515 49.7715C50.7555 49.7715 50.561 49.777 50.3685 49.7885C45.7555 50.0545 41.9815 53.45 41.139 57.884" stroke="#B17569" stroke-width="0.35" stroke-miterlimit="10"/>
<path d="M37.666 58.1201H42.449" stroke="#E3E4E5" stroke-width="0.5" stroke-linecap="round" stroke-linejoin="round"/>
<path d="M59.2305 58.1201H64.014" stroke="#E3E4E5" stroke-width="0.5" stroke-linecap="round" stroke-linejoin="round"/>
<path d="M41.8585 53.4707C41.8995 53.4957 41.9205 53.5132 41.9445 53.5227C42.122 53.5942 42.305 53.6542 42.477 53.7377C42.7575 53.8742 42.941 54.1042 43.0535 54.3922C43.1035 54.5207 43.148 54.6512 43.1985 54.7792C43.2075 54.8012 43.235 54.8157 43.254 54.8342C43.271 54.8157 43.295 54.8002 43.304 54.7787C43.3685 54.6177 43.421 54.4512 43.4945 54.2947C43.645 53.9737 43.8995 53.7642 44.2325 53.6477C44.348 53.6072 44.4635 53.5657 44.5775 53.5212C44.598 53.5132 44.6185 53.4892 44.624 53.4682C44.627 53.4582 44.599 53.4317 44.58 53.4242C44.461 53.3782 44.341 53.3352 44.221 53.2912C43.843 53.1522 43.5785 52.8987 43.4395 52.5182C43.395 52.3957 43.3485 52.2742 43.3 52.1532C43.2925 52.1337 43.262 52.1047 43.2545 52.1082C43.232 52.1177 43.207 52.1382 43.198 52.1607C43.1385 52.3102 43.085 52.4617 43.025 52.6112C42.9205 52.8717 42.739 53.0692 42.4915 53.1947C42.317 53.2837 42.1275 53.3427 41.945 53.4167C41.9195 53.4272 41.898 53.4457 41.8575 53.4717L41.8585 53.4707Z" fill="white"/>
<path d="M55.622 49.3579C55.663 49.3829 55.684 49.4004 55.708 49.4099C55.8855 49.4814 56.0685 49.5414 56.2405 49.6249C56.521 49.7614 56.7045 49.9914 56.817 50.2794C56.867 50.4079 56.9115 50.5384 56.962 50.6664C56.971 50.6884 56.9985 50.7029 57.0175 50.7214C57.0345 50.7029 57.0585 50.6874 57.0675 50.6659C57.132 50.5049 57.1845 50.3384 57.258 50.1819C57.4085 49.8609 57.663 49.6514 57.996 49.5349C58.1115 49.4944 58.227 49.4529 58.341 49.4084C58.3615 49.4004 58.382 49.3764 58.3875 49.3554C58.3905 49.3454 58.3625 49.3189 58.3435 49.3114C58.2245 49.2654 58.1045 49.2224 57.9845 49.1784C57.6065 49.0394 57.342 48.7859 57.203 48.4054C57.1585 48.2829 57.112 48.1614 57.0635 48.0404C57.056 48.0209 57.0255 47.9919 57.018 47.9954C56.9955 48.0049 56.9705 48.0254 56.9615 48.0479C56.902 48.1974 56.8485 48.3489 56.7885 48.4984C56.684 48.7589 56.5025 48.9564 56.255 49.0819C56.0805 49.1709 55.891 49.2299 55.7085 49.3039C55.683 49.3144 55.6615 49.3329 55.621 49.3589L55.622 49.3579Z" fill="white"/>
<path d="M47.7455 37.952L47.737 37.9385L47.751 37.9495L47.7455 37.952Z" fill="white"/>
<path d="M48.735 40.0882L46.464 41.7917L45.553 39.4347L47.7175 38.0527L48.735 40.0882Z" fill="white"/>
<path d="M50.1705 45.2353L48.916 42.5923C49.6355 42.6818 50.3905 42.7308 51.159 42.7323L50.171 45.2353H50.1705Z" fill="white"/>
<path d="M53.542 40.0971L51.361 38.3556L54.4565 38.0181L53.542 40.0971Z" fill="white"/>
<path d="M45.3871 39.3944L44.3316 40.6679L45.2636 38.9204L45.3861 39.3759L45.3811 39.3789L45.3871 39.3944Z" fill="#F0F1F1"/>
<path d="M50.1765 45.5745L51.0785 47.474L46.589 43.1705L46.5405 42.23L50.175 45.578L50.1765 45.5745Z" fill="#F0F1F1"/>
<path d="M52.2365 45.1887L51.2505 42.7327C52.0095 42.7312 52.756 42.6832 53.4675 42.5952L52.2365 45.1882V45.1887Z" fill="#F0F1F1"/>
<path d="M51.2055 42.5622L48.922 40.1502L48.912 40.1302L51.205 38.4102L53.4835 40.2297L53.481 40.2352L51.2055 42.5622Z" fill="#F0F1F1"/>
<path d="M47.263 37.402L47.2415 37.3745L47.8715 36.9025L51.1915 36.5405L54.5105 36.9025L55.122 37.3685L54.454 37.8775L51.1705 38.236L47.8875 37.8775L47.263 37.402Z" fill="#F0F1F1"/>
<path d="M55.8085 42.1484L55.82 43.0194V43.1454L51.308 47.4704L52.2355 45.5164L52.244 45.5334L55.8085 42.1484Z" fill="white"/>
<path d="M56.7551 39.4347L55.8056 41.8907V41.9037L53.6551 40.1872L54.5936 38.0547L56.7551 39.4347Z" fill="white"/>
<path d="M46.4413 43.0226V43.0291L44.6243 41.2866C45.0948 41.5851 45.6968 41.8476 46.3918 42.0646L46.4413 43.0226Z" fill="#58595B"/>
<path d="M45.5093 39.296L45.3743 38.7955L47.1298 37.4585L47.1648 37.5025L47.6908 37.903L45.5093 39.296Z" fill="#58595B"/>
<path d="M48.7178 42.4263C47.9113 42.3163 47.1558 42.1542 46.4863 41.9492L48.7933 40.2188L48.7183 42.4263H48.7178Z" fill="#58595B"/>
<path d="M52.1559 45.3581L51.1924 47.3881L50.2524 45.4086L51.2054 42.9951L52.1454 45.3371L52.1559 45.3581Z" fill="#58595B"/>
<path d="M55.7118 42.0086C55.0898 42.1871 54.3988 42.3291 53.6668 42.4286L53.6113 40.3311L55.7123 42.0086H55.7118Z" fill="#58595B"/>
<path d="M54.6348 37.9151L55.2368 37.4561L55.2423 37.4601L55.2468 37.4541L57.0638 38.8381L56.8143 39.3066L54.6348 37.9151Z" fill="#58595B"/>
<path d="M55.9474 42.0835C56.6464 41.8695 57.2534 41.6095 57.7309 41.3135L55.9594 43.0115L55.9474 42.0835Z" fill="#58595B"/>
<path d="M57.149 38.9761L57.9765 40.5271L56.926 39.3961L57.149 38.9761Z" fill="white"/>
<path d="M46.36 41.91C45.505 41.637 44.7995 41.293 44.322 40.897L45.4445 39.543L46.3595 41.91H46.36Z" fill="#A6A8AB"/>
<path d="M48.751 42.5711L50.0205 45.2451L46.6525 42.1426C47.2915 42.3256 48 42.4706 48.751 42.5711Z" fill="#A6A8AB"/>
<path d="M51.036 38.3621L48.8485 40.0031L47.855 38.0151L51.036 38.3621Z" fill="#A6A8AB"/>
<path d="M51.0415 42.5924C50.2925 42.5859 49.557 42.5349 48.8575 42.4449L48.929 40.3604L51.042 42.5924H51.0415Z" fill="#A6A8AB"/>
<path d="M53.4745 40.4424L53.5275 42.4479C52.837 42.5359 52.111 42.5859 51.3715 42.5924L53.474 40.4424H53.4745Z" fill="#A6A8AB"/>
<path d="M55.556 42.1963L52.381 45.2113L53.6325 42.5743C54.315 42.4833 54.963 42.3558 55.556 42.1963Z" fill="#A6A8AB"/>
<path d="M56.8655 39.5361L58.1055 40.8716C57.6105 41.2926 56.86 41.6561 55.9455 41.9396V41.9156L56.8655 39.5361Z" fill="#A6A8AB"/>
<path d="M51.1865 36.4585H51.186L47.8395 36.8235L47.141 37.347L45.2385 38.796L44.12 40.894L51.186 47.6675L58.252 40.894L57.1335 38.796L55.231 37.347L55.2795 37.393L54.5325 36.8235L51.1865 36.4585ZM51.1865 36.4585H51.186" stroke="#B17569" stroke-width="0.35" stroke-miterlimit="10"/>
<path d="M44.179 40.8601C45.3545 41.9161 48.153 42.6516 51.199 42.6516C54.245 42.6516 57.045 41.9126 58.216 40.8521" stroke="#B17569" stroke-width="0.35" stroke-miterlimit="10"/>
<path d="M48.859 40.1789L48.781 42.4709L51.187 47.5394L53.593 42.4709L53.5345 40.2634L51.199 42.6514L48.859 40.1789ZM48.859 40.1789L47.74 37.9404" stroke="#B17569" stroke-width="0.35" stroke-miterlimit="10"/>
<path d="M46.5155 43.1904L46.506 43.0079L46.457 42.0509L50.1465 45.4499L50.1775 45.3824L51.1995 42.7944L52.205 45.2994L52.259 45.4064L55.835 42.0104L55.827 42.0044L51.201 38.3099L48.8185 40.0974L46.427 41.8914L45.4615 39.3949L47.74 37.9404" stroke="#B17569" stroke-width="0.35" stroke-miterlimit="10"/>
<path d="M44.175 40.9471L44.219 40.8946L45.4615 39.3956L45.2895 38.7576L45.286 38.7441" stroke="#B17569" stroke-width="0.35" stroke-miterlimit="10"/>
<path d="M55.8845 43.1639V43.0079L55.871 41.9904L55.87 41.8914L56.8355 39.3949L54.557 37.9404L53.5345 40.2634" stroke="#B17569" stroke-width="0.35" stroke-miterlimit="10"/>
<path d="M58.1955 40.8604L56.8355 39.3959V39.3954L57.1435 38.8159" stroke="#B17569" stroke-width="0.35" stroke-miterlimit="10"/>
<path d="M47.136 37.3511L47.1365 37.3516L47.141 37.3566L47.209 37.4411L47.8555 37.9336L51.1655 38.2946L54.4755 37.9336L55.202 37.3801" stroke="#B17569" stroke-width="0.35" stroke-miterlimit="10"/>
<path d="M52.0075 40.37C52.0615 40.403 52.089 40.4255 52.1205 40.4385C52.354 40.5325 52.5945 40.611 52.82 40.721C53.1885 40.9 53.43 41.2025 53.5775 41.581C53.6435 41.7495 53.7015 41.921 53.7685 42.0895C53.78 42.1185 53.8165 42.138 53.8415 42.1615C53.864 42.1375 53.8955 42.117 53.907 42.0885C53.992 41.877 54.061 41.658 54.1575 41.4525C54.3555 41.031 54.6895 40.7555 55.1275 40.602C55.2795 40.549 55.431 40.4945 55.581 40.436C55.6075 40.4255 55.6345 40.394 55.6425 40.3665C55.646 40.353 55.6095 40.3185 55.585 40.309C55.4285 40.2485 55.271 40.192 55.1135 40.134C54.6165 39.9515 54.269 39.6185 54.0865 39.118C54.028 38.9575 53.967 38.7975 53.903 38.6385C53.893 38.613 53.8535 38.5745 53.843 38.579C53.8135 38.5915 53.7805 38.6185 53.7685 38.648C53.69 38.844 53.62 39.044 53.5415 39.24C53.404 39.5825 53.1655 39.8415 52.8405 40.007C52.611 40.1235 52.362 40.2015 52.1225 40.299C52.089 40.3125 52.0605 40.3375 52.0075 40.371V40.37Z" fill="white"/>
<path d="M45.1035 42.0635C45.1445 42.0885 45.1655 42.106 45.1895 42.1155C45.367 42.187 45.55 42.247 45.722 42.3305C46.0025 42.467 46.186 42.697 46.2985 42.985C46.3485 43.1135 46.393 43.244 46.4435 43.372C46.4525 43.394 46.48 43.4085 46.499 43.427C46.516 43.4085 46.54 43.393 46.549 43.3715C46.6135 43.2105 46.666 43.044 46.7395 42.8875C46.89 42.5665 47.1445 42.357 47.4775 42.2405C47.593 42.2 47.7085 42.1585 47.8225 42.114C47.843 42.106 47.8635 42.082 47.869 42.061C47.872 42.051 47.844 42.0245 47.825 42.017C47.706 41.971 47.586 41.928 47.466 41.884C47.088 41.745 46.8235 41.4915 46.6845 41.111C46.64 40.9885 46.5935 40.867 46.545 40.746C46.5375 40.7265 46.507 40.6975 46.4995 40.701C46.477 40.7105 46.452 40.731 46.443 40.7535C46.3835 40.903 46.33 41.0545 46.27 41.204C46.1655 41.4645 45.984 41.662 45.7365 41.7875C45.562 41.8765 45.3725 41.9355 45.19 42.0095C45.1645 42.02 45.143 42.0385 45.1025 42.0645L45.1035 42.0635Z" fill="white"/>
</svg>
